<svg xmlns="http://www.w3.org/2000/svg" version="1.1" xmlns:xlink="http://www.w3.org/1999/xlink" xmlns:svgjs="http://svgjs.dev/svgjs" width="1000" height="1000" viewBox="0 0 1000 1000"><rect width="1000" height="1000" fill="#0cafff"></rect><g transform="matrix(0.7,0,0,0.7,149.57575833201736,446.15761522135523)"><svg viewBox="0 0 396 61" data-background-color="#0cafff" preserveAspectRatio="xMidYMid meet" height="154" width="1000" xmlns="http://www.w3.org/2000/svg" xmlns:xlink="http://www.w3.org/1999/xlink"><g id="tight-bounds" transform="matrix(1,0,0,1,0.23999969987295344,-0.032602305219540995)"><svg viewBox="0 0 395.52 61.06519490438621" height="61.06519490438621" width="395.52"><g><svg viewBox="0 0 503.3730880080466 77.71686824644549" height="61.06519490438621" width="395.52"><g><rect width="5.071336745493838" height="67.48208530805685" x="408.795750642654" y="5.117391469194317" fill="#f7f6fe" opacity="1" stroke-width="0" stroke="transparent" fill-opacity="1" class="rect-o-0" data-fill-palette-color="primary" rx="1%" id="o-0" data-palette-color="#f7f6fe"></rect></g><g transform="matrix(1,0,0,1,0,10.740898578199051)"><svg viewBox="0 0 395.52 56.235071090047384" height="56.235071090047384" width="395.52"><g id="textblocktransform"><svg viewBox="0 0 395.52 56.235071090047384" height="56.235071090047384" width="395.52" id="textblock"><g><svg viewBox="0 0 395.52 56.235071090047384" height="56.235071090047384" width="395.52"><g transform="matrix(1,0,0,1,0,0)"><svg width="395.52" viewBox="5.400000095367432 -33 232.0900115966797 33" height="56.235071090047384" data-palette-color="#f7f6fe"><path d="M17.1 0L5.4 0 5.4-33 17.15-33Q23-33 25.7-30.55 28.4-28.1 28.4-23.9L28.4-23.9Q28.4-21.4 26.95-19.38 25.5-17.35 22.85-16.8L22.85-16.8 22.85-16.75Q25.8-16.2 27.53-14.08 29.25-11.95 29.25-9.25L29.25-9.25Q29.25-5.05 26.1-2.53 22.95 0 17.1 0L17.1 0ZM9.4-14.75L9.4-3.75 18.05-3.75Q21.6-3.75 23.33-5.2 25.05-6.65 25.05-9.25L25.05-9.25Q25.05-11.9 23.33-13.33 21.6-14.75 18.05-14.75L18.05-14.75 9.4-14.75ZM9.4-29.25L9.4-18.5 17.2-18.5Q24.2-18.5 24.2-23.9L24.2-23.9Q24.2-29.25 17.2-29.25L17.2-29.25 9.4-29.25ZM61.95 0L38.05 0 38.05-33 61.2-33 61.2-29.25 42.05-29.25 42.05-18.6 56.95-18.6 56.95-14.85 42.05-14.85 42.05-3.75 61.95-3.75 61.95 0ZM66.14-33L93.15-33 93.15-29.25 81.65-29.25 81.65 0 77.65 0 77.65-29.25 66.14-29.25 66.14-33ZM111.24 0L106.29 0 96.54-33 100.69-33 108.84-3.65 116.59-33 121.14-33 128.89-3.55 137.04-33 140.99-33 131.29 0 126.34 0 120.49-21.4 118.79-28.85 118.74-28.85 117.04-21.4 111.24 0ZM148.29 0L144.09 0 156.94-33 161.69-33 174.49 0 170.24 0 160.84-24.6 159.29-29.2 159.19-29.2 157.74-24.75 148.29 0ZM168.04-9.15L150.39-9.15 150.39-12.9 168.04-12.9 168.04-9.15ZM202.49-33L206.79-33 194.29 0 189.74 0 177.19-33 181.49-33 189.89-10.2 191.99-3.65 194.09-10.15 202.49-33ZM237.49 0L213.59 0 213.59-33 236.74-33 236.74-29.25 217.59-29.25 217.59-18.6 232.49-18.6 232.49-14.85 217.59-14.85 217.59-3.75 237.49-3.75 237.49 0Z" opacity="1" transform="matrix(1,0,0,1,0,0)" fill="#f7f6fe" class="wordmark-text-0" data-fill-palette-color="primary" id="text-0"></path></svg></g></svg></g></svg></g></svg></g><g transform="matrix(1,0,0,1,427.1428380308019,0)"><svg viewBox="0 0 76.23024997724465 77.71686824644549" height="77.71686824644549" width="76.23024997724465"><g><svg xmlns="http://www.w3.org/2000/svg" xmlns:xlink="http://www.w3.org/1999/xlink" version="1.1" x="0" y="0" viewBox="1.5181818008422852 1 47.081817626953125 47.99999237060547" enable-background="new 0 0 50 50" xml:space="preserve" height="77.71686824644549" width="76.23024997724465" class="icon-icon-0" data-fill-palette-color="accent" id="icon-0"><g fill="#f7f6fe" data-fill-palette-color="accent"><path d="M17.1 7c-3.1 0-5.7 2.5-5.7 5.7 0 3.1 2.5 5.7 5.7 5.7 3.1 0 5.7-2.5 5.7-5.7C22.7 9.5 20.2 7 17.1 7zM17.6 16.5v0.8h-0.7v-0.8c-1-0.1-2-0.5-2.8-1.2l0.8-1c0.6 0.5 1.3 0.9 1.9 1v-2.2c-1.5-0.4-2.4-0.8-2.4-2.3 0-1.4 1.1-2.2 2.4-2.3V8h0.7v0.6c0.8 0.1 1.6 0.3 2.3 0.8l-0.7 1c-0.5-0.4-1-0.6-1.6-0.6v2.1h0c1.5 0.3 2.5 0.8 2.5 2.3C20.1 15.6 19 16.4 17.6 16.5z" fill="#f7f6fe" data-fill-palette-color="accent"></path><path d="M17.1 1C10.7 1 5.4 6.2 5.4 12.7c0 6.4 5.2 11.6 11.6 11.6 3.7 0 7.2-1.8 9.1-4.4 0.4-0.3 2.6-3.2 2.6-7.3C28.7 6.2 23.5 1 17.1 1zM19.7 2.6C21.5 3 23.2 4 24.5 5.4l-2.1 1.8c-0.9-0.8-2-1.5-3.2-1.8L19.7 2.6zM14.5 2.6L15 5.3c-1.2 0.3-2.3 1-3.2 1.8L9.7 5.4C11 4 12.6 3 14.5 2.6zM7.1 15.5c-0.3-0.9-0.4-1.8-0.4-2.8 0-1 0.1-1.9 0.4-2.8l2.6 1c-0.1 0.6-0.2 1.2-0.2 1.8s0.1 1.2 0.2 1.8L7.1 15.5zM14.5 22.7c-1.9-0.5-3.5-1.5-4.9-2.8l2.2-1.8c0.9 0.8 1.9 1.5 3.2 1.8L14.5 22.7zM17.1 19.1c-3.6 0-6.5-2.9-6.5-6.5s2.9-6.5 6.5-6.5 6.5 2.9 6.5 6.5S20.7 19.1 17.1 19.1zM19.7 22.7L19.2 20c1.2-0.4 2.3-1 3.2-1.8l2.1 1.8C23.2 21.3 21.5 22.3 19.7 22.7zM27.1 15.5l-2.6-1c0.1-0.6 0.2-1.2 0.2-1.8s-0.1-1.2-0.2-1.8l2.6-1c0.3 0.9 0.4 1.8 0.4 2.8C27.5 13.6 27.4 14.6 27.1 15.5z" fill="#f7f6fe" data-fill-palette-color="accent"></path><path d="M15.8 10.7c0 0.6 0.4 0.8 1.1 1V9.8C16.3 9.8 15.8 10.1 15.8 10.7z" fill="#f7f6fe" data-fill-palette-color="accent"></path><path d="M18.7 14.3c0-0.6-0.5-0.9-1.2-1.1v2C18.2 15.2 18.7 14.9 18.7 14.3z" fill="#f7f6fe" data-fill-palette-color="accent"></path><path d="M46.2 39.6c-1.9-7.6-8.8-13-16.7-13H22c-1.5 0-2.8 1.2-2.8 2.8 0 1.5 1.2 2.8 2.8 2.8h9.8c0.5 0 1 0.4 1 1 0 0.5-0.4 1-1 1H18.5c-2.4 0-4.6-1-6.2-2.8l-5.4-6c-1.2-1.3-3.2-1.4-4.4-0.2-1.2 1.1-1.3 3-0.3 4.3l6.6 7.8c3 3.5 7.4 5.6 12 5.6h6c3.4 0 6.1 2.7 6.1 6.1h15.7L46.2 39.6z" fill="#f7f6fe" data-fill-palette-color="accent"></path></g></svg></g></svg></g></svg></g><defs></defs></svg><rect width="395.52" height="61.06519490438621" fill="none" stroke="none" visibility="hidden"></rect></g></svg></g></svg>