<svg xmlns="http://www.w3.org/2000/svg" version="1.1" xmlns:xlink="http://www.w3.org/1999/xlink" xmlns:svgjs="http://svgjs.dev/svgjs" width="1000" height="1000" viewBox="0 0 1000 1000"><rect width="1000" height="1000" fill="#ffffff"></rect><g transform="matrix(0.7,0,0,0.7,149.57575757575756,457.9580160589968)"><svg viewBox="0 0 396 48" data-background-color="#ffffff" preserveAspectRatio="xMidYMid meet" height="121" width="1000" xmlns="http://www.w3.org/2000/svg" xmlns:xlink="http://www.w3.org/1999/xlink"><g id="tight-bounds" transform="matrix(1,0,0,1,0.2400000000000091,-0.17455455527567665)"><svg viewBox="0 0 395.52 48.34910840671512" height="48.34910840671512" width="395.52"><g><svg viewBox="0 0 397.4975999999999 48.59085394874869" height="48.34910840671512" width="395.52"><g><rect width="397.4975999999999" height="1.4882736793816032" x="0" y="26.703397251420533" fill="#ba3b0a" opacity="1" stroke-width="0" stroke="transparent" fill-opacity="1" class="rect-o-0" data-fill-palette-color="secondary" rx="1%" id="o-0" data-palette-color="#ba3b0a"></rect></g><g transform="matrix(1,0,0,1,0.9887999999999693,32.08767532708906)"><svg viewBox="0 0 395.52 16.503178621659632" height="16.503178621659632" width="395.52"><g id="textblocktransform"><svg viewBox="0 0 395.52 16.503178621659632" height="16.503178621659632" width="395.52" id="textblock"><g><svg viewBox="0 0 395.52 16.503178621659632" height="16.503178621659632" width="395.52"><g transform="matrix(1,0,0,1,0,0)"><svg width="395.52" viewBox="3.700000047683716 -35 853.1400146484375 35.599998474121094" height="16.503178621659632" data-palette-color="#ba3b0a"><path d="M23-34.4Q26.2-34.4 28.7-32.93 31.2-31.45 32.6-28.88 34-26.3 34-23.1L34-23.1 34-22.45Q34-19.25 32.6-16.65 31.2-14.05 28.7-12.58 26.2-11.1 23-11.1L23-11.1 14.75-11.1 14.75 0 3.7 0 3.7-34.4 23-34.4ZM14.75-26.25L14.75-19.15 19.3-19.15Q21.05-19.15 21.93-20.05 22.8-20.95 22.8-22.5L22.8-22.5 22.8-22.9Q22.8-24.5 21.93-25.38 21.05-26.25 19.3-26.25L19.3-26.25 14.75-26.25ZM74.05 0L63 0 63-13.05 50.85-13.05 50.85 0 39.8 0 39.8-34.4 50.85-34.4 50.85-21.85 63-21.85 63-34.4 74.05-34.4 74.05 0ZM98.55-35Q107.45-35 112.3-30.45 117.15-25.9 117.15-17.2L117.15-17.2Q117.15-8.5 112.3-3.95 107.45 0.6 98.55 0.6L98.55 0.6Q89.65 0.6 84.82-3.93 80-8.45 80-17.2L80-17.2Q80-25.95 84.82-30.48 89.65-35 98.55-35L98.55-35ZM98.55-26.75Q95-26.75 93.15-24.6 91.3-22.45 91.3-18.8L91.3-18.8 91.3-15.6Q91.3-11.95 93.15-9.8 95-7.65 98.55-7.65L98.55-7.65Q102.09-7.65 103.97-9.8 105.84-11.95 105.84-15.6L105.84-15.6 105.84-18.8Q105.84-22.45 103.97-24.6 102.09-26.75 98.55-26.75L98.55-26.75ZM123.09 0L123.09-34.4 152.84-34.4 152.84-26.15 134.14-26.15 134.14-21.4 150.14-21.4 150.14-13.5 134.14-13.5 134.14-8.25 153.19-8.25 153.19 0 123.09 0ZM193.44 0L183.79 0 169.34-16.7 169.34 0 159.19 0 159.19-34.4 168.84-34.4 183.29-17.45 183.29-34.4 193.44-34.4 193.44 0ZM212.39 0L201.34 0 201.34-34.4 212.39-34.4 212.39 0ZM243.19-18.15L255.49 0 242.09 0 235.74-10.7 235.54-10.7 229.19 0 216.79 0 229.09-18.2 217.99-34.4 231.34-34.4 236.54-25.6 236.74-25.6 241.99-34.4 254.34-34.4 243.19-18.15ZM287.38 0L276.33 0 276.33-34.4 287.38-34.4 287.38 0ZM329.53 0L319.88 0 305.43-16.7 305.43 0 295.28 0 295.28-34.4 304.93-34.4 319.38-17.45 319.38-34.4 329.53-34.4 329.53 0ZM351.38-35Q357.98-35 362.23-32.33 366.48-29.65 366.58-24.4L366.58-24.4 366.58-23.8 356.23-23.8 356.23-24Q356.23-25.5 355.13-26.5 354.03-27.5 351.78-27.5L351.78-27.5Q349.58-27.5 348.4-26.85 347.23-26.2 347.23-25.25L347.23-25.25Q347.23-23.9 348.83-23.25 350.43-22.6 353.98-21.9L353.98-21.9Q358.13-21.05 360.8-20.13 363.48-19.2 365.48-17.1 367.48-15 367.53-11.4L367.53-11.4Q367.53-5.3 363.4-2.35 359.28 0.6 352.38 0.6L352.38 0.6Q344.33 0.6 339.85-2.1 335.38-4.8 335.38-11.65L335.38-11.65 345.83-11.65Q345.83-9.05 347.18-8.18 348.53-7.3 351.38-7.3L351.38-7.3Q353.48-7.3 354.85-7.75 356.23-8.2 356.23-9.6L356.23-9.6Q356.23-10.85 354.7-11.48 353.18-12.1 349.73-12.8L349.73-12.8Q345.53-13.7 342.78-14.68 340.03-15.65 337.98-17.9 335.93-20.15 335.93-24L335.93-24Q335.93-29.65 340.3-32.33 344.68-35 351.38-35L351.38-35ZM407.27-13.85Q407.27-6.8 402.82-3.1 398.37 0.6 390.17 0.6L390.17 0.6Q381.97 0.6 377.5-3.1 373.02-6.8 373.02-13.85L373.02-13.85 373.02-34.4 384.07-34.4 384.07-14Q384.07-11.1 385.62-9.38 387.17-7.65 390.12-7.65L390.12-7.65Q393.07-7.65 394.65-9.4 396.22-11.15 396.22-14L396.22-14 396.22-34.4 407.27-34.4 407.27-13.85ZM447.32-23.85Q447.32-20.7 445.62-18.15 443.92-15.6 440.67-14.4L440.67-14.4 448.32 0 435.92 0 429.82-12.55 425.72-12.55 425.72 0 414.67 0 414.67-34.4 435.72-34.4Q439.42-34.4 442.05-32.98 444.67-31.55 446-29.13 447.32-26.7 447.32-23.85L447.32-23.85ZM436.07-23.4Q436.07-24.75 435.17-25.65 434.27-26.55 432.97-26.55L432.97-26.55 425.72-26.55 425.72-20.2 432.97-20.2Q434.27-20.2 435.17-21.13 436.07-22.05 436.07-23.4L436.07-23.4ZM488.32 0L476.62 0 475.17-4.85 463.12-4.85 461.67 0 450.37 0 462.92-34.4 475.77-34.4 488.32 0ZM469.07-24.8L465.42-12.55 472.87-12.55 469.27-24.8 469.07-24.8ZM526.72 0L517.07 0 502.62-16.7 502.62 0 492.47 0 492.47-34.4 502.12-34.4 516.57-17.45 516.57-34.4 526.72-34.4 526.72 0ZM550.51-35Q558.16-35 562.61-31.18 567.06-27.35 567.06-20.25L567.06-20.25 556.51-20.25Q556.51-23.25 554.94-25 553.36-26.75 550.46-26.75L550.46-26.75Q547.11-26.75 545.54-24.65 543.96-22.55 543.96-18.8L543.96-18.8 543.96-15.6Q543.96-11.9 545.54-9.78 547.11-7.65 550.36-7.65L550.36-7.65Q553.56-7.65 555.21-9.3 556.86-10.95 556.86-13.95L556.86-13.95 567.06-13.95Q567.06-6.9 562.74-3.15 558.41 0.6 550.51 0.6L550.51 0.6Q541.71 0.6 537.19-3.9 532.66-8.4 532.66-17.2L532.66-17.2Q532.66-26 537.19-30.5 541.71-35 550.51-35L550.51-35ZM573.01 0L573.01-34.4 602.76-34.4 602.76-26.15 584.06-26.15 584.06-21.4 600.06-21.4 600.06-13.5 584.06-13.5 584.06-8.25 603.11-8.25 603.11 0 573.01 0ZM660.5 0L648.8 0 647.35-4.85 635.3-4.85 633.85 0 622.55 0 635.1-34.4 647.95-34.4 660.5 0ZM641.25-24.8L637.6-12.55 645.05-12.55 641.45-24.8 641.25-24.8ZM681.05-35Q686-35 689.95-33.5 693.9-32 696.23-29.08 698.55-26.15 698.55-21.95L698.55-21.95 688-21.95Q688-24.1 686.1-25.43 684.2-26.75 681.5-26.75L681.5-26.75Q677.6-26.75 675.6-24.68 673.6-22.6 673.6-18.8L673.6-18.8 673.6-15.6Q673.6-11.8 675.6-9.73 677.6-7.65 681.5-7.65L681.5-7.65Q684.2-7.65 686.1-8.93 688-10.2 688-12.2L688-12.2 680.2-12.2 680.2-19.2 698.55-19.2 698.55 0 692.85 0 691.75-3.4Q687.05 0.6 679.45 0.6L679.45 0.6Q670.9 0.6 666.6-3.88 662.3-8.35 662.3-17.2L662.3-17.2Q662.3-25.95 667.18-30.48 672.05-35 681.05-35L681.05-35ZM705.4 0L705.4-34.4 735.15-34.4 735.15-26.15 716.45-26.15 716.45-21.4 732.45-21.4 732.45-13.5 716.45-13.5 716.45-8.25 735.5-8.25 735.5 0 705.4 0ZM775.75 0L766.1 0 751.65-16.7 751.65 0 741.5 0 741.5-34.4 751.15-34.4 765.6-17.45 765.6-34.4 775.75-34.4 775.75 0ZM799.54-35Q807.19-35 811.64-31.18 816.09-27.35 816.09-20.25L816.09-20.25 805.54-20.25Q805.54-23.25 803.97-25 802.39-26.75 799.49-26.75L799.49-26.75Q796.14-26.75 794.57-24.65 792.99-22.55 792.99-18.8L792.99-18.8 792.99-15.6Q792.99-11.9 794.57-9.78 796.14-7.65 799.39-7.65L799.39-7.65Q802.59-7.65 804.24-9.3 805.89-10.95 805.89-13.95L805.89-13.95 816.09-13.95Q816.09-6.9 811.77-3.15 807.44 0.6 799.54 0.6L799.54 0.6Q790.74 0.6 786.22-3.9 781.69-8.4 781.69-17.2L781.69-17.2Q781.69-26 786.22-30.5 790.74-35 799.54-35L799.54-35ZM843.39-13.35L843.39 0 832.34 0 832.34-13.35 818.69-34.4 831.39-34.4 837.99-22.95 838.19-22.95 844.79-34.4 856.84-34.4 843.39-13.35Z" opacity="1" transform="matrix(1,0,0,1,0,0)" fill="#ba3b0a" class="wordmark-text-0" data-fill-palette-color="primary" id="text-0"></path></svg></g></svg></g></svg></g></svg></g><g transform="matrix(1,0,0,1,178.92844232571366,0)"><svg viewBox="0 0 39.64071534857263 22.807392855133614" height="22.807392855133614" width="39.64071534857263"><g><svg xmlns="http://www.w3.org/2000/svg" xmlns:xlink="http://www.w3.org/1999/xlink" xml:space="preserve" style="shape-rendering:geometricPrecision;text-rendering:geometricPrecision;image-rendering:optimizeQuality;" viewBox="7.471707820892334 8.970802307128906 85.05660247802734 82.05840301513672" x="8" y="0" fill-rule="evenodd" clip-rule="evenodd" height="22.807392855133614" width="23.640715348572627" class="icon-icon-0" data-fill-palette-color="accent" id="icon-0"><g fill="#ba3b0a" data-fill-palette-color="accent"><path class="" d="M25.972 48.706c1.29 0 2.534-0.196 3.703-0.561 0.901-0.576 1.885-1.035 2.928-1.354 2.606-1.649 4.557-4.239 5.373-7.294l-0.13-0.128c-3.392-3.4-5.492-8.087-5.493-13.256 0-0.163 0.002-0.326 0.007-0.488-1.866-1.122-4.052-1.766-6.388-1.766-6.86 0-12.424 5.563-12.424 12.424 0 6.86 5.564 12.423 12.424 12.423z m59.156 3.914l-8.463 0c0.896 1.673 1.405 3.583 1.406 5.603l0 7.866 0 0.957 0 0.055 0 3.371 0 20.556 3.986 0c4.181 0 7.944-1.89 10.471-4.859l0-26.148c0-4.07-3.33-7.401-7.4-7.401z m-15.276-26.507c0 5.176-2.1 9.864-5.5 13.256-0.575 0.574-1.186 1.112-1.83 1.607 0.868 2.127 2.311 3.96 4.132 5.306 2.487 0.111 4.782 0.991 6.651 2.403l0.723 0.021c6.86 0 12.424-5.563 12.424-12.423 0-6.861-5.564-12.424-12.424-12.424-1.488 0-2.915 0.262-4.237 0.741 0.04 0.499 0.061 1.003 0.061 1.513z m-35.556-0.335c0 9.28 7.526 16.806 16.806 16.805 9.281 0 16.808-7.526 16.807-16.805 0-9.281-7.527-16.807-16.807-16.807-9.28 0-16.806 7.526-16.806 16.807z m1.79 22.1c-5.507 0-10.011 4.504-10.011 10.01l0 20.304 0 4.158 0 8.679 50.053 0 0-20.892 0-4.383 0-7.866c0-5.506-4.504-10.011-10.01-10.01l-30.032 0z m-10.547 4.742l-10.667 0c-4.071 0-7.4 3.33-7.4 7.401l0 26.25c2.527 2.91 6.25 4.757 10.383 4.757l6.277 0 0-8.343 0-0.695 0-0.382 0-3.081 0-20.304c0-2.021 0.509-3.929 1.407-5.603z" fill="#ba3b0a" data-fill-palette-color="accent"></path></g></svg></g></svg></g><g><rect width="102.39532232571368" height="1.4882736793816032" y="20.31911917575201" x="218.5691576742863" fill="#ba3b0a" data-fill-palette-color="secondary"></rect><rect width="102.39532232571368" height="1.4882736793816032" y="20.31911917575201" x="76.53311999999997" fill="#ba3b0a" data-fill-palette-color="secondary"></rect></g></svg></g><defs></defs></svg><rect width="395.52" height="48.34910840671512" fill="none" stroke="none" visibility="hidden"></rect></g></svg></g></svg>