<svg xmlns="http://www.w3.org/2000/svg" version="1.1" xmlns:xlink="http://www.w3.org/1999/xlink" xmlns:svgjs="http://svgjs.dev/svgjs" width="1000" height="1000" viewBox="0 0 1000 1000"><rect width="1000" height="1000" fill="#f0cf90"></rect><g transform="matrix(0.7,0,0,0.7,149.57575757575756,282.1265587044535)"><svg viewBox="0 0 396 247" data-background-color="#f0cf90" preserveAspectRatio="xMidYMid meet" height="623" width="1000" xmlns="http://www.w3.org/2000/svg" xmlns:xlink="http://www.w3.org/1999/xlink"><g id="tight-bounds" transform="matrix(1,0,0,1,0.2400000000000091,-0.09999999999999432)"><svg viewBox="0 0 395.52 247.2" height="247.2" width="395.52"><g><svg></svg></g><g><svg viewBox="0 0 395.52 247.2" height="247.2" width="395.52"><mask id="bfccdf61-c61c-429e-be5c-a39f2c844ea3"><rect width="395.52" height="247.2" fill="white"></rect><g transform="matrix(1,0,0,1,0,108.67609055770292)" id="clone"><svg viewBox="0 0 395.52 29.847818884594147" height="29.847818884594147" width="395.52"><g><svg viewBox="0 0 395.52 29.847818884594147" height="29.847818884594147" width="395.52"><g><svg viewBox="0 0 395.52 29.847818884594147" height="29.847818884594147" width="395.52"><g><svg viewBox="0 0 395.52 29.847818884594147" height="29.847818884594147" width="395.52"><g id="SvgjsG1194"><svg viewBox="0 0 395.52 29.847818884594147" height="29.847818884594147" width="395.52" id="SvgjsSvg1193"><g><svg viewBox="0 0 395.52 29.847818884594147" height="29.847818884594147" width="395.52"><g transform="matrix(1,0,0,1,0,0)"><svg width="395.52" viewBox="-1.35 -38.5 544.23 42" height="29.847818884594147" data-palette-color="#f3fa3a"><path d="M9.85 0.5Q5.85 0.5 3.75-1.78 1.65-4.05 1.65-8.3L1.65-8.3 1.65-26.7Q1.65-30.95 3.75-33.23 5.85-35.5 9.85-35.5L9.85-35.5Q13.85-35.5 15.95-33.23 18.05-30.95 18.05-26.7L18.05-26.7 18.05-23.7 12.85-23.7 12.85-27.05Q12.85-30.5 10-30.5L10-30.5Q7.15-30.5 7.15-27.05L7.15-27.05 7.15-7.9Q7.15-4.5 10-4.5L10-4.5Q12.85-4.5 12.85-7.9L12.85-7.9 12.85-14.75 10.1-14.75 10.1-19.75 18.05-19.75 18.05-8.3Q18.05-4.05 15.95-1.78 13.85 0.5 9.85 0.5L9.85 0.5ZM29.55 0.5Q25.5 0.5 23.35-1.8 21.2-4.1 21.2-8.3L21.2-8.3 21.2-26.7Q21.2-30.9 23.35-33.2 25.5-35.5 29.55-35.5L29.55-35.5Q33.6-35.5 35.75-33.2 37.9-30.9 37.9-26.7L37.9-26.7 37.9-8.3Q37.9-4.1 35.75-1.8 33.6 0.5 29.55 0.5L29.55 0.5ZM29.55-4.5Q32.4-4.5 32.4-7.95L32.4-7.95 32.4-27.05Q32.4-30.5 29.55-30.5L29.55-30.5Q26.7-30.5 26.7-27.05L26.7-27.05 26.7-7.95Q26.7-4.5 29.55-4.5L29.55-4.5ZM41.59 0L41.59-35 47.09-35 47.09-5 56.15-5 56.15 0 41.59 0ZM58.79 0L58.79-35 67.19-35Q71.29-35 73.34-32.8 75.39-30.6 75.39-26.35L75.39-26.35 75.39-8.65Q75.39-4.4 73.34-2.2 71.29 0 67.19 0L67.19 0 58.79 0ZM64.29-5L67.09-5Q68.44-5 69.17-5.8 69.89-6.6 69.89-8.4L69.89-8.4 69.89-26.6Q69.89-28.4 69.17-29.2 68.44-30 67.09-30L67.09-30 64.29-30 64.29-5ZM79.09 0L79.09-35 94.09-35 94.09-30 84.59-30 84.59-20.75 92.14-20.75 92.14-15.75 84.59-15.75 84.59-5 94.09-5 94.09 0 79.09 0ZM97.24 0L97.24-35 104.14-35 109.49-14.05 109.59-14.05 109.59-35 114.49-35 114.49 0 108.84 0 102.24-25.55 102.14-25.55 102.14 0 97.24 0ZM133.73 0.5Q129.73 0.5 127.68-1.78 125.63-4.05 125.63-8.3L125.63-8.3 125.63-10.3 130.83-10.3 130.83-7.9Q130.83-4.5 133.68-4.5L133.68-4.5Q135.08-4.5 135.81-5.33 136.53-6.15 136.53-8L136.53-8Q136.53-10.2 135.53-11.88 134.53-13.55 131.83-15.9L131.83-15.9Q128.43-18.9 127.08-21.33 125.73-23.75 125.73-26.8L125.73-26.8Q125.73-30.95 127.83-33.23 129.93-35.5 133.93-35.5L133.93-35.5Q137.88-35.5 139.91-33.23 141.93-30.95 141.93-26.7L141.93-26.7 141.93-25.25 136.73-25.25 136.73-27.05Q136.73-28.85 136.03-29.68 135.33-30.5 133.98-30.5L133.98-30.5Q131.23-30.5 131.23-27.15L131.23-27.15Q131.23-25.25 132.26-23.6 133.28-21.95 135.98-19.6L135.98-19.6Q139.43-16.6 140.73-14.15 142.03-11.7 142.03-8.4L142.03-8.4Q142.03-4.1 139.91-1.8 137.78 0.5 133.73 0.5L133.73 0.5ZM149.48 0L149.48-30 143.73-30 143.73-35 160.73-35 160.73-30 154.98-30 154.98 0 149.48 0ZM159.63 0L165.33-35 172.78-35 178.48 0 172.98 0 171.98-6.95 171.98-6.85 165.73-6.85 164.73 0 159.63 0ZM166.38-11.6L171.33-11.6 168.88-28.9 168.78-28.9 166.38-11.6ZM181.13 0L181.13-35 189.28-35Q193.53-35 195.48-33.02 197.43-31.05 197.43-26.95L197.43-26.95 197.43-24.8Q197.43-19.35 193.83-17.9L193.83-17.9 193.83-17.8Q195.83-17.2 196.65-15.35 197.48-13.5 197.48-10.4L197.48-10.4 197.48-4.25Q197.48-2.75 197.58-1.83 197.68-0.9 198.08 0L198.08 0 192.48 0Q192.18-0.85 192.08-1.6 191.98-2.35 191.98-4.3L191.98-4.3 191.98-10.7Q191.98-13.1 191.2-14.05 190.43-15 188.53-15L188.53-15 186.63-15 186.63 0 181.13 0ZM186.63-20L188.63-20Q190.28-20 191.1-20.85 191.93-21.7 191.93-23.7L191.93-23.7 191.93-26.4Q191.93-28.3 191.25-29.15 190.58-30 189.13-30L189.13-30 186.63-30 186.63-20ZM216.42 0.5Q212.42 0.5 210.37-1.78 208.32-4.05 208.32-8.3L208.32-8.3 208.32-10.3 213.52-10.3 213.52-7.9Q213.52-4.5 216.37-4.5L216.37-4.5Q217.77-4.5 218.5-5.33 219.22-6.15 219.22-8L219.22-8Q219.22-10.2 218.22-11.88 217.22-13.55 214.52-15.9L214.52-15.9Q211.12-18.9 209.77-21.33 208.42-23.75 208.42-26.8L208.42-26.8Q208.42-30.95 210.52-33.23 212.62-35.5 216.62-35.5L216.62-35.5Q220.57-35.5 222.6-33.23 224.62-30.95 224.62-26.7L224.62-26.7 224.62-25.25 219.42-25.25 219.42-27.05Q219.42-28.85 218.72-29.68 218.02-30.5 216.67-30.5L216.67-30.5Q213.92-30.5 213.92-27.15L213.92-27.15Q213.92-25.25 214.95-23.6 215.97-21.95 218.67-19.6L218.67-19.6Q222.12-16.6 223.42-14.15 224.72-11.7 224.72-8.4L224.72-8.4Q224.72-4.1 222.6-1.8 220.47 0.5 216.42 0.5L216.42 0.5ZM227.87 0L227.87-35 235.97-35Q240.07-35 242.12-32.8 244.17-30.6 244.17-26.35L244.17-26.35 244.17-22.9Q244.17-18.65 242.12-16.45 240.07-14.25 235.97-14.25L235.97-14.25 233.37-14.25 233.37 0 227.87 0ZM233.37-19.25L235.97-19.25Q237.32-19.25 237.99-20 238.67-20.75 238.67-22.55L238.67-22.55 238.67-26.7Q238.67-28.5 237.99-29.25 237.32-30 235.97-30L235.97-30 233.37-30 233.37-19.25ZM255.12 0.5Q251.07 0.5 248.92-1.8 246.77-4.1 246.77-8.3L246.77-8.3 246.77-26.7Q246.77-30.9 248.92-33.2 251.07-35.5 255.12-35.5L255.12-35.5Q259.17-35.5 261.32-33.2 263.47-30.9 263.47-26.7L263.47-26.7 263.47-8.3Q263.47-4.1 261.32-1.8 259.17 0.5 255.12 0.5L255.12 0.5ZM255.12-4.5Q257.97-4.5 257.97-7.95L257.97-7.95 257.97-27.05Q257.97-30.5 255.12-30.5L255.12-30.5Q252.27-30.5 252.27-27.05L252.27-27.05 252.27-7.95Q252.27-4.5 255.12-4.5L255.12-4.5ZM267.16 0L267.16-35 275.31-35Q279.56-35 281.51-33.02 283.46-31.05 283.46-26.95L283.46-26.95 283.46-24.8Q283.46-19.35 279.86-17.9L279.86-17.9 279.86-17.8Q281.86-17.2 282.69-15.35 283.51-13.5 283.51-10.4L283.51-10.4 283.51-4.25Q283.51-2.75 283.61-1.83 283.71-0.9 284.11 0L284.11 0 278.51 0Q278.21-0.85 278.11-1.6 278.01-2.35 278.01-4.3L278.01-4.3 278.01-10.7Q278.01-13.1 277.24-14.05 276.46-15 274.56-15L274.56-15 272.66-15 272.66 0 267.16 0ZM272.66-20L274.66-20Q276.31-20 277.14-20.85 277.96-21.7 277.96-23.7L277.96-23.7 277.96-26.4Q277.96-28.3 277.29-29.15 276.61-30 275.16-30L275.16-30 272.66-30 272.66-20ZM291.51 0L291.51-30 285.76-30 285.76-35 302.76-35 302.76-30 297.01-30 297.01 0 291.51 0ZM312.56 0.5Q308.56 0.5 306.51-1.78 304.46-4.05 304.46-8.3L304.46-8.3 304.46-10.3 309.66-10.3 309.66-7.9Q309.66-4.5 312.51-4.5L312.51-4.5Q313.91-4.5 314.63-5.33 315.36-6.15 315.36-8L315.36-8Q315.36-10.2 314.36-11.88 313.36-13.55 310.66-15.9L310.66-15.9Q307.26-18.9 305.91-21.33 304.56-23.75 304.56-26.8L304.56-26.8Q304.56-30.95 306.66-33.23 308.76-35.5 312.76-35.5L312.76-35.5Q316.71-35.5 318.73-33.23 320.76-30.95 320.76-26.7L320.76-26.7 320.76-25.25 315.56-25.25 315.56-27.05Q315.56-28.85 314.86-29.68 314.16-30.5 312.81-30.5L312.81-30.5Q310.06-30.5 310.06-27.15L310.06-27.15Q310.06-25.25 311.08-23.6 312.11-21.95 314.81-19.6L314.81-19.6Q318.26-16.6 319.56-14.15 320.86-11.7 320.86-8.4L320.86-8.4Q320.86-4.1 318.73-1.8 316.61 0.5 312.56 0.5L312.56 0.5ZM332 0L332-35 339.85-35 343.35-9.95 343.45-9.95 346.95-35 354.8-35 354.8 0 349.6 0 349.6-26.5 349.5-26.5 345.5 0 340.9 0 336.9-26.5 336.8-26.5 336.8 0 332 0ZM357.45 0L363.15-35 370.6-35 376.3 0 370.8 0 369.8-6.95 369.8-6.85 363.55-6.85 362.55 0 357.45 0ZM364.2-11.6L369.15-11.6 366.7-28.9 366.6-28.9 364.2-11.6ZM378.95 0L378.95-35 385.85-35 391.2-14.05 391.3-14.05 391.3-35 396.2-35 396.2 0 390.55 0 383.95-25.55 383.85-25.55 383.85 0 378.95 0ZM398.85 0L404.55-35 412-35 417.69 0 412.19 0 411.19-6.95 411.19-6.85 404.94-6.85 403.94 0 398.85 0ZM405.6-11.6L410.55-11.6 408.1-28.9 408-28.9 405.6-11.6ZM428.04 0.5Q424.04 0.5 421.94-1.78 419.84-4.05 419.84-8.3L419.84-8.3 419.84-26.7Q419.84-30.95 421.94-33.23 424.04-35.5 428.04-35.5L428.04-35.5Q432.04-35.5 434.14-33.23 436.24-30.95 436.24-26.7L436.24-26.7 436.24-23.7 431.04-23.7 431.04-27.05Q431.04-30.5 428.19-30.5L428.19-30.5Q425.34-30.5 425.34-27.05L425.34-27.05 425.34-7.9Q425.34-4.5 428.19-4.5L428.19-4.5Q431.04-4.5 431.04-7.9L431.04-7.9 431.04-14.75 428.29-14.75 428.29-19.75 436.24-19.75 436.24-8.3Q436.24-4.05 434.14-1.78 432.04 0.5 428.04 0.5L428.04 0.5ZM439.79 0L439.79-35 454.79-35 454.79-30 445.29-30 445.29-20.75 452.84-20.75 452.84-15.75 445.29-15.75 445.29-5 454.79-5 454.79 0 439.79 0ZM457.94 0L457.94-35 465.79-35 469.29-9.95 469.39-9.95 472.89-35 480.74-35 480.74 0 475.54 0 475.54-26.5 475.44-26.5 471.44 0 466.84 0 462.84-26.5 462.74-26.5 462.74 0 457.94 0ZM484.83 0L484.83-35 499.83-35 499.83-30 490.33-30 490.33-20.75 497.88-20.75 497.88-15.75 490.33-15.75 490.33-5 499.83-5 499.83 0 484.83 0ZM502.98 0L502.98-35 509.88-35 515.23-14.05 515.33-14.05 515.33-35 520.23-35 520.23 0 514.58 0 507.98-25.55 507.88-25.55 507.88 0 502.98 0ZM528.63 0L528.63-30 522.88-30 522.88-35 539.88-35 539.88-30 534.13-30 534.13 0 528.63 0Z" opacity="1" transform="matrix(1,0,0,1,0,0)" fill="black" class="wordmark-text-0" id="SvgjsPath1192" stroke-width="5" stroke="black" stroke-linejoin="round"></path></svg></g></svg></g></svg></g></svg></g></svg></g></svg></g></svg></g></mask><g mask="url(#bfccdf61-c61c-429e-be5c-a39f2c844ea3)"><g><path d="M41.361 212.197c-13.126 0-23.134-3.741-30.025-11.222-6.891-7.449-10.336-18.146-10.336-32.092v0-90.566c0-13.946 3.445-24.66 10.336-32.141 6.891-7.449 16.899-11.173 30.025-11.173v0c13.126 0 23.134 3.724 30.025 11.173 6.891 7.482 10.336 18.195 10.336 32.141v0 14.766h-25.595v-16.489c0-11.321-4.676-16.981-14.028-16.981v0c-9.352 0-14.028 5.66-14.028 16.981v0 94.258c0 11.157 4.676 16.735 14.028 16.735v0c9.352 0 14.028-5.578 14.028-16.735v0-33.716h-13.535v-24.611h39.13v56.358c0 13.946-3.445 24.643-10.336 32.092-6.891 7.482-16.899 11.222-30.025 11.222zM134.388 212.197c-13.126 0-23.052-3.741-29.778-11.222-6.727-7.449-10.09-18.146-10.091-32.092v0-9.844h25.595v11.813c0 11.157 4.676 16.735 14.028 16.735v0c4.594 0 8.089-1.362 10.484-4.085 2.363-2.691 3.544-7.071 3.544-13.142v0c0-7.219-1.641-13.585-4.922-19.098-3.281-5.48-9.352-12.075-18.212-19.787v0c-11.157-9.844-18.95-18.753-23.38-26.727-4.43-7.941-6.645-16.916-6.644-26.923v0c0-13.618 3.445-24.167 10.336-31.649 6.891-7.449 16.899-11.173 30.025-11.173v0c12.961 0 22.756 3.724 29.384 11.173 6.661 7.482 9.992 18.195 9.992 32.141v0 7.137h-25.595v-8.86c0-5.906-1.148-10.222-3.445-12.945-2.297-2.691-5.66-4.036-10.09-4.036v0c-9.024 0-13.536 5.496-13.536 16.489v0c0 6.235 1.69 12.059 5.07 17.473 3.347 5.414 9.45 11.977 18.31 19.689v0c11.321 9.844 19.114 18.786 23.38 26.825 4.266 8.039 6.399 17.473 6.398 28.302v0c0 14.11-3.495 24.939-10.484 32.486-6.957 7.547-17.08 11.321-30.369 11.32zM225.939 212.197c-13.126 0-23.052-3.741-29.779-11.222-6.727-7.449-10.09-18.146-10.09-32.092v0-9.844h25.595v11.813c0 11.157 4.676 16.735 14.028 16.735v0c4.594 0 8.089-1.362 10.484-4.085 2.363-2.691 3.544-7.071 3.544-13.142v0c0-7.219-1.641-13.585-4.922-19.098-3.281-5.48-9.352-12.075-18.212-19.787v0c-11.157-9.844-18.95-18.753-23.38-26.727-4.43-7.941-6.645-16.916-6.645-26.923v0c0-13.618 3.445-24.167 10.337-31.649 6.891-7.449 16.899-11.173 30.024-11.173v0c12.961 0 22.773 3.724 29.434 11.173 6.628 7.482 9.943 18.195 9.943 32.141v0 7.137h-25.595v-8.86c0-5.906-1.148-10.222-3.445-12.945-2.297-2.691-5.66-4.036-10.091-4.036v0c-9.024 0-13.536 5.496-13.535 16.489v0c0 6.235 1.69 12.059 5.069 17.473 3.347 5.414 9.45 11.977 18.311 19.689v0c11.321 9.844 19.114 18.786 23.379 26.825 4.266 8.039 6.399 17.473 6.399 28.302v0c0 14.11-3.478 24.939-10.435 32.486-6.989 7.547-17.129 11.321-30.418 11.32zM282.297 209.736v-172.272h38.638l17.227 123.298h0.492l17.228-123.298h38.638v172.272h-25.595v-130.435h-0.492l-19.688 130.435h-22.642l-19.688-130.435h-0.492v130.435z" fill="#f3fa3a" fill-rule="nonzero" stroke="none" stroke-width="1" stroke-linecap="butt" stroke-linejoin="miter" stroke-miterlimit="10" stroke-dasharray="" stroke-dashoffset="0" font-family="none" font-weight="none" font-size="none" text-anchor="none" style="mix-blend-mode: normal" data-fill-palette-color="tertiary"></path></g></g><g transform="matrix(1,0,0,1,0,108.67609055770292)"><svg viewBox="0 0 395.52 29.847818884594147" height="29.847818884594147" width="395.52"><g><svg viewBox="0 0 395.52 29.847818884594147" height="29.847818884594147" width="395.52"><g><svg viewBox="0 0 395.52 29.847818884594147" height="29.847818884594147" width="395.52"><g><svg viewBox="0 0 395.52 29.847818884594147" height="29.847818884594147" width="395.52"><g id="textblocktransform"><svg viewBox="0 0 395.52 29.847818884594147" height="29.847818884594147" width="395.52" id="textblock"><g><svg viewBox="0 0 395.52 29.847818884594147" height="29.847818884594147" width="395.52"><g transform="matrix(1,0,0,1,0,0)"><svg width="395.52" viewBox="-1.35 -38.5 544.23 42" height="29.847818884594147" data-palette-color="#f3fa3a"><path d="M9.85 0.5Q5.85 0.5 3.75-1.78 1.65-4.05 1.65-8.3L1.65-8.3 1.65-26.7Q1.65-30.95 3.75-33.23 5.85-35.5 9.85-35.5L9.85-35.5Q13.85-35.5 15.95-33.23 18.05-30.95 18.05-26.7L18.05-26.7 18.05-23.7 12.85-23.7 12.85-27.05Q12.85-30.5 10-30.5L10-30.5Q7.15-30.5 7.15-27.05L7.15-27.05 7.15-7.9Q7.15-4.5 10-4.5L10-4.5Q12.85-4.5 12.85-7.9L12.85-7.9 12.85-14.75 10.1-14.75 10.1-19.75 18.05-19.75 18.05-8.3Q18.05-4.05 15.95-1.78 13.85 0.5 9.85 0.5L9.85 0.5ZM29.55 0.5Q25.5 0.5 23.35-1.8 21.2-4.1 21.2-8.3L21.2-8.3 21.2-26.7Q21.2-30.9 23.35-33.2 25.5-35.5 29.55-35.5L29.55-35.5Q33.6-35.5 35.75-33.2 37.9-30.9 37.9-26.7L37.9-26.7 37.9-8.3Q37.9-4.1 35.75-1.8 33.6 0.5 29.55 0.5L29.55 0.5ZM29.55-4.5Q32.4-4.5 32.4-7.95L32.4-7.95 32.4-27.05Q32.4-30.5 29.55-30.5L29.55-30.5Q26.7-30.5 26.7-27.05L26.7-27.05 26.7-7.95Q26.7-4.5 29.55-4.5L29.55-4.5ZM41.59 0L41.59-35 47.09-35 47.09-5 56.15-5 56.15 0 41.59 0ZM58.79 0L58.79-35 67.19-35Q71.29-35 73.34-32.8 75.39-30.6 75.39-26.35L75.39-26.35 75.39-8.65Q75.39-4.4 73.34-2.2 71.29 0 67.19 0L67.19 0 58.79 0ZM64.29-5L67.09-5Q68.44-5 69.17-5.8 69.89-6.6 69.89-8.4L69.89-8.4 69.89-26.6Q69.89-28.4 69.17-29.2 68.44-30 67.09-30L67.09-30 64.29-30 64.29-5ZM79.09 0L79.09-35 94.09-35 94.09-30 84.59-30 84.59-20.75 92.14-20.75 92.14-15.75 84.59-15.75 84.59-5 94.09-5 94.09 0 79.09 0ZM97.24 0L97.24-35 104.14-35 109.49-14.05 109.59-14.05 109.59-35 114.49-35 114.49 0 108.84 0 102.24-25.55 102.14-25.55 102.14 0 97.24 0ZM133.73 0.5Q129.73 0.5 127.68-1.78 125.63-4.05 125.63-8.3L125.63-8.3 125.63-10.3 130.83-10.3 130.83-7.9Q130.83-4.5 133.68-4.5L133.68-4.5Q135.08-4.5 135.81-5.33 136.53-6.15 136.53-8L136.53-8Q136.53-10.2 135.53-11.88 134.53-13.55 131.83-15.9L131.83-15.9Q128.43-18.9 127.08-21.33 125.73-23.75 125.73-26.8L125.73-26.8Q125.73-30.95 127.83-33.23 129.93-35.5 133.93-35.5L133.93-35.5Q137.88-35.5 139.91-33.23 141.93-30.95 141.93-26.7L141.93-26.7 141.93-25.25 136.73-25.25 136.73-27.05Q136.73-28.85 136.03-29.68 135.33-30.5 133.98-30.5L133.98-30.5Q131.23-30.5 131.23-27.15L131.23-27.15Q131.23-25.25 132.26-23.6 133.28-21.95 135.98-19.6L135.98-19.6Q139.43-16.6 140.73-14.15 142.03-11.7 142.03-8.4L142.03-8.4Q142.03-4.1 139.91-1.8 137.78 0.5 133.73 0.5L133.73 0.5ZM149.48 0L149.48-30 143.73-30 143.73-35 160.73-35 160.73-30 154.98-30 154.98 0 149.48 0ZM159.63 0L165.33-35 172.78-35 178.48 0 172.98 0 171.98-6.95 171.98-6.85 165.73-6.85 164.73 0 159.63 0ZM166.38-11.6L171.33-11.6 168.88-28.9 168.78-28.9 166.38-11.6ZM181.13 0L181.13-35 189.28-35Q193.53-35 195.48-33.02 197.43-31.05 197.43-26.95L197.43-26.95 197.43-24.8Q197.43-19.35 193.83-17.9L193.83-17.9 193.83-17.8Q195.83-17.2 196.65-15.35 197.48-13.5 197.48-10.4L197.48-10.4 197.48-4.25Q197.48-2.75 197.58-1.83 197.68-0.9 198.08 0L198.08 0 192.48 0Q192.18-0.85 192.08-1.6 191.98-2.35 191.98-4.3L191.98-4.3 191.98-10.7Q191.98-13.1 191.2-14.05 190.43-15 188.53-15L188.53-15 186.63-15 186.63 0 181.13 0ZM186.63-20L188.63-20Q190.28-20 191.1-20.85 191.93-21.7 191.93-23.7L191.93-23.7 191.93-26.4Q191.93-28.3 191.25-29.15 190.58-30 189.13-30L189.13-30 186.63-30 186.63-20ZM216.42 0.5Q212.42 0.5 210.37-1.78 208.32-4.05 208.32-8.3L208.32-8.3 208.32-10.3 213.52-10.3 213.52-7.9Q213.52-4.5 216.37-4.5L216.37-4.5Q217.77-4.5 218.5-5.33 219.22-6.15 219.22-8L219.22-8Q219.22-10.2 218.22-11.88 217.22-13.55 214.52-15.9L214.52-15.9Q211.12-18.9 209.77-21.33 208.42-23.75 208.42-26.8L208.42-26.8Q208.42-30.95 210.52-33.23 212.62-35.5 216.62-35.5L216.62-35.5Q220.57-35.5 222.6-33.23 224.62-30.95 224.62-26.7L224.62-26.7 224.62-25.25 219.42-25.25 219.42-27.05Q219.42-28.85 218.72-29.68 218.02-30.5 216.67-30.5L216.67-30.5Q213.92-30.5 213.92-27.15L213.92-27.15Q213.92-25.25 214.95-23.6 215.97-21.95 218.67-19.6L218.67-19.6Q222.12-16.6 223.42-14.15 224.72-11.7 224.72-8.4L224.72-8.4Q224.72-4.1 222.6-1.8 220.47 0.5 216.42 0.5L216.42 0.5ZM227.87 0L227.87-35 235.97-35Q240.07-35 242.12-32.8 244.17-30.6 244.17-26.35L244.17-26.35 244.17-22.9Q244.17-18.65 242.12-16.45 240.07-14.25 235.97-14.25L235.97-14.25 233.37-14.25 233.37 0 227.87 0ZM233.37-19.25L235.97-19.25Q237.32-19.25 237.99-20 238.67-20.75 238.67-22.55L238.67-22.55 238.67-26.7Q238.67-28.5 237.99-29.25 237.32-30 235.97-30L235.97-30 233.37-30 233.37-19.25ZM255.12 0.5Q251.07 0.5 248.92-1.8 246.77-4.1 246.77-8.3L246.77-8.3 246.77-26.7Q246.77-30.9 248.92-33.2 251.07-35.5 255.12-35.5L255.12-35.5Q259.17-35.5 261.32-33.2 263.47-30.9 263.47-26.7L263.47-26.7 263.47-8.3Q263.47-4.1 261.32-1.8 259.17 0.5 255.12 0.5L255.12 0.5ZM255.12-4.5Q257.97-4.5 257.97-7.95L257.97-7.95 257.97-27.05Q257.97-30.5 255.12-30.5L255.12-30.5Q252.27-30.5 252.27-27.05L252.27-27.05 252.27-7.95Q252.27-4.5 255.12-4.5L255.12-4.5ZM267.16 0L267.16-35 275.31-35Q279.56-35 281.51-33.02 283.46-31.05 283.46-26.95L283.46-26.95 283.46-24.8Q283.46-19.35 279.86-17.9L279.86-17.9 279.86-17.8Q281.86-17.2 282.69-15.35 283.51-13.5 283.51-10.4L283.51-10.4 283.51-4.25Q283.51-2.75 283.61-1.83 283.71-0.9 284.11 0L284.11 0 278.51 0Q278.21-0.85 278.11-1.6 278.01-2.35 278.01-4.3L278.01-4.3 278.01-10.7Q278.01-13.1 277.24-14.05 276.46-15 274.56-15L274.56-15 272.66-15 272.66 0 267.16 0ZM272.66-20L274.66-20Q276.31-20 277.14-20.85 277.96-21.7 277.96-23.7L277.96-23.7 277.96-26.4Q277.96-28.3 277.29-29.15 276.61-30 275.16-30L275.16-30 272.66-30 272.66-20ZM291.51 0L291.51-30 285.76-30 285.76-35 302.76-35 302.76-30 297.01-30 297.01 0 291.51 0ZM312.56 0.5Q308.56 0.5 306.51-1.78 304.46-4.05 304.46-8.3L304.46-8.3 304.46-10.3 309.66-10.3 309.66-7.9Q309.66-4.5 312.51-4.5L312.51-4.5Q313.91-4.5 314.63-5.33 315.36-6.15 315.36-8L315.36-8Q315.36-10.2 314.36-11.88 313.36-13.55 310.66-15.9L310.66-15.9Q307.26-18.9 305.91-21.33 304.56-23.75 304.56-26.8L304.56-26.8Q304.56-30.95 306.66-33.23 308.76-35.5 312.76-35.5L312.76-35.5Q316.71-35.5 318.73-33.23 320.76-30.95 320.76-26.7L320.76-26.7 320.76-25.25 315.56-25.25 315.56-27.05Q315.56-28.85 314.86-29.68 314.16-30.5 312.81-30.5L312.81-30.5Q310.06-30.5 310.06-27.15L310.06-27.15Q310.06-25.25 311.08-23.6 312.11-21.95 314.81-19.6L314.81-19.6Q318.26-16.6 319.56-14.15 320.86-11.7 320.86-8.4L320.86-8.4Q320.86-4.1 318.73-1.8 316.61 0.5 312.56 0.5L312.56 0.5ZM332 0L332-35 339.85-35 343.35-9.95 343.45-9.95 346.95-35 354.8-35 354.8 0 349.6 0 349.6-26.5 349.5-26.5 345.5 0 340.9 0 336.9-26.5 336.8-26.5 336.8 0 332 0ZM357.45 0L363.15-35 370.6-35 376.3 0 370.8 0 369.8-6.95 369.8-6.85 363.55-6.85 362.55 0 357.45 0ZM364.2-11.6L369.15-11.6 366.7-28.9 366.6-28.9 364.2-11.6ZM378.95 0L378.95-35 385.85-35 391.2-14.05 391.3-14.05 391.3-35 396.2-35 396.2 0 390.55 0 383.95-25.55 383.85-25.55 383.85 0 378.95 0ZM398.85 0L404.55-35 412-35 417.69 0 412.19 0 411.19-6.95 411.19-6.85 404.94-6.85 403.94 0 398.85 0ZM405.6-11.6L410.55-11.6 408.1-28.9 408-28.9 405.6-11.6ZM428.04 0.5Q424.04 0.5 421.94-1.78 419.84-4.05 419.84-8.3L419.84-8.3 419.84-26.7Q419.84-30.95 421.94-33.23 424.04-35.5 428.04-35.5L428.04-35.5Q432.04-35.5 434.14-33.23 436.24-30.95 436.24-26.7L436.24-26.7 436.24-23.7 431.04-23.7 431.04-27.05Q431.04-30.5 428.19-30.5L428.19-30.5Q425.34-30.5 425.34-27.05L425.34-27.05 425.34-7.9Q425.34-4.5 428.19-4.5L428.19-4.5Q431.04-4.5 431.04-7.9L431.04-7.9 431.04-14.75 428.29-14.75 428.29-19.75 436.24-19.75 436.24-8.3Q436.24-4.05 434.14-1.78 432.04 0.5 428.04 0.5L428.04 0.5ZM439.79 0L439.79-35 454.79-35 454.79-30 445.29-30 445.29-20.75 452.84-20.75 452.84-15.75 445.29-15.75 445.29-5 454.79-5 454.79 0 439.79 0ZM457.94 0L457.94-35 465.79-35 469.29-9.95 469.39-9.95 472.89-35 480.74-35 480.74 0 475.54 0 475.54-26.5 475.44-26.5 471.44 0 466.84 0 462.84-26.5 462.74-26.5 462.74 0 457.94 0ZM484.83 0L484.83-35 499.83-35 499.83-30 490.33-30 490.33-20.75 497.88-20.75 497.88-15.75 490.33-15.75 490.33-5 499.83-5 499.83 0 484.83 0ZM502.98 0L502.98-35 509.88-35 515.23-14.05 515.33-14.05 515.33-35 520.23-35 520.23 0 514.58 0 507.98-25.55 507.88-25.55 507.88 0 502.98 0ZM528.63 0L528.63-30 522.88-30 522.88-35 539.88-35 539.88-30 534.13-30 534.13 0 528.63 0Z" opacity="1" transform="matrix(1,0,0,1,0,0)" fill="#f3fa3a" class="wordmark-text-0" data-fill-palette-color="primary" id="text-0"></path></svg></g></svg></g></svg></g></svg></g></svg></g></svg></g></svg></g></svg></g><defs></defs></svg><rect width="395.52" height="247.2" fill="none" stroke="none" visibility="hidden"></rect></g></svg></g></svg>