<svg xmlns="http://www.w3.org/2000/svg" version="1.1" xmlns:xlink="http://www.w3.org/1999/xlink" xmlns:svgjs="http://svgjs.dev/svgjs" width="1000" height="1000" viewBox="0 0 1000 1000"><rect width="1000" height="1000" fill="#1f2d5a"></rect><g transform="matrix(0.7,0,0,0.7,149.57575757575756,282.1265587044535)"><svg viewBox="0 0 396 247" data-background-color="#1f2d5a" preserveAspectRatio="xMidYMid meet" height="623" width="1000" xmlns="http://www.w3.org/2000/svg" xmlns:xlink="http://www.w3.org/1999/xlink"><g id="tight-bounds" transform="matrix(1,0,0,1,0.2400000000000091,-0.09999999999999432)"><svg viewBox="0 0 395.52 247.2" height="247.2" width="395.52"><g><svg></svg></g><g><svg viewBox="0 0 395.52 247.2" height="247.2" width="395.52"><mask id="c3172140-0d1a-4e60-9b6b-b7e7a8b4faac"><rect width="640" height="400" fill="white"></rect><g transform="matrix(1,0,0,1,39.55199999999999,106.89032341477326)"><svg viewBox="0 0 316.416 33.41935317045346" height="33.41935317045346" width="316.416"><g><svg viewBox="0 0 316.416 33.41935317045346" height="33.41935317045346" width="316.416"><g><svg viewBox="0 0 316.416 33.41935317045346" height="33.41935317045346" width="316.416"><g><svg viewBox="0 0 316.416 33.41935317045346" height="33.41935317045346" width="316.416"><g id="SvgjsG1051"><svg viewBox="0 0 316.416 33.41935317045346" height="33.41935317045346" width="316.416" id="SvgjsSvg1050"><g><svg viewBox="0 0 316.416 33.41935317045346" height="33.41935317045346" width="316.416"><g transform="matrix(1,0,0,1,0,0)"><svg width="316.416" viewBox="-2.200000047683716 -43.150001525878906 526.9000244140625 56.55000305175781" height="33.41935317045346" data-palette-color="#fbfbfb"><path d="M27.95-35.4L27.95-35.4Q27.75-33.35 27.68-31.43 27.6-29.5 27.6-28.5L27.6-28.5Q27.6-27.55 27.65-26.68 27.7-25.8 27.75-25.2L27.75-25.2 26.6-25.2Q26.2-28.65 25.3-30.63 24.4-32.6 22.88-33.43 21.35-34.25 18.9-34.25L18.9-34.25 16.15-34.25Q14.65-34.25 13.85-34 13.05-33.75 12.78-32.95 12.5-32.15 12.5-30.5L12.5-30.5 12.5-4.9Q12.5-3.3 12.78-2.48 13.05-1.65 13.85-1.4 14.65-1.15 16.15-1.15L16.15-1.15 19-1.15Q21.55-1.15 23.28-2.1 25-3.05 26.05-5.23 27.1-7.4 27.6-11.2L27.6-11.2 28.75-11.2Q28.6-9.65 28.6-7.2L28.6-7.2Q28.6-6.15 28.68-4.15 28.75-2.15 28.95 0L28.95 0Q26.4-0.1 23.2-0.13 20-0.15 17.5-0.15L17.5-0.15Q15.9-0.15 13.2-0.15 10.5-0.15 7.48-0.13 4.45-0.1 1.8 0L1.8 0 1.8-1Q3.45-1.1 4.28-1.4 5.1-1.7 5.38-2.6 5.65-3.5 5.65-5.3L5.65-5.3 5.65-30.1Q5.65-31.95 5.38-32.83 5.1-33.7 4.28-34.02 3.45-34.35 1.8-34.4L1.8-34.4 1.8-35.4Q4.45-35.35 7.48-35.3 10.5-35.25 13.2-35.25 15.9-35.25 17.5-35.25L17.5-35.25Q19.8-35.25 22.73-35.27 25.65-35.3 27.95-35.4ZM11-18.3L19.9-18.3Q19.9-18.3 19.9-17.8 19.9-17.3 19.9-17.3L19.9-17.3 11-17.3Q11-17.3 11-17.8 11-18.3 11-18.3L11-18.3ZM20.2-24.9L21.35-24.9Q21.15-22.05 21.18-20.55 21.2-19.05 21.2-17.8L21.2-17.8Q21.2-16.55 21.25-15.05 21.3-13.55 21.5-10.7L21.5-10.7 20.35-10.7Q20.1-12.4 19.58-13.93 19.05-15.45 17.93-16.38 16.8-17.3 14.7-17.3L14.7-17.3 14.7-18.3Q16.8-18.3 17.88-19.4 18.95-20.5 19.45-22.05 19.95-23.6 20.2-24.9L20.2-24.9ZM41.95-39.15L41.95-39.15 41.95-4.65Q41.95-2.55 42.72-1.8 43.5-1.05 45.35-1.05L45.35-1.05 45.35 0Q44.45-0.05 42.62-0.13 40.8-0.2 38.9-0.2L38.9-0.2Q37.05-0.2 35.12-0.13 33.2-0.05 32.25 0L32.25 0 32.25-1.05Q34.1-1.05 34.87-1.8 35.65-2.55 35.65-4.65L35.65-4.65 35.65-33.15Q35.65-35.4 34.95-36.48 34.25-37.55 32.25-37.55L32.25-37.55 32.25-38.6Q33.85-38.45 35.35-38.45L35.35-38.45Q37.25-38.45 38.9-38.63 40.55-38.8 41.95-39.15ZM53.9-38.6L53.9-38.6Q55.7-38.6 56.85-37.6 58-36.6 58-34.95L58-34.95Q58-33.3 56.85-32.3 55.7-31.3 53.9-31.3L53.9-31.3Q52.1-31.3 50.95-32.3 49.8-33.3 49.8-34.95L49.8-34.95Q49.8-36.6 50.95-37.6 52.1-38.6 53.9-38.6ZM57.4-26.4L57.4-26.4 57.4-4.65Q57.4-2.55 58.17-1.8 58.95-1.05 60.8-1.05L60.8-1.05 60.8 0Q59.9-0.05 58.05-0.13 56.2-0.2 54.3-0.2L54.3-0.2Q52.45-0.2 50.55-0.13 48.65-0.05 47.7 0L47.7 0 47.7-1.05Q49.55-1.05 50.32-1.8 51.1-2.55 51.1-4.65L51.1-4.65 51.1-20.35Q51.1-22.65 50.37-23.73 49.65-24.8 47.7-24.8L47.7-24.8 47.7-25.85Q49.3-25.7 50.8-25.7L50.8-25.7Q52.65-25.7 54.32-25.88 56-26.05 57.4-26.4ZM72.54-34.05L72.54-34.05 72.54-25.8 78.94-25.8 78.94-24.8 72.54-24.8 72.54-4.9Q72.54-3.1 73.19-2.35 73.84-1.6 75.04-1.6L75.04-1.6Q76.19-1.6 77.14-2.48 78.09-3.35 78.84-5.4L78.84-5.4 79.74-5Q78.99-2.55 77.42-0.93 75.84 0.7 72.99 0.7L72.99 0.7Q71.29 0.7 70.12 0.28 68.94-0.15 68.09-0.95L68.09-0.95Q66.99-2.1 66.62-3.7 66.24-5.3 66.24-7.95L66.24-7.95 66.24-24.8 61.84-24.8 61.84-25.8 66.24-25.8 66.24-32.75Q68.04-32.8 69.59-33.1 71.14-33.4 72.54-34.05ZM93.19-26.55L93.19-26.55Q97.59-26.55 100.09-23.9 102.59-21.25 102.59-15.45L102.59-15.45 85.74-15.45 85.69-16.4 96.79-16.4Q96.89-18.85 96.49-20.93 96.09-23 95.22-24.25 94.34-25.5 92.94-25.5L92.94-25.5Q91.04-25.5 89.64-23.28 88.24-21.05 87.89-16L87.89-16 88.09-15.7Q87.99-15.05 87.97-14.3 87.94-13.55 87.94-12.8L87.94-12.8Q87.94-9.35 88.94-7.1 89.94-4.85 91.54-3.8 93.14-2.75 94.84-2.75L94.84-2.75Q96.59-2.75 98.42-3.63 100.24-4.5 101.64-7.1L101.64-7.1 102.59-6.7Q102.04-4.95 100.77-3.23 99.49-1.5 97.49-0.4 95.49 0.7 92.79 0.7L92.79 0.7Q89.39 0.7 86.79-0.8 84.19-2.3 82.74-5.28 81.29-8.25 81.29-12.55L81.29-12.55Q81.29-17.1 82.82-20.2 84.34-23.3 87.04-24.93 89.74-26.55 93.19-26.55ZM136.24-36.1L136.24-36.1Q139.59-36.1 141.69-35.13 143.79-34.15 145.54-32.85L145.54-32.85Q146.14-32.35 146.54-32.35L146.54-32.35Q147.49-32.35 147.79-35.4L147.79-35.4 148.94-35.4Q148.84-33.5 148.79-30.75 148.74-28 148.74-23.5L148.74-23.5 147.59-23.5Q147.24-26.2 146.59-28.35 145.94-30.5 144.24-32L144.24-32Q142.94-33.4 140.96-34.18 138.99-34.95 136.99-34.95L136.99-34.95Q134.34-34.95 132.36-33.58 130.39-32.2 129.06-29.83 127.74-27.45 127.09-24.33 126.44-21.2 126.44-17.65L126.44-17.65Q126.44-8.65 129.06-4.48 131.69-0.3 136.79-0.3L136.79-0.3Q138.19-0.3 139.21-0.68 140.24-1.05 140.89-1.45L140.89-1.45Q141.69-2 141.94-2.6 142.19-3.2 142.19-4.1L142.19-4.1 142.19-9Q142.19-11.2 141.79-12.28 141.39-13.35 140.31-13.75 139.24-14.15 137.14-14.2L137.14-14.2 137.14-15.2Q138.14-15.15 139.51-15.13 140.89-15.1 142.41-15.08 143.94-15.05 145.19-15.05L145.19-15.05Q147.14-15.05 148.74-15.1 150.34-15.15 151.39-15.2L151.39-15.2 151.39-14.2Q149.89-14.1 149.46-13.4 149.04-12.7 149.04-9.9L149.04-9.9 149.04 0 148.04 0Q147.99-0.85 147.64-1.85 147.29-2.85 146.59-2.85L146.59-2.85Q146.24-2.85 145.79-2.68 145.34-2.5 144.24-1.9L144.24-1.9Q142.49-0.75 140.51-0.03 138.54 0.7 136.19 0.7L136.19 0.7Q127.79 0.7 123.31-4.05 118.84-8.8 118.84-17.2L118.84-17.2Q118.84-22.95 121.09-27.2 123.34-31.45 127.26-33.77 131.19-36.1 136.24-36.1ZM160.43 0.35L160.43 0.35Q157.13 0.35 155.63-1.35 154.13-3.05 154.13-5.65L154.13-5.65Q154.13-7.75 155.13-9.13 156.13-10.5 157.71-11.35 159.28-12.2 161.03-12.83 162.78-13.45 164.33-14.03 165.88-14.6 166.88-15.33 167.88-16.05 167.88-17.2L167.88-17.2 167.88-20.85Q167.88-22.45 167.41-23.48 166.93-24.5 166.01-25.03 165.08-25.55 163.68-25.55L163.68-25.55Q162.63-25.55 161.48-25.25 160.33-24.95 159.58-24.1L159.58-24.1Q160.88-23.75 161.61-22.8 162.33-21.85 162.33-20.5L162.33-20.5Q162.33-18.95 161.31-18.07 160.28-17.2 158.73-17.2L158.73-17.2Q157.08-17.2 156.23-18.25 155.38-19.3 155.38-20.7L155.38-20.7Q155.38-22.1 156.08-23.03 156.78-23.95 158.03-24.7L158.03-24.7Q159.28-25.55 161.23-26.05 163.18-26.55 165.48-26.55L165.48-26.55Q167.68-26.55 169.38-26.08 171.08-25.6 172.28-24.4L172.28-24.4Q173.48-23.25 173.83-21.55 174.18-19.85 174.18-17.4L174.18-17.4 174.18-3.7Q174.18-2.45 174.46-1.93 174.73-1.4 175.43-1.4L175.43-1.4Q176.03-1.4 176.48-1.7 176.93-2 177.38-2.35L177.38-2.35 177.93-1.5Q176.83-0.65 175.63-0.15 174.43 0.35 172.73 0.35L172.73 0.35Q169.88 0.35 168.93-0.93 167.98-2.2 167.93-3.85L167.93-3.85Q166.58-1.6 164.68-0.63 162.78 0.35 160.43 0.35ZM163.78-2.45L163.78-2.45Q164.88-2.45 165.93-3.05 166.98-3.65 167.88-5.05L167.88-5.05 167.88-15.15Q167.23-14.15 165.98-13.5 164.73-12.85 163.46-12.08 162.18-11.3 161.26-10.05 160.33-8.8 160.33-6.6L160.33-6.6Q160.33-4.45 161.31-3.45 162.28-2.45 163.78-2.45ZM196.98-26.55L196.98-26.55Q198.93-26.55 200.26-26 201.58-25.45 202.33-24.6L202.33-24.6Q203.23-23.65 203.58-22.08 203.93-20.5 203.93-18.1L203.93-18.1 203.93-4.65Q203.93-2.55 204.66-1.8 205.38-1.05 207.13-1.05L207.13-1.05 207.13 0Q206.23-0.05 204.43-0.13 202.63-0.2 200.93-0.2L200.93-0.2Q199.13-0.2 197.46-0.13 195.78-0.05 194.93 0L194.93 0 194.93-1.05Q196.38-1.05 197.01-1.8 197.63-2.55 197.63-4.65L197.63-4.65 197.63-19.8Q197.63-21.15 197.43-22.23 197.23-23.3 196.58-23.93 195.93-24.55 194.58-24.55L194.58-24.55Q193.03-24.55 191.78-23.65 190.53-22.75 189.81-21.18 189.08-19.6 189.08-17.65L189.08-17.65 189.08-4.65Q189.08-2.55 189.68-1.8 190.28-1.05 191.78-1.05L191.78-1.05 191.78 0Q190.93-0.05 189.31-0.13 187.68-0.2 185.98-0.2L185.98-0.2Q184.13-0.2 182.23-0.13 180.33-0.05 179.38 0L179.38 0 179.38-1.05Q181.23-1.05 182.01-1.8 182.78-2.55 182.78-4.65L182.78-4.65 182.78-20.4Q182.78-22.65 182.06-23.73 181.33-24.8 179.38-24.8L179.38-24.8 179.38-25.85Q180.98-25.7 182.48-25.7L182.48-25.7Q184.33-25.7 186.01-25.88 187.68-26.05 189.08-26.4L189.08-26.4 189.08-21.4Q190.33-24.15 192.43-25.35 194.53-26.55 196.98-26.55ZM212.03-26.55L212.03-26.55Q213.98-26.55 215.31-26 216.63-25.45 217.38-24.6L217.38-24.6Q218.28-23.65 218.63-22.08 218.98-20.5 218.98-18.1L218.98-18.1 218.98-4.65Q218.98-2.55 219.76-1.8 220.53-1.05 222.38-1.05L222.38-1.05 222.38 0Q221.48-0.05 219.61-0.13 217.73-0.2 215.98-0.2L215.98-0.2Q214.18-0.2 212.51-0.13 210.83-0.05 209.98 0L209.98 0 209.98-1.05Q211.43-1.05 212.06-1.8 212.68-2.55 212.68-4.65L212.68-4.65 212.68-19.8Q212.68-21.15 212.46-22.23 212.23-23.3 211.53-23.93 210.83-24.55 209.43-24.55L209.43-24.55Q207.13-24.55 205.53-22.5 203.93-20.45 203.88-17.55L203.88-17.55 203.63-21.15Q204.98-24.25 207.23-25.4 209.48-26.55 212.03-26.55ZM230.53-38.6L230.53-38.6Q232.33-38.6 233.48-37.6 234.63-36.6 234.63-34.95L234.63-34.95Q234.63-33.3 233.48-32.3 232.33-31.3 230.53-31.3L230.53-31.3Q228.73-31.3 227.58-32.3 226.43-33.3 226.43-34.95L226.43-34.95Q226.43-36.6 227.58-37.6 228.73-38.6 230.53-38.6ZM234.03-26.4L234.03-26.4 234.03-4.65Q234.03-2.55 234.8-1.8 235.58-1.05 237.43-1.05L237.43-1.05 237.43 0Q236.53-0.05 234.68-0.13 232.83-0.2 230.93-0.2L230.93-0.2Q229.08-0.2 227.18-0.13 225.28-0.05 224.33 0L224.33 0 224.33-1.05Q226.18-1.05 226.95-1.8 227.73-2.55 227.73-4.65L227.73-4.65 227.73-20.35Q227.73-22.65 227-23.73 226.28-24.8 224.33-24.8L224.33-24.8 224.33-25.85Q225.93-25.7 227.43-25.7L227.43-25.7Q229.28-25.7 230.95-25.88 232.63-26.05 234.03-26.4ZM257.68-26.55L257.68-26.55Q259.78-26.55 261.05-26 262.33-25.45 263.13-24.6L263.13-24.6Q264.03-23.65 264.4-22.15 264.78-20.65 264.78-18.1L264.78-18.1 264.78-4.65Q264.78-2.55 265.55-1.8 266.33-1.05 268.18-1.05L268.18-1.05 268.18 0Q267.28-0.05 265.4-0.13 263.53-0.2 261.78-0.2L261.78-0.2Q259.93-0.2 258.18-0.13 256.43-0.05 255.58 0L255.58 0 255.58-1.05Q257.18-1.05 257.83-1.8 258.48-2.55 258.48-4.65L258.48-4.65 258.48-19.8Q258.48-21.15 258.23-22.23 257.98-23.3 257.23-23.93 256.48-24.55 255.08-24.55L255.08-24.55Q252.63-24.55 251.03-22.58 249.43-20.6 249.43-17.65L249.43-17.65 249.43-4.65Q249.43-2.55 250.08-1.8 250.73-1.05 252.33-1.05L252.33-1.05 252.33 0Q251.48-0.05 249.78-0.13 248.08-0.2 246.33-0.2L246.33-0.2Q244.48-0.2 242.58-0.13 240.68-0.05 239.73 0L239.73 0 239.73-1.05Q241.58-1.05 242.35-1.8 243.13-2.55 243.13-4.65L243.13-4.65 243.13-20.4Q243.13-22.65 242.4-23.73 241.68-24.8 239.73-24.8L239.73-24.8 239.73-25.85Q241.33-25.7 242.83-25.7L242.83-25.7Q244.68-25.7 246.35-25.88 248.03-26.05 249.43-26.4L249.43-26.4 249.43-21.4Q250.68-24.25 252.88-25.4 255.08-26.55 257.68-26.55ZM279.22 9.4L279.22 9.4Q276.27 9.4 273.87 8.85 271.47 8.3 270.07 7.23 268.67 6.15 268.67 4.5L268.67 4.5Q268.67 2.9 270.07 1.65 271.47 0.4 274.17-0.25L274.17-0.25 274.52 0.55Q273.57 1.1 273.07 2.05 272.57 3 272.57 4.05L272.57 4.05Q272.57 6.2 274.55 7.38 276.52 8.55 279.82 8.55L279.82 8.55Q282.07 8.55 283.97 7.95 285.87 7.35 287.02 6.1 288.17 4.85 288.17 3L288.17 3Q288.17 1.45 287.05 0.4 285.92-0.65 282.57-0.65L282.57-0.65 279.27-0.65Q277.42-0.65 275.9-1.05 274.37-1.45 273.47-2.35 272.57-3.25 272.57-4.85L272.57-4.85Q272.57-6.8 274.17-8.38 275.77-9.95 279.17-11.45L279.17-11.45 279.72-11Q278.47-10.35 277.5-9.6 276.52-8.85 276.52-7.7L276.52-7.7Q276.52-6.1 278.72-6.1L278.72-6.1 284.37-6.1Q288.17-6.1 290.8-4.63 293.42-3.15 293.42 0.3L293.42 0.3Q293.42 2.7 291.87 4.78 290.32 6.85 287.2 8.13 284.07 9.4 279.22 9.4ZM279.67-10.65L279.67-10.65Q275.57-10.65 272.85-12.58 270.12-14.5 270.12-18.6L270.12-18.6Q270.12-22.75 272.85-24.65 275.57-26.55 279.67-26.55L279.67-26.55Q283.72-26.55 286.47-24.65 289.22-22.75 289.22-18.6L289.22-18.6Q289.22-14.5 286.47-12.58 283.72-10.65 279.67-10.65ZM279.67-11.55L279.67-11.55Q281.17-11.55 282.05-13.08 282.92-14.6 282.92-18.6L282.92-18.6Q282.92-22.6 282.05-24.13 281.17-25.65 279.67-25.65L279.67-25.65Q278.17-25.65 277.3-24.13 276.42-22.6 276.42-18.6L276.42-18.6Q276.42-14.6 277.3-13.08 278.17-11.55 279.67-11.55ZM287.22-22.3L287.22-22.3 286.27-22.65Q287.02-24.5 288.72-25.78 290.42-27.05 292.32-27.05L292.32-27.05Q293.77-27.05 294.6-26.25 295.42-25.45 295.42-24L295.42-24Q295.42-22.5 294.62-21.8 293.82-21.1 292.87-21.1L292.87-21.1Q292.02-21.1 291.32-21.68 290.62-22.25 290.52-23.48 290.42-24.7 291.32-26.55L291.32-26.55 291.82-26.35Q289.87-25.6 288.92-24.7 287.97-23.8 287.22-22.3ZM321.32-36L321.32-36Q324.12-36 325.62-35.4 327.12-34.8 328.22-34.1L328.22-34.1Q328.82-33.75 329.19-33.58 329.57-33.4 329.92-33.4L329.92-33.4Q330.72-33.4 331.02-35.6L331.02-35.6 332.17-35.6Q332.12-34.65 332.04-33.4 331.97-32.15 331.94-30.08 331.92-28 331.92-24.6L331.92-24.6 330.77-24.6Q330.62-27.15 329.64-29.5 328.67-31.85 326.89-33.38 325.12-34.9 322.37-34.9L322.37-34.9Q319.92-34.9 318.29-33.45 316.67-32 316.67-29.55L316.67-29.55Q316.67-27.45 317.72-26.03 318.77-24.6 320.69-23.28 322.62-21.95 325.27-20.25L325.27-20.25Q327.72-18.65 329.67-17.07 331.62-15.5 332.74-13.6 333.87-11.7 333.87-8.95L333.87-8.95Q333.87-5.7 332.27-3.55 330.67-1.4 327.97-0.35 325.27 0.7 322.07 0.7L322.07 0.7Q319.12 0.7 317.39 0.1 315.67-0.5 314.42-1.15L314.42-1.15Q313.32-1.85 312.72-1.85L312.72-1.85Q311.92-1.85 311.62 0.35L311.62 0.35 310.47 0.35Q310.57-0.8 310.59-2.35 310.62-3.9 310.64-6.38 310.67-8.85 310.67-12.65L310.67-12.65 311.82-12.65Q312.02-9.45 312.94-6.68 313.87-3.9 315.79-2.2 317.72-0.5 320.92-0.5L320.92-0.5Q323.52-0.5 325.37-1.98 327.22-3.45 327.22-6.45L327.22-6.45Q327.22-9.5 325.12-11.55 323.02-13.6 319.62-15.7L319.62-15.7Q317.27-17.2 315.22-18.75 313.17-20.3 311.94-22.28 310.72-24.25 310.72-27.05L310.72-27.05Q310.72-30.15 312.22-32.13 313.72-34.1 316.14-35.05 318.57-36 321.32-36ZM350.07-26.55L350.07-26.55Q353.52-26.55 356.19-25.18 358.87-23.8 360.44-20.8 362.02-17.8 362.02-12.9L362.02-12.9Q362.02-8 360.44-5 358.87-2 356.19-0.65 353.52 0.7 350.07 0.7L350.07 0.7Q346.62 0.7 343.92-0.65 341.22-2 339.67-5 338.12-8 338.12-12.9L338.12-12.9Q338.12-17.8 339.67-20.8 341.22-23.8 343.92-25.18 346.62-26.55 350.07-26.55ZM350.07-25.55L350.07-25.55Q347.72-25.55 346.24-22.58 344.77-19.6 344.77-12.9L344.77-12.9Q344.77-6.2 346.24-3.25 347.72-0.3 350.07-0.3L350.07-0.3Q352.37-0.3 353.87-3.25 355.37-6.2 355.37-12.9L355.37-12.9Q355.37-19.6 353.87-22.58 352.37-25.55 350.07-25.55ZM374.21-39.15L374.21-39.15 374.21-4.65Q374.21-2.55 374.99-1.8 375.76-1.05 377.61-1.05L377.61-1.05 377.61 0Q376.71-0.05 374.89-0.13 373.06-0.2 371.16-0.2L371.16-0.2Q369.31-0.2 367.39-0.13 365.46-0.05 364.51 0L364.51 0 364.51-1.05Q366.36-1.05 367.14-1.8 367.91-2.55 367.91-4.65L367.91-4.65 367.91-33.15Q367.91-35.4 367.21-36.48 366.51-37.55 364.51-37.55L364.51-37.55 364.51-38.6Q366.11-38.45 367.61-38.45L367.61-38.45Q369.51-38.45 371.16-38.63 372.81-38.8 374.21-39.15ZM404.11-26.4L404.11-26.4 404.11-5.4Q404.11-3.15 404.86-2.08 405.61-1 407.51-1L407.51-1 407.51 0.05Q405.96-0.1 404.41-0.1L404.41-0.1Q402.56-0.1 400.89 0.05 399.21 0.2 397.81 0.6L397.81 0.6 397.81-4.4Q396.56-1.65 394.39-0.48 392.21 0.7 389.71 0.7L389.71 0.7Q387.76 0.7 386.44 0.18 385.11-0.35 384.31-1.25L384.31-1.25Q383.46-2.2 383.11-3.75 382.76-5.3 382.76-7.75L382.76-7.75 382.76-20.4Q382.76-22.65 382.04-23.73 381.31-24.8 379.36-24.8L379.36-24.8 379.36-25.85Q380.96-25.7 382.46-25.7L382.46-25.7Q384.31-25.7 385.99-25.88 387.66-26.05 389.06-26.4L389.06-26.4 389.06-6Q389.06-4.65 389.29-3.6 389.51-2.55 390.21-1.93 390.91-1.3 392.31-1.3L392.31-1.3Q394.66-1.3 396.24-3.28 397.81-5.25 397.81-8.15L397.81-8.15 397.81-20.4Q397.81-22.65 397.09-23.73 396.36-24.8 394.41-24.8L394.41-24.8 394.41-25.85Q396.01-25.7 397.51-25.7L397.51-25.7Q399.36-25.7 401.04-25.88 402.71-26.05 404.11-26.4ZM419.26-34.05L419.26-34.05 419.26-25.8 425.66-25.8 425.66-24.8 419.26-24.8 419.26-4.9Q419.26-3.1 419.91-2.35 420.56-1.6 421.76-1.6L421.76-1.6Q422.91-1.6 423.86-2.48 424.81-3.35 425.56-5.4L425.56-5.4 426.46-5Q425.71-2.55 424.13-0.93 422.56 0.7 419.71 0.7L419.71 0.7Q418.01 0.7 416.83 0.28 415.66-0.15 414.81-0.95L414.81-0.95Q413.71-2.1 413.33-3.7 412.96-5.3 412.96-7.95L412.96-7.95 412.96-24.8 408.56-24.8 408.56-25.8 412.96-25.8 412.96-32.75Q414.76-32.8 416.31-33.1 417.86-33.4 419.26-34.05ZM433.61-38.6L433.61-38.6Q435.41-38.6 436.56-37.6 437.71-36.6 437.71-34.95L437.71-34.95Q437.71-33.3 436.56-32.3 435.41-31.3 433.61-31.3L433.61-31.3Q431.81-31.3 430.66-32.3 429.51-33.3 429.51-34.95L429.51-34.95Q429.51-36.6 430.66-37.6 431.81-38.6 433.61-38.6ZM437.11-26.4L437.11-26.4 437.11-4.65Q437.11-2.55 437.88-1.8 438.66-1.05 440.51-1.05L440.51-1.05 440.51 0Q439.61-0.05 437.76-0.13 435.91-0.2 434.01-0.2L434.01-0.2Q432.16-0.2 430.26-0.13 428.36-0.05 427.41 0L427.41 0 427.41-1.05Q429.26-1.05 430.03-1.8 430.81-2.55 430.81-4.65L430.81-4.65 430.81-20.35Q430.81-22.65 430.08-23.73 429.36-24.8 427.41-24.8L427.41-24.8 427.41-25.85Q429.01-25.7 430.51-25.7L430.51-25.7Q432.36-25.7 434.03-25.88 435.71-26.05 437.11-26.4ZM455.5-26.55L455.5-26.55Q458.95-26.55 461.63-25.18 464.3-23.8 465.88-20.8 467.45-17.8 467.45-12.9L467.45-12.9Q467.45-8 465.88-5 464.3-2 461.63-0.65 458.95 0.7 455.5 0.7L455.5 0.7Q452.05 0.7 449.35-0.65 446.65-2 445.1-5 443.55-8 443.55-12.9L443.55-12.9Q443.55-17.8 445.1-20.8 446.65-23.8 449.35-25.18 452.05-26.55 455.5-26.55ZM455.5-25.55L455.5-25.55Q453.15-25.55 451.68-22.58 450.2-19.6 450.2-12.9L450.2-12.9Q450.2-6.2 451.68-3.25 453.15-0.3 455.5-0.3L455.5-0.3Q457.8-0.3 459.3-3.25 460.8-6.2 460.8-12.9L460.8-12.9Q460.8-19.6 459.3-22.58 457.8-25.55 455.5-25.55ZM488.7-26.55L488.7-26.55Q490.8-26.55 492.08-26 493.35-25.45 494.15-24.6L494.15-24.6Q495.05-23.65 495.43-22.15 495.8-20.65 495.8-18.1L495.8-18.1 495.8-4.65Q495.8-2.55 496.58-1.8 497.35-1.05 499.2-1.05L499.2-1.05 499.2 0Q498.3-0.05 496.43-0.13 494.55-0.2 492.8-0.2L492.8-0.2Q490.95-0.2 489.2-0.13 487.45-0.05 486.6 0L486.6 0 486.6-1.05Q488.2-1.05 488.85-1.8 489.5-2.55 489.5-4.65L489.5-4.65 489.5-19.8Q489.5-21.15 489.25-22.23 489-23.3 488.25-23.93 487.5-24.55 486.1-24.55L486.1-24.55Q483.65-24.55 482.05-22.58 480.45-20.6 480.45-17.65L480.45-17.65 480.45-4.65Q480.45-2.55 481.1-1.8 481.75-1.05 483.35-1.05L483.35-1.05 483.35 0Q482.5-0.05 480.8-0.13 479.1-0.2 477.35-0.2L477.35-0.2Q475.5-0.2 473.6-0.13 471.7-0.05 470.75 0L470.75 0 470.75-1.05Q472.6-1.05 473.38-1.8 474.15-2.55 474.15-4.65L474.15-4.65 474.15-20.4Q474.15-22.65 473.43-23.73 472.7-24.8 470.75-24.8L470.75-24.8 470.75-25.85Q472.35-25.7 473.85-25.7L473.85-25.7Q475.7-25.7 477.38-25.88 479.05-26.05 480.45-26.4L480.45-26.4 480.45-21.4Q481.7-24.25 483.9-25.4 486.1-26.55 488.7-26.55ZM510.7-26.55L510.7-26.55Q512.8-26.55 514.3-25.95 515.8-25.35 516.5-24.9L516.5-24.9Q518.2-23.65 518.55-26.5L518.55-26.5 519.65-26.5Q519.55-25.05 519.5-23.08 519.45-21.1 519.45-17.8L519.45-17.8 518.35-17.8Q518.1-19.65 517.4-21.4 516.7-23.15 515.35-24.33 514-25.5 511.8-25.5L511.8-25.5Q510.25-25.5 509.22-24.6 508.2-23.7 508.2-22.05L508.2-22.05Q508.2-20.55 509.1-19.43 510-18.3 511.42-17.32 512.85-16.35 514.4-15.2L514.4-15.2Q517.05-13.35 518.87-11.48 520.7-9.6 520.7-6.6L520.7-6.6Q520.7-4.3 519.42-2.68 518.15-1.05 516.07-0.18 514 0.7 511.5 0.7L511.5 0.7Q510.15 0.7 509.05 0.45 507.95 0.2 507.1-0.2L507.1-0.2Q506.45-0.55 505.92-0.85 505.4-1.15 504.85-1.35L504.85-1.35Q504.35-1.6 503.97-1.15 503.6-0.7 503.4 0.35L503.4 0.35 502.3 0.35Q502.4-1.25 502.45-3.55 502.5-5.85 502.5-9.65L502.5-9.65 503.6-9.65Q503.95-6.9 504.67-4.83 505.4-2.75 506.8-1.58 508.2-0.4 510.4-0.4L510.4-0.4Q511.75-0.4 513-1.3 514.25-2.2 514.25-4.35L514.25-4.35Q514.25-6.55 512.75-8 511.25-9.45 509-11.1L509-11.1Q507.3-12.35 505.82-13.55 504.35-14.75 503.42-16.25 502.5-17.75 502.5-19.8L502.5-19.8Q502.5-22.05 503.65-23.53 504.8-25 506.67-25.78 508.55-26.55 510.7-26.55Z" opacity="1" transform="matrix(1,0,0,1,0,0)" fill="black" class="wordmark-text-0" id="SvgjsPath1049" stroke-width="7" stroke="black" stroke-linejoin="round"></path></svg></g></svg></g></svg></g></svg></g></svg></g></svg></g></svg></g></mask><g transform="matrix(1,0,0,1,39.55199999999999,106.89032341477326)"><svg viewBox="0 0 316.416 33.41935317045346" height="33.41935317045346" width="316.416"><g><svg viewBox="0 0 316.416 33.41935317045346" height="33.41935317045346" width="316.416"><g><svg viewBox="0 0 316.416 33.41935317045346" height="33.41935317045346" width="316.416"><g><svg viewBox="0 0 316.416 33.41935317045346" height="33.41935317045346" width="316.416"><g id="textblocktransform"><svg viewBox="0 0 316.416 33.41935317045346" height="33.41935317045346" width="316.416" id="textblock"><g><svg viewBox="0 0 316.416 33.41935317045346" height="33.41935317045346" width="316.416"><g transform="matrix(1,0,0,1,0,0)"><svg width="316.416" viewBox="-2.200000047683716 -43.150001525878906 526.9000244140625 56.55000305175781" height="33.41935317045346" data-palette-color="#fbfbfb"><path d="M27.95-35.4L27.95-35.4Q27.75-33.35 27.68-31.43 27.6-29.5 27.6-28.5L27.6-28.5Q27.6-27.55 27.65-26.68 27.7-25.8 27.75-25.2L27.75-25.2 26.6-25.2Q26.2-28.65 25.3-30.63 24.4-32.6 22.88-33.43 21.35-34.25 18.9-34.25L18.9-34.25 16.15-34.25Q14.65-34.25 13.85-34 13.05-33.75 12.78-32.95 12.5-32.15 12.5-30.5L12.5-30.5 12.5-4.9Q12.5-3.3 12.78-2.48 13.05-1.65 13.85-1.4 14.65-1.15 16.15-1.15L16.15-1.15 19-1.15Q21.55-1.15 23.28-2.1 25-3.05 26.05-5.23 27.1-7.4 27.6-11.2L27.6-11.2 28.75-11.2Q28.6-9.65 28.6-7.2L28.6-7.2Q28.6-6.15 28.68-4.15 28.75-2.15 28.95 0L28.95 0Q26.4-0.1 23.2-0.13 20-0.15 17.5-0.15L17.5-0.15Q15.9-0.15 13.2-0.15 10.5-0.15 7.48-0.13 4.45-0.1 1.8 0L1.8 0 1.8-1Q3.45-1.1 4.28-1.4 5.1-1.7 5.38-2.6 5.65-3.5 5.65-5.3L5.65-5.3 5.65-30.1Q5.65-31.95 5.38-32.83 5.1-33.7 4.28-34.02 3.45-34.35 1.8-34.4L1.8-34.4 1.8-35.4Q4.45-35.35 7.48-35.3 10.5-35.25 13.2-35.25 15.9-35.25 17.5-35.25L17.5-35.25Q19.8-35.25 22.73-35.27 25.65-35.3 27.95-35.4ZM11-18.3L19.9-18.3Q19.9-18.3 19.9-17.8 19.9-17.3 19.9-17.3L19.9-17.3 11-17.3Q11-17.3 11-17.8 11-18.3 11-18.3L11-18.3ZM20.2-24.9L21.35-24.9Q21.15-22.05 21.18-20.55 21.2-19.05 21.2-17.8L21.2-17.8Q21.2-16.55 21.25-15.05 21.3-13.55 21.5-10.7L21.5-10.7 20.35-10.7Q20.1-12.4 19.58-13.93 19.05-15.45 17.93-16.38 16.8-17.3 14.7-17.3L14.7-17.3 14.7-18.3Q16.8-18.3 17.88-19.4 18.95-20.5 19.45-22.05 19.95-23.6 20.2-24.9L20.2-24.9ZM41.95-39.15L41.95-39.15 41.95-4.65Q41.95-2.55 42.72-1.8 43.5-1.05 45.35-1.05L45.35-1.05 45.35 0Q44.45-0.05 42.62-0.13 40.8-0.2 38.9-0.2L38.9-0.2Q37.05-0.2 35.12-0.13 33.2-0.05 32.25 0L32.25 0 32.25-1.05Q34.1-1.05 34.87-1.8 35.65-2.55 35.65-4.65L35.65-4.65 35.65-33.15Q35.65-35.4 34.95-36.48 34.25-37.55 32.25-37.55L32.25-37.55 32.25-38.6Q33.85-38.45 35.35-38.45L35.35-38.45Q37.25-38.45 38.9-38.63 40.55-38.8 41.95-39.15ZM53.9-38.6L53.9-38.6Q55.7-38.6 56.85-37.6 58-36.6 58-34.95L58-34.95Q58-33.3 56.85-32.3 55.7-31.3 53.9-31.3L53.9-31.3Q52.1-31.3 50.95-32.3 49.8-33.3 49.8-34.95L49.8-34.95Q49.8-36.6 50.95-37.6 52.1-38.6 53.9-38.6ZM57.4-26.4L57.4-26.4 57.4-4.65Q57.4-2.55 58.17-1.8 58.95-1.05 60.8-1.05L60.8-1.05 60.8 0Q59.9-0.05 58.05-0.13 56.2-0.2 54.3-0.2L54.3-0.2Q52.45-0.2 50.55-0.13 48.65-0.05 47.7 0L47.7 0 47.7-1.05Q49.55-1.05 50.32-1.8 51.1-2.55 51.1-4.65L51.1-4.65 51.1-20.35Q51.1-22.65 50.37-23.73 49.65-24.8 47.7-24.8L47.7-24.8 47.7-25.85Q49.3-25.7 50.8-25.7L50.8-25.7Q52.65-25.7 54.32-25.88 56-26.05 57.4-26.4ZM72.54-34.05L72.54-34.05 72.54-25.8 78.94-25.8 78.94-24.8 72.54-24.8 72.54-4.9Q72.54-3.1 73.19-2.35 73.84-1.6 75.04-1.6L75.04-1.6Q76.19-1.6 77.14-2.48 78.09-3.35 78.84-5.4L78.84-5.4 79.74-5Q78.99-2.55 77.42-0.93 75.84 0.7 72.99 0.7L72.99 0.7Q71.29 0.7 70.12 0.28 68.94-0.15 68.09-0.95L68.09-0.95Q66.99-2.1 66.62-3.7 66.24-5.3 66.24-7.95L66.24-7.95 66.24-24.8 61.84-24.8 61.84-25.8 66.24-25.8 66.24-32.75Q68.04-32.8 69.59-33.1 71.14-33.4 72.54-34.05ZM93.19-26.55L93.19-26.55Q97.59-26.55 100.09-23.9 102.59-21.25 102.59-15.45L102.59-15.45 85.74-15.45 85.69-16.4 96.79-16.4Q96.89-18.85 96.49-20.93 96.09-23 95.22-24.25 94.34-25.5 92.94-25.5L92.94-25.5Q91.04-25.5 89.64-23.28 88.24-21.05 87.89-16L87.89-16 88.09-15.7Q87.99-15.05 87.97-14.3 87.94-13.55 87.94-12.8L87.94-12.8Q87.94-9.35 88.94-7.1 89.94-4.85 91.54-3.8 93.14-2.75 94.84-2.75L94.84-2.75Q96.59-2.75 98.42-3.63 100.24-4.5 101.64-7.1L101.64-7.1 102.59-6.7Q102.04-4.95 100.77-3.23 99.49-1.5 97.49-0.4 95.49 0.7 92.79 0.7L92.79 0.7Q89.39 0.7 86.79-0.8 84.19-2.3 82.74-5.28 81.29-8.25 81.29-12.55L81.29-12.55Q81.29-17.1 82.82-20.2 84.34-23.3 87.04-24.93 89.74-26.55 93.19-26.55ZM136.24-36.1L136.24-36.1Q139.59-36.1 141.69-35.13 143.79-34.15 145.54-32.85L145.54-32.85Q146.14-32.35 146.54-32.35L146.54-32.35Q147.49-32.35 147.79-35.4L147.79-35.4 148.94-35.4Q148.84-33.5 148.79-30.75 148.74-28 148.74-23.5L148.74-23.5 147.59-23.5Q147.24-26.2 146.59-28.35 145.94-30.5 144.24-32L144.24-32Q142.94-33.4 140.96-34.18 138.99-34.95 136.99-34.95L136.99-34.95Q134.34-34.95 132.36-33.58 130.39-32.2 129.06-29.83 127.74-27.45 127.09-24.33 126.44-21.2 126.44-17.65L126.44-17.65Q126.44-8.65 129.06-4.48 131.69-0.3 136.79-0.3L136.79-0.3Q138.19-0.3 139.21-0.68 140.24-1.05 140.89-1.45L140.89-1.45Q141.69-2 141.94-2.6 142.19-3.2 142.19-4.1L142.19-4.1 142.19-9Q142.19-11.2 141.79-12.28 141.39-13.35 140.31-13.75 139.24-14.15 137.14-14.2L137.14-14.2 137.14-15.2Q138.14-15.15 139.51-15.13 140.89-15.1 142.41-15.08 143.94-15.05 145.19-15.05L145.19-15.05Q147.14-15.05 148.74-15.1 150.34-15.15 151.39-15.2L151.39-15.2 151.39-14.2Q149.89-14.1 149.46-13.4 149.04-12.7 149.04-9.9L149.04-9.9 149.04 0 148.04 0Q147.99-0.85 147.64-1.85 147.29-2.85 146.59-2.85L146.59-2.85Q146.24-2.85 145.79-2.68 145.34-2.5 144.24-1.9L144.24-1.9Q142.49-0.75 140.51-0.03 138.54 0.7 136.19 0.7L136.19 0.7Q127.79 0.7 123.31-4.05 118.84-8.8 118.84-17.2L118.84-17.2Q118.84-22.95 121.09-27.2 123.34-31.45 127.26-33.77 131.19-36.1 136.24-36.1ZM160.43 0.35L160.43 0.35Q157.13 0.35 155.63-1.35 154.13-3.05 154.13-5.65L154.13-5.65Q154.13-7.75 155.13-9.13 156.13-10.5 157.71-11.35 159.28-12.2 161.03-12.83 162.78-13.45 164.33-14.03 165.88-14.6 166.88-15.33 167.88-16.05 167.88-17.2L167.88-17.2 167.88-20.85Q167.88-22.45 167.41-23.48 166.93-24.5 166.01-25.03 165.08-25.55 163.68-25.55L163.68-25.55Q162.63-25.55 161.48-25.25 160.33-24.95 159.58-24.1L159.58-24.1Q160.88-23.75 161.61-22.8 162.33-21.85 162.33-20.5L162.33-20.5Q162.33-18.95 161.31-18.07 160.28-17.2 158.73-17.2L158.73-17.2Q157.08-17.2 156.23-18.25 155.38-19.3 155.38-20.7L155.38-20.7Q155.38-22.1 156.08-23.03 156.78-23.95 158.03-24.7L158.03-24.7Q159.28-25.55 161.23-26.05 163.18-26.55 165.48-26.55L165.48-26.55Q167.68-26.55 169.38-26.08 171.08-25.6 172.28-24.4L172.28-24.4Q173.48-23.25 173.83-21.55 174.18-19.85 174.18-17.4L174.18-17.4 174.18-3.7Q174.18-2.45 174.46-1.93 174.73-1.4 175.43-1.4L175.43-1.4Q176.03-1.4 176.48-1.7 176.93-2 177.38-2.35L177.38-2.35 177.93-1.5Q176.83-0.65 175.63-0.15 174.43 0.35 172.73 0.35L172.73 0.35Q169.88 0.35 168.93-0.93 167.98-2.2 167.93-3.85L167.93-3.85Q166.58-1.6 164.68-0.63 162.78 0.35 160.43 0.35ZM163.78-2.45L163.78-2.45Q164.88-2.45 165.93-3.05 166.98-3.65 167.88-5.05L167.88-5.05 167.88-15.15Q167.23-14.15 165.98-13.5 164.73-12.85 163.46-12.08 162.18-11.3 161.26-10.05 160.33-8.8 160.33-6.6L160.33-6.6Q160.33-4.45 161.31-3.45 162.28-2.45 163.78-2.45ZM196.98-26.55L196.98-26.55Q198.93-26.55 200.26-26 201.58-25.45 202.33-24.6L202.33-24.6Q203.23-23.65 203.58-22.08 203.93-20.5 203.93-18.1L203.93-18.1 203.93-4.65Q203.93-2.55 204.66-1.8 205.38-1.05 207.13-1.05L207.13-1.05 207.13 0Q206.23-0.05 204.43-0.13 202.63-0.2 200.93-0.2L200.93-0.2Q199.13-0.2 197.46-0.13 195.78-0.05 194.93 0L194.93 0 194.93-1.05Q196.38-1.05 197.01-1.8 197.63-2.55 197.63-4.65L197.63-4.65 197.63-19.8Q197.63-21.15 197.43-22.23 197.23-23.3 196.58-23.93 195.93-24.55 194.58-24.55L194.58-24.55Q193.03-24.55 191.78-23.65 190.53-22.75 189.81-21.18 189.08-19.6 189.08-17.65L189.08-17.65 189.08-4.65Q189.08-2.55 189.68-1.8 190.28-1.05 191.78-1.05L191.78-1.05 191.78 0Q190.93-0.05 189.31-0.13 187.68-0.2 185.98-0.2L185.98-0.2Q184.13-0.2 182.23-0.13 180.33-0.05 179.38 0L179.38 0 179.38-1.05Q181.23-1.05 182.01-1.8 182.78-2.55 182.78-4.65L182.78-4.65 182.78-20.4Q182.78-22.65 182.06-23.73 181.33-24.8 179.38-24.8L179.38-24.8 179.38-25.85Q180.98-25.7 182.48-25.7L182.48-25.7Q184.33-25.7 186.01-25.88 187.68-26.05 189.08-26.4L189.08-26.4 189.08-21.4Q190.33-24.15 192.43-25.35 194.53-26.55 196.98-26.55ZM212.03-26.55L212.03-26.55Q213.98-26.55 215.31-26 216.63-25.45 217.38-24.6L217.38-24.6Q218.28-23.65 218.63-22.08 218.98-20.5 218.98-18.1L218.98-18.1 218.98-4.65Q218.98-2.55 219.76-1.8 220.53-1.05 222.38-1.05L222.38-1.05 222.38 0Q221.48-0.05 219.61-0.13 217.73-0.2 215.98-0.2L215.98-0.2Q214.18-0.2 212.51-0.13 210.83-0.05 209.98 0L209.98 0 209.98-1.05Q211.43-1.05 212.06-1.8 212.68-2.55 212.68-4.65L212.68-4.65 212.68-19.8Q212.68-21.15 212.46-22.23 212.23-23.3 211.53-23.93 210.83-24.55 209.43-24.55L209.43-24.55Q207.13-24.55 205.53-22.5 203.93-20.45 203.88-17.55L203.88-17.55 203.63-21.15Q204.98-24.25 207.23-25.4 209.48-26.55 212.03-26.55ZM230.53-38.6L230.53-38.6Q232.33-38.6 233.48-37.6 234.63-36.6 234.63-34.95L234.63-34.95Q234.63-33.3 233.48-32.3 232.33-31.3 230.53-31.3L230.53-31.3Q228.73-31.3 227.58-32.3 226.43-33.3 226.43-34.95L226.43-34.95Q226.43-36.6 227.58-37.6 228.73-38.6 230.53-38.6ZM234.03-26.4L234.03-26.4 234.03-4.65Q234.03-2.55 234.8-1.8 235.58-1.05 237.43-1.05L237.43-1.05 237.43 0Q236.53-0.05 234.68-0.13 232.83-0.2 230.93-0.2L230.93-0.2Q229.08-0.2 227.18-0.13 225.28-0.05 224.33 0L224.33 0 224.33-1.05Q226.18-1.05 226.95-1.8 227.73-2.55 227.73-4.65L227.73-4.65 227.73-20.35Q227.73-22.65 227-23.73 226.28-24.8 224.33-24.8L224.33-24.8 224.33-25.85Q225.93-25.7 227.43-25.7L227.43-25.7Q229.28-25.7 230.95-25.88 232.63-26.05 234.03-26.4ZM257.68-26.55L257.68-26.55Q259.78-26.55 261.05-26 262.33-25.45 263.13-24.6L263.13-24.6Q264.03-23.65 264.4-22.15 264.78-20.65 264.78-18.1L264.78-18.1 264.78-4.65Q264.78-2.55 265.55-1.8 266.33-1.05 268.18-1.05L268.18-1.05 268.18 0Q267.28-0.05 265.4-0.13 263.53-0.2 261.78-0.2L261.78-0.2Q259.93-0.2 258.18-0.13 256.43-0.05 255.58 0L255.58 0 255.58-1.05Q257.18-1.05 257.83-1.8 258.48-2.55 258.48-4.65L258.48-4.65 258.48-19.8Q258.48-21.15 258.23-22.23 257.98-23.3 257.23-23.93 256.48-24.55 255.08-24.55L255.08-24.55Q252.63-24.55 251.03-22.58 249.43-20.6 249.43-17.65L249.43-17.65 249.43-4.65Q249.43-2.55 250.08-1.8 250.73-1.05 252.33-1.05L252.33-1.05 252.33 0Q251.48-0.05 249.78-0.13 248.08-0.2 246.33-0.2L246.33-0.2Q244.48-0.2 242.58-0.13 240.68-0.05 239.73 0L239.73 0 239.73-1.05Q241.58-1.05 242.35-1.8 243.13-2.55 243.13-4.65L243.13-4.65 243.13-20.4Q243.13-22.65 242.4-23.73 241.68-24.8 239.73-24.8L239.73-24.8 239.73-25.85Q241.33-25.7 242.83-25.7L242.83-25.7Q244.68-25.7 246.35-25.88 248.03-26.05 249.43-26.4L249.43-26.4 249.43-21.4Q250.68-24.25 252.88-25.4 255.08-26.55 257.68-26.55ZM279.22 9.4L279.22 9.4Q276.27 9.4 273.87 8.85 271.47 8.3 270.07 7.23 268.67 6.15 268.67 4.5L268.67 4.5Q268.67 2.9 270.07 1.65 271.47 0.4 274.17-0.25L274.17-0.25 274.52 0.55Q273.57 1.1 273.07 2.05 272.57 3 272.57 4.05L272.57 4.05Q272.57 6.2 274.55 7.38 276.52 8.55 279.82 8.55L279.82 8.55Q282.07 8.55 283.97 7.95 285.87 7.35 287.02 6.1 288.17 4.85 288.17 3L288.17 3Q288.17 1.45 287.05 0.4 285.92-0.65 282.57-0.65L282.57-0.65 279.27-0.65Q277.42-0.65 275.9-1.05 274.37-1.45 273.47-2.35 272.57-3.25 272.57-4.85L272.57-4.85Q272.57-6.8 274.17-8.38 275.77-9.95 279.17-11.45L279.17-11.45 279.72-11Q278.47-10.35 277.5-9.6 276.52-8.85 276.52-7.7L276.52-7.7Q276.52-6.1 278.72-6.1L278.72-6.1 284.37-6.1Q288.17-6.1 290.8-4.63 293.42-3.15 293.42 0.3L293.42 0.3Q293.42 2.7 291.87 4.78 290.32 6.85 287.2 8.13 284.07 9.4 279.22 9.4ZM279.67-10.65L279.67-10.65Q275.57-10.65 272.85-12.58 270.12-14.5 270.12-18.6L270.12-18.6Q270.12-22.75 272.85-24.65 275.57-26.55 279.67-26.55L279.67-26.55Q283.72-26.55 286.47-24.65 289.22-22.75 289.22-18.6L289.22-18.6Q289.22-14.5 286.47-12.58 283.72-10.65 279.67-10.65ZM279.67-11.55L279.67-11.55Q281.17-11.55 282.05-13.08 282.92-14.6 282.92-18.6L282.92-18.6Q282.92-22.6 282.05-24.13 281.17-25.65 279.67-25.65L279.67-25.65Q278.17-25.65 277.3-24.13 276.42-22.6 276.42-18.6L276.42-18.6Q276.42-14.6 277.3-13.08 278.17-11.55 279.67-11.55ZM287.22-22.3L287.22-22.3 286.27-22.65Q287.02-24.5 288.72-25.78 290.42-27.05 292.32-27.05L292.32-27.05Q293.77-27.05 294.6-26.25 295.42-25.45 295.42-24L295.42-24Q295.42-22.5 294.62-21.8 293.82-21.1 292.87-21.1L292.87-21.1Q292.02-21.1 291.32-21.68 290.62-22.25 290.52-23.48 290.42-24.7 291.32-26.55L291.32-26.55 291.82-26.35Q289.87-25.6 288.92-24.7 287.97-23.8 287.22-22.3ZM321.32-36L321.32-36Q324.12-36 325.62-35.4 327.12-34.8 328.22-34.1L328.22-34.1Q328.82-33.75 329.19-33.58 329.57-33.4 329.92-33.4L329.92-33.4Q330.72-33.4 331.02-35.6L331.02-35.6 332.17-35.6Q332.12-34.65 332.04-33.4 331.97-32.15 331.94-30.08 331.92-28 331.92-24.6L331.92-24.6 330.77-24.6Q330.62-27.15 329.64-29.5 328.67-31.85 326.89-33.38 325.12-34.9 322.37-34.9L322.37-34.9Q319.92-34.9 318.29-33.45 316.67-32 316.67-29.55L316.67-29.55Q316.67-27.45 317.72-26.03 318.77-24.6 320.69-23.28 322.62-21.95 325.27-20.25L325.27-20.25Q327.72-18.65 329.67-17.07 331.62-15.5 332.74-13.6 333.87-11.7 333.87-8.95L333.87-8.95Q333.87-5.7 332.27-3.55 330.67-1.4 327.97-0.35 325.27 0.7 322.07 0.7L322.07 0.7Q319.12 0.7 317.39 0.1 315.67-0.5 314.42-1.15L314.42-1.15Q313.32-1.85 312.72-1.85L312.72-1.85Q311.92-1.85 311.62 0.35L311.62 0.35 310.47 0.35Q310.57-0.8 310.59-2.35 310.62-3.9 310.64-6.38 310.67-8.85 310.67-12.65L310.67-12.65 311.82-12.65Q312.02-9.45 312.94-6.68 313.87-3.9 315.79-2.2 317.72-0.5 320.92-0.5L320.92-0.5Q323.52-0.5 325.37-1.98 327.22-3.45 327.22-6.45L327.22-6.45Q327.22-9.5 325.12-11.55 323.02-13.6 319.62-15.7L319.62-15.7Q317.27-17.2 315.22-18.75 313.17-20.3 311.94-22.28 310.72-24.25 310.72-27.05L310.72-27.05Q310.72-30.15 312.22-32.13 313.72-34.1 316.14-35.05 318.57-36 321.32-36ZM350.07-26.55L350.07-26.55Q353.52-26.55 356.19-25.18 358.87-23.8 360.44-20.8 362.02-17.8 362.02-12.9L362.02-12.9Q362.02-8 360.44-5 358.87-2 356.19-0.65 353.52 0.7 350.07 0.7L350.07 0.7Q346.62 0.7 343.92-0.65 341.22-2 339.67-5 338.12-8 338.12-12.9L338.12-12.9Q338.12-17.8 339.67-20.8 341.22-23.8 343.92-25.18 346.62-26.55 350.07-26.55ZM350.07-25.55L350.07-25.55Q347.72-25.55 346.24-22.58 344.77-19.6 344.77-12.9L344.77-12.9Q344.77-6.2 346.24-3.25 347.72-0.3 350.07-0.3L350.07-0.3Q352.37-0.3 353.87-3.25 355.37-6.2 355.37-12.9L355.37-12.9Q355.37-19.6 353.87-22.58 352.37-25.55 350.07-25.55ZM374.21-39.15L374.21-39.15 374.21-4.65Q374.21-2.55 374.99-1.8 375.76-1.05 377.61-1.05L377.61-1.05 377.61 0Q376.71-0.05 374.89-0.13 373.06-0.2 371.16-0.2L371.16-0.2Q369.31-0.2 367.39-0.13 365.46-0.05 364.51 0L364.51 0 364.51-1.05Q366.36-1.05 367.14-1.8 367.91-2.55 367.91-4.65L367.91-4.65 367.91-33.15Q367.91-35.4 367.21-36.48 366.51-37.55 364.51-37.55L364.51-37.55 364.51-38.6Q366.11-38.45 367.61-38.45L367.61-38.45Q369.51-38.45 371.16-38.63 372.81-38.8 374.21-39.15ZM404.11-26.4L404.11-26.4 404.11-5.4Q404.11-3.15 404.86-2.08 405.61-1 407.51-1L407.51-1 407.51 0.05Q405.96-0.1 404.41-0.1L404.41-0.1Q402.56-0.1 400.89 0.05 399.21 0.2 397.81 0.6L397.81 0.6 397.81-4.4Q396.56-1.65 394.39-0.48 392.21 0.7 389.71 0.7L389.71 0.7Q387.76 0.7 386.44 0.18 385.11-0.35 384.31-1.25L384.31-1.25Q383.46-2.2 383.11-3.75 382.76-5.3 382.76-7.75L382.76-7.75 382.76-20.4Q382.76-22.65 382.04-23.73 381.31-24.8 379.36-24.8L379.36-24.8 379.36-25.85Q380.96-25.7 382.46-25.7L382.46-25.7Q384.31-25.7 385.99-25.88 387.66-26.05 389.06-26.4L389.06-26.4 389.06-6Q389.06-4.65 389.29-3.6 389.51-2.55 390.21-1.93 390.91-1.3 392.31-1.3L392.31-1.3Q394.66-1.3 396.24-3.28 397.81-5.25 397.81-8.15L397.81-8.15 397.81-20.4Q397.81-22.65 397.09-23.73 396.36-24.8 394.41-24.8L394.41-24.8 394.41-25.85Q396.01-25.7 397.51-25.7L397.51-25.7Q399.36-25.7 401.04-25.88 402.71-26.05 404.11-26.4ZM419.26-34.05L419.26-34.05 419.26-25.8 425.66-25.8 425.66-24.8 419.26-24.8 419.26-4.9Q419.26-3.1 419.91-2.35 420.56-1.6 421.76-1.6L421.76-1.6Q422.91-1.6 423.86-2.48 424.81-3.35 425.56-5.4L425.56-5.4 426.46-5Q425.71-2.55 424.13-0.93 422.56 0.7 419.71 0.7L419.71 0.7Q418.01 0.7 416.83 0.28 415.66-0.15 414.81-0.95L414.81-0.95Q413.71-2.1 413.33-3.7 412.96-5.3 412.96-7.95L412.96-7.95 412.96-24.8 408.56-24.8 408.56-25.8 412.96-25.8 412.96-32.75Q414.76-32.8 416.31-33.1 417.86-33.4 419.26-34.05ZM433.61-38.6L433.61-38.6Q435.41-38.6 436.56-37.6 437.71-36.6 437.71-34.95L437.71-34.95Q437.71-33.3 436.56-32.3 435.41-31.3 433.61-31.3L433.61-31.3Q431.81-31.3 430.66-32.3 429.51-33.3 429.51-34.95L429.51-34.95Q429.51-36.6 430.66-37.6 431.81-38.6 433.61-38.6ZM437.11-26.4L437.11-26.4 437.11-4.65Q437.11-2.55 437.88-1.8 438.66-1.05 440.51-1.05L440.51-1.05 440.51 0Q439.61-0.05 437.76-0.13 435.91-0.2 434.01-0.2L434.01-0.2Q432.16-0.2 430.26-0.13 428.36-0.05 427.41 0L427.41 0 427.41-1.05Q429.26-1.05 430.03-1.8 430.81-2.55 430.81-4.65L430.81-4.65 430.81-20.35Q430.81-22.65 430.08-23.73 429.36-24.8 427.41-24.8L427.41-24.8 427.41-25.85Q429.01-25.7 430.51-25.7L430.51-25.7Q432.36-25.7 434.03-25.88 435.71-26.05 437.11-26.4ZM455.5-26.55L455.5-26.55Q458.95-26.55 461.63-25.18 464.3-23.8 465.88-20.8 467.45-17.8 467.45-12.9L467.45-12.9Q467.45-8 465.88-5 464.3-2 461.63-0.65 458.95 0.7 455.5 0.7L455.5 0.7Q452.05 0.7 449.35-0.65 446.65-2 445.1-5 443.55-8 443.55-12.9L443.55-12.9Q443.55-17.8 445.1-20.8 446.65-23.8 449.35-25.18 452.05-26.55 455.5-26.55ZM455.5-25.55L455.5-25.55Q453.15-25.55 451.68-22.58 450.2-19.6 450.2-12.9L450.2-12.9Q450.2-6.2 451.68-3.25 453.15-0.3 455.5-0.3L455.5-0.3Q457.8-0.3 459.3-3.25 460.8-6.2 460.8-12.9L460.8-12.9Q460.8-19.6 459.3-22.58 457.8-25.55 455.5-25.55ZM488.7-26.55L488.7-26.55Q490.8-26.55 492.08-26 493.35-25.45 494.15-24.6L494.15-24.6Q495.05-23.65 495.43-22.15 495.8-20.65 495.8-18.1L495.8-18.1 495.8-4.65Q495.8-2.55 496.58-1.8 497.35-1.05 499.2-1.05L499.2-1.05 499.2 0Q498.3-0.05 496.43-0.13 494.55-0.2 492.8-0.2L492.8-0.2Q490.95-0.2 489.2-0.13 487.45-0.05 486.6 0L486.6 0 486.6-1.05Q488.2-1.05 488.85-1.8 489.5-2.55 489.5-4.65L489.5-4.65 489.5-19.8Q489.5-21.15 489.25-22.23 489-23.3 488.25-23.93 487.5-24.55 486.1-24.55L486.1-24.55Q483.65-24.55 482.05-22.58 480.45-20.6 480.45-17.65L480.45-17.65 480.45-4.65Q480.45-2.55 481.1-1.8 481.75-1.05 483.35-1.05L483.35-1.05 483.35 0Q482.5-0.05 480.8-0.13 479.1-0.2 477.35-0.2L477.35-0.2Q475.5-0.2 473.6-0.13 471.7-0.05 470.75 0L470.75 0 470.75-1.05Q472.6-1.05 473.38-1.8 474.15-2.55 474.15-4.65L474.15-4.65 474.15-20.4Q474.15-22.65 473.43-23.73 472.7-24.8 470.75-24.8L470.75-24.8 470.75-25.85Q472.35-25.7 473.85-25.7L473.85-25.7Q475.7-25.7 477.38-25.88 479.05-26.05 480.45-26.4L480.45-26.4 480.45-21.4Q481.7-24.25 483.9-25.4 486.1-26.55 488.7-26.55ZM510.7-26.55L510.7-26.55Q512.8-26.55 514.3-25.95 515.8-25.35 516.5-24.9L516.5-24.9Q518.2-23.65 518.55-26.5L518.55-26.5 519.65-26.5Q519.55-25.05 519.5-23.08 519.45-21.1 519.45-17.8L519.45-17.8 518.35-17.8Q518.1-19.65 517.4-21.4 516.7-23.15 515.35-24.33 514-25.5 511.8-25.5L511.8-25.5Q510.25-25.5 509.22-24.6 508.2-23.7 508.2-22.05L508.2-22.05Q508.2-20.55 509.1-19.43 510-18.3 511.42-17.32 512.85-16.35 514.4-15.2L514.4-15.2Q517.05-13.35 518.87-11.48 520.7-9.6 520.7-6.6L520.7-6.6Q520.7-4.3 519.42-2.68 518.15-1.05 516.07-0.18 514 0.7 511.5 0.7L511.5 0.7Q510.15 0.7 509.05 0.45 507.95 0.2 507.1-0.2L507.1-0.2Q506.45-0.55 505.92-0.85 505.4-1.15 504.85-1.35L504.85-1.35Q504.35-1.6 503.97-1.15 503.6-0.7 503.4 0.35L503.4 0.35 502.3 0.35Q502.4-1.25 502.45-3.55 502.5-5.85 502.5-9.65L502.5-9.65 503.6-9.65Q503.95-6.9 504.67-4.83 505.4-2.75 506.8-1.58 508.2-0.4 510.4-0.4L510.4-0.4Q511.75-0.4 513-1.3 514.25-2.2 514.25-4.35L514.25-4.35Q514.25-6.55 512.75-8 511.25-9.45 509-11.1L509-11.1Q507.3-12.35 505.82-13.55 504.35-14.75 503.42-16.25 502.5-17.75 502.5-19.8L502.5-19.8Q502.5-22.05 503.65-23.53 504.8-25 506.67-25.78 508.55-26.55 510.7-26.55Z" opacity="1" transform="matrix(1,0,0,1,0,0)" fill="#fbfbfb" class="wordmark-text-0" data-fill-palette-color="primary" id="text-0"></path></svg></g></svg></g></svg></g></svg></g></svg></g></svg></g></svg></g><g mask="url(#c3172140-0d1a-4e60-9b6b-b7e7a8b4faac)"><g transform="matrix(2.624705681930846, 0, 0, 2.624705681930846, 91.58277335928405, 1)"><svg xmlns="http://www.w3.org/2000/svg" xmlns:xlink="http://www.w3.org/1999/xlink" version="1.1" x="0" y="0" viewBox="9.54699993133545 3.2899999618530273 80.906005859375 93.41999816894531" enable-background="new 0 0 100 100" xml:space="preserve" height="93.41999816894531" width="80.906005859375" class="icon-none" data-fill-palette-color="accent" id="none"><g fill="#2f76db" data-fill-palette-color="accent"><path d="M31.112 39.094v21.812L49.999 71.81l18.89-10.903V39.094l-18.89-10.905L31.112 39.094zM60.925 56.308l-10.926 6.307-10.924-6.307V43.692l10.924-6.308 10.926 6.308V56.308z" fill="#2f76db" data-fill-palette-color="accent"></path><path d="M49.999 3.29L9.547 26.646v46.709L49.999 96.71l40.454-23.355V26.646L49.999 3.29zM82.19 68.584L49.999 87.169 17.811 68.584v-37.17l32.188-18.585L82.19 31.414V68.584z" fill="#2f76db" data-fill-palette-color="accent"></path><path d="M20.368 32.89v34.218l29.631 17.108 29.634-17.108V32.89L49.999 15.782 20.368 32.89zM71.446 62.383l-21.447 12.38-21.444-12.38V37.618l21.444-12.382 21.447 12.382V62.383z" fill="#2f76db" data-fill-palette-color="accent"></path></g></svg></g></g></svg></g><defs></defs></svg><rect width="395.52" height="247.2" fill="none" stroke="none" visibility="hidden"></rect></g></svg></g></svg>