<svg xmlns="http://www.w3.org/2000/svg" version="1.1" xmlns:xlink="http://www.w3.org/1999/xlink" xmlns:svgjs="http://svgjs.dev/svgjs" width="1000" height="1000" viewBox="0 0 1000 1000"><rect width="1000" height="1000" fill="#ffa458"></rect><g transform="matrix(0.7,0,0,0.7,149.57577930502123,442.20880415752566)"><svg viewBox="0 0 396 66" data-background-color="#ffa458" preserveAspectRatio="xMidYMid meet" height="166" width="1000" xmlns="http://www.w3.org/2000/svg" xmlns:xlink="http://www.w3.org/1999/xlink"><g id="tight-bounds" transform="matrix(1,0,0,1,0.24000592239724483,-0.1750026377943925)"><svg viewBox="0 0 395.52 66.34990030182956" height="66.34990030182956" width="395.52"><g><svg viewBox="0 0 608.3115853281469 102.04645286956521" height="66.34990030182956" width="395.52"><g transform="matrix(1,0,0,1,212.7915853281469,31.53383513043478)"><svg viewBox="0 0 395.52 38.97878260869565" height="38.97878260869565" width="395.52"><g id="textblocktransform"><svg viewBox="0 0 395.52 38.97878260869565" height="38.97878260869565" width="395.52" id="textblock"><g><svg viewBox="0 0 395.52 38.97878260869565" height="38.97878260869565" width="395.52"><g transform="matrix(1,0,0,1,0,0)"><svg width="395.52" viewBox="2 -33.25 344.9599914550781 34" height="38.97878260869565" data-palette-color="#ffffff"><path d="M2 0L9.35-32.5 14.6-32.5 21.95 0 18.45 0 16.75-7.5 7.2-7.5 5.5 0 2 0ZM16.05-10.5L11.95-28.6 7.85-10.5 16.05-10.5ZM31.95-10L31.95 0 28.45 0 28.45-32.5 36-32.5Q39.9-32.5 41.92-30.65 43.95-28.8 43.95-25.5L43.95-25.5 43.95-17Q43.95-13.65 41.95-11.83 39.95-10 36-10L36-10 31.95-10ZM40.45-17L40.45-17 40.45-25.5Q40.45-27.4 39.3-28.45 38.15-29.5 36-29.5L36-29.5 31.95-29.5 31.95-13 36-13Q40.45-13 40.45-17ZM66.7-3L66.7 0 51.95 0 51.95-32.5 66.2-32.5 66.2-29.5 55.45-29.5 55.45-18 64.2-18 64.2-15 55.45-15 55.45-3 66.7-3ZM82.54-16.3L89.79 0 86.14 0 80.49-12.65 74.84 0 71.19 0 78.69-16.75 71.69-32.5 75.34-32.5 80.69-20.4 86.14-32.5 89.79-32.5 82.54-16.3ZM124.19-6.25L124.19-6.25Q124.19 0.75 115.74 0.75 107.29 0.75 107.29-6.25L107.29-6.25 107.29-10.5 110.79-10.5 110.79-6.05Q110.79-4.25 112.04-3.25 113.29-2.25 115.74-2.25 118.19-2.25 119.44-3.25 120.69-4.25 120.69-5.98 120.69-7.7 120.31-8.72 119.94-9.75 118.79-10.9L118.79-10.9 109.99-19.5Q108.44-21.05 107.86-22.53 107.29-24 107.29-26.25L107.29-26.25Q107.29-29.6 109.36-31.43 111.44-33.25 115.64-33.25L115.64-33.25Q123.69-33.25 123.69-26.25L123.69-26.25 123.69-22 120.19-22 120.19-26.45Q120.19-28.25 119.01-29.25 117.84-30.25 115.49-30.25 113.14-30.25 111.96-29.25 110.79-28.25 110.79-26.5 110.79-24.75 111.14-23.75 111.49-22.75 112.69-21.65L112.69-21.65 121.64-13.05Q123.09-11.45 123.64-9.98 124.19-8.5 124.19-6.25ZM136.19-10L136.19 0 132.69 0 132.69-32.5 140.24-32.5Q144.14-32.5 146.16-30.65 148.19-28.8 148.19-25.5L148.19-25.5 148.19-17Q148.19-13.65 146.19-11.83 144.19-10 140.24-10L140.24-10 136.19-10ZM144.69-17L144.69-17 144.69-25.5Q144.69-27.4 143.54-28.45 142.39-29.5 140.24-29.5L140.24-29.5 136.19-29.5 136.19-13 140.24-13Q144.69-13 144.69-17ZM172.43-26.25L172.43-26.25 172.43-6.25Q172.43-2.9 170.31-1.07 168.18 0.75 163.96 0.75 159.73 0.75 157.58-1.07 155.43-2.9 155.43-6.25L155.43-6.25 155.43-26.25Q155.43-29.6 157.56-31.43 159.68-33.25 163.91-33.25 168.13-33.25 170.28-31.43 172.43-29.6 172.43-26.25ZM168.93-6.25L168.93-6.25 168.93-26.25Q168.93-30.25 163.93-30.25 158.93-30.25 158.93-26.25L158.93-26.25 158.93-6.25Q158.93-2.25 163.93-2.25 168.93-2.25 168.93-6.25ZM185.18-11.5L185.18 0 181.68 0 181.68-32.5 189.23-32.5Q193.13-32.5 195.16-30.65 197.18-28.8 197.18-25.5L197.18-25.5 197.18-18.5Q197.18-13.4 192.78-12L192.78-12 198.93 0 195.08 0 189.23-11.5 185.18-11.5ZM193.68-18.5L193.68-18.5 193.68-25.5Q193.68-27.4 192.53-28.45 191.38-29.5 189.23-29.5L189.23-29.5 185.18-29.5 185.18-14.5 189.23-14.5Q193.68-14.5 193.68-18.5ZM202.43-32.5L218.93-32.5 218.93-29.5 212.43-29.5 212.43 0 208.93 0 208.93-29.5 202.43-29.5 202.43-32.5ZM241.33-6.25L241.33-6.25Q241.33 0.75 232.88 0.75 224.43 0.75 224.43-6.25L224.43-6.25 224.43-10.5 227.93-10.5 227.93-6.05Q227.93-4.25 229.18-3.25 230.43-2.25 232.88-2.25 235.33-2.25 236.58-3.25 237.83-4.25 237.83-5.98 237.83-7.7 237.45-8.72 237.08-9.75 235.93-10.9L235.93-10.9 227.13-19.5Q225.58-21.05 225-22.53 224.43-24 224.43-26.25L224.43-26.25Q224.43-29.6 226.5-31.43 228.58-33.25 232.78-33.25L232.78-33.25Q240.83-33.25 240.83-26.25L240.83-26.25 240.83-22 237.33-22 237.33-26.45Q237.33-28.25 236.15-29.25 234.98-30.25 232.63-30.25 230.28-30.25 229.1-29.25 227.93-28.25 227.93-26.5 227.93-24.75 228.28-23.75 228.63-22.75 229.83-21.65L229.83-21.65 238.78-13.05Q240.23-11.45 240.78-9.98 241.33-8.5 241.33-6.25ZM274.07-6.25L274.07-6.25 274.07-9 277.57-9 277.57-6.25Q277.57-2.9 275.52-1.07 273.47 0.75 269.37 0.75 265.27 0.75 263.17-1.07 261.07-2.9 261.07-6.25L261.07-6.25 261.07-26.25Q261.07-29.6 263.12-31.43 265.17-33.25 269.27-33.25 273.37-33.25 275.47-31.43 277.57-29.6 277.57-26.25L277.57-26.25 277.57-21.5 274.07-21.5 274.07-26.25Q274.07-30.25 269.32-30.25 264.57-30.25 264.57-26.25L264.57-26.25 264.57-6.25Q264.57-2.25 269.32-2.25 274.07-2.25 274.07-6.25ZM298.97 0L286.32 0 286.32-32.5 289.82-32.5 289.82-3 298.97-3 298.97 0ZM317.97-6.25L317.97-6.25 317.97-32.5 321.47-32.5 321.47-6.25Q321.47-2.9 319.34-1.07 317.22 0.75 312.99 0.75 308.77 0.75 306.62-1.07 304.47-2.9 304.47-6.25L304.47-6.25 304.47-32.5 307.97-32.5 307.97-6.25Q307.97-2.25 312.97-2.25 317.97-2.25 317.97-6.25ZM330.96 0L330.96-32.5 338.51-32.5Q342.41-32.5 344.44-30.65 346.46-28.8 346.46-25.5L346.46-25.5 346.46-22.5Q346.46-18.25 342.91-17.05L342.91-17.05Q346.96-15.95 346.96-11.5L346.96-11.5 346.96-7Q346.96-3.65 344.96-1.83 342.96 0 339.01 0L339.01 0 330.96 0ZM343.46-7L343.46-7 343.46-11.5Q343.46-13.1 342.26-14.43 341.06-15.75 339.01-15.75L339.01-15.75 334.46-15.75 334.46-3 339.01-3Q341.11-3 342.29-4.17 343.46-5.35 343.46-7ZM342.96-22.5L342.96-22.5 342.96-25.5Q342.96-27.1 341.79-28.3 340.61-29.5 338.51-29.5L338.51-29.5 334.46-29.5 334.46-18.25 338.51-18.25Q340.61-18.25 341.79-19.55 342.96-20.85 342.96-22.5Z" opacity="1" transform="matrix(1,0,0,1,0,0)" fill="#ffffff" class="wordmark-text-0" data-fill-palette-color="primary" id="text-0"></path></svg></g></svg></g></svg></g></svg></g><g><svg viewBox="0 0 203.58963024501648 102.04645286956521" height="102.04645286956521" width="203.58963024501648"><g><svg xmlns="http://www.w3.org/2000/svg" xmlns:xlink="http://www.w3.org/1999/xlink" xml:space="preserve" style="shape-rendering:geometricPrecision;text-rendering:geometricPrecision;image-rendering:optimizeQuality;" viewBox="0.0000020265579223632812 0.0000027120113372802734 14.727499008178711 7.38195276260376" x="0" y="0" fill-rule="evenodd" clip-rule="evenodd" width="203.58963024501648" height="102.04645286956521" class="icon-icon-0" data-fill-palette-color="accent" id="icon-0"><g fill="#ffffff" data-fill-palette-color="accent"><path class="" d="M1.757 3.091c-0.313 0.444-0.296 1.331-0.417 1.95-0.153 0.784-0.711 1.203-1.34 1.534 0.188-0.771 0.348-1.542 0.412-2.313 0.078-0.953-0.06-0.891 0.767-1.575 1.159-0.961 3.04-1.741 5.848-2.29 2.456-0.406 5.049-0.453 7.701-0.351-0.89 1.809-3.733 1.961-7.203 1.581-1.811 0.02-3.495-0.488-5.768 1.464z m8.33 2.781c-3.895 2.038-7.803-2.284-9.165 0.688 2.104-1.831 5.079 3.183 9.165-0.688z m2.489-2.547c-4.49 2.72-9.502-0.792-10.907 1.859 3.412-1.235 7.765 2.753 10.907-1.859z m0.834-1.478c-3.944 1.761-10.043-1.402-11.565 2.239 3.106-1.808 8.446 1.438 11.565-2.239z" fill="#ffffff" data-fill-palette-color="accent"></path></g></svg></g></svg></g></svg></g><defs></defs></svg><rect width="395.52" height="66.34990030182956" fill="none" stroke="none" visibility="hidden"></rect></g></svg></g></svg>