<svg xmlns="http://www.w3.org/2000/svg" version="1.1" xmlns:xlink="http://www.w3.org/1999/xlink" xmlns:svgjs="http://svgjs.dev/svgjs" width="1000" height="1000" viewBox="0 0 1000 1000"><rect width="1000" height="1000" fill="#ffffff"></rect><g transform="matrix(0.7,0,0,0.7,149.57576769728126,400.4059296989241)"><svg viewBox="0 0 396 113" data-background-color="#ffffff" preserveAspectRatio="xMidYMid meet" height="285" width="1000" xmlns="http://www.w3.org/2000/svg" xmlns:xlink="http://www.w3.org/1999/xlink"><g id="tight-bounds" transform="matrix(1,0,0,1,0.23999427410944918,-0.08832108259863958)"><svg viewBox="0 0 395.52 113.17664216519728" height="113.17664216519728" width="395.52"><g><svg viewBox="0 0 593.7955238721256 169.91247857142855" height="113.17664216519728" width="395.52"><g><rect width="4.684131632125715" height="169.91247857142855" x="181.3292675485714" y="0" fill="#152232" opacity="1" stroke-width="0" stroke="transparent" fill-opacity="1" class="rect-o-0" data-fill-palette-color="primary" rx="1%" id="o-0" data-palette-color="#152232"></rect></g><g transform="matrix(1,0,0,1,198.2755238721257,0.42266785714285504)"><svg viewBox="0 0 395.52 169.06714285714284" height="169.06714285714284" width="395.52"><g id="textblocktransform"><svg viewBox="0 0 395.52 169.06714285714284" height="169.06714285714284" width="395.52" id="textblock"><g><svg viewBox="0 0 395.52 169.06714285714284" height="169.06714285714284" width="395.52"><g transform="matrix(1,0,0,1,0,0)"><svg width="395.52" viewBox="0.35000038146972656 -34.79999923706055 272.04998779296875 111.90000915527344" height="169.06714285714284" data-palette-color="#152232"><svg></svg><svg></svg><svg></svg><g class="wordmark-text-0" data-fill-palette-color="primary" id="text-0"><path xmlns="http://www.w3.org/2000/svg" d="M16.25-9.8h0.25l7.85-24.5h7.4l-11.3 34.3h-8.85l-11.25-34.3h8.1zM35.75-28.15v-6.15h15.8v6.15h-4v22h4v6.15h-15.8v-6.15h4.05v-22zM65.7-13.6c0 2.533 0.683 4.49 2.05 5.87 1.367 1.387 3.1 2.08 5.2 2.08v0c2.367 0 4.117-0.643 5.25-1.93 1.133-1.28 1.7-3.253 1.7-5.92v0h7.05c0 2.933-0.59 5.457-1.77 7.57-1.187 2.12-2.813 3.72-4.88 4.8-2.067 1.087-4.4 1.63-7 1.63v0h-0.7c-2.867 0-5.433-0.583-7.7-1.75-2.267-1.167-4.05-2.893-5.35-5.18-1.3-2.28-1.95-5.037-1.95-8.27v0-4.9c0-3.133 0.65-5.85 1.95-8.15 1.3-2.3 3.077-4.05 5.33-5.25 2.247-1.2 4.753-1.8 7.52-1.8v0h0.7c2.667 0 5.043 0.523 7.13 1.57 2.08 1.053 3.72 2.637 4.92 4.75 1.2 2.12 1.8 4.713 1.8 7.78v0h-7.35c0-2.6-0.573-4.577-1.72-5.93-1.153-1.347-2.813-2.02-4.98-2.02v0c-2.1 0-3.823 0.69-5.17 2.07-1.353 1.387-2.03 3.347-2.03 5.88v0zM116.8-28.1h-9.7v28.1h-7.65v-28.1h-9.75v-6.2h27.1zM150.2-14.7c0 3.133-0.683 5.85-2.05 8.15-1.367 2.3-3.207 4.05-5.52 5.25-2.32 1.2-4.897 1.8-7.73 1.8v0c-2.833 0-5.41-0.6-7.73-1.8-2.313-1.2-4.153-2.95-5.52-5.25-1.367-2.3-2.05-5.017-2.05-8.15v0-4.9c0-3.133 0.683-5.85 2.05-8.15 1.367-2.3 3.207-4.05 5.52-5.25 2.32-1.2 4.897-1.8 7.73-1.8v0c2.833 0 5.41 0.6 7.73 1.8 2.313 1.2 4.153 2.95 5.52 5.25 1.367 2.3 2.05 5.017 2.05 8.15v0zM142.1-20.7c0-2.533-0.667-4.493-2-5.88-1.333-1.38-3.067-2.07-5.2-2.07v0c-2.133 0-3.867 0.69-5.2 2.07-1.333 1.387-2 3.347-2 5.88v0 7.1c0 2.533 0.667 4.49 2 5.87 1.333 1.387 3.067 2.08 5.2 2.08v0c2.133 0 3.867-0.693 5.2-2.08 1.333-1.38 2-3.337 2-5.87v0zM185-0.3c-1.1 0.433-2.533 0.65-4.3 0.65v0c-1.7 0-3.083-0.417-4.15-1.25-1.067-0.833-1.6-2.233-1.6-4.2v0c0-2.867-0.377-5.1-1.13-6.7-0.747-1.6-2.153-2.4-4.22-2.4v0h-5.8v14.2h-7.6v-34.3h15.35c3.267 0 6.01 0.667 8.23 2 2.213 1.333 3.32 3.5 3.32 6.5v0c0 1.2-0.267 2.383-0.8 3.55-0.533 1.167-1.277 2.167-2.23 3-0.947 0.833-1.987 1.35-3.12 1.55v0 0.25c1.467 0.467 2.75 1.467 3.85 3 1.1 1.533 1.65 3.583 1.65 6.15v0c0 3.667 0.85 5.767 2.55 6.3v0zM171.3-20.25c1.1 0 2.043-0.367 2.83-1.1 0.78-0.733 1.17-1.617 1.17-2.65v0-0.35c0-1.1-0.373-2.01-1.12-2.73-0.753-0.713-1.713-1.07-2.88-1.07v0h-7.5v7.9zM217.35-34.3l-11.7 21.15v13.15h-7.7v-13.15l-11.75-21.15h8.7l7.15 13.6h0.25l7.15-13.6z" fill="#152232" fill-rule="nonzero" stroke="none" stroke-width="1" stroke-linecap="butt" stroke-linejoin="miter" stroke-miterlimit="10" stroke-dasharray="" stroke-dashoffset="0" font-family="none" font-weight="none" font-size="none" text-anchor="none" style="mix-blend-mode: normal" data-fill-palette-color="primary" opacity="1"></path><path xmlns="http://www.w3.org/2000/svg" d="M26.8 4l-0.8 6.15h-14.8v8.2h13.3v6.15h-13.3v13.8h-7.6v-34.3zM31.75 10.15v-6.15h15.8v6.15h-4v22h4v6.15h-15.8v-6.15h4.05v-22zM75.55 38.3l-10.75-15.8c-0.367-0.533-0.867-1.327-1.5-2.38-0.633-1.047-1.05-1.737-1.25-2.07v0l-0.2 0.15v20.1h-7.05v-34.3h6.55l10.8 15.9 1.5 2.35c0.533 0.933 0.95 1.617 1.25 2.05v0l0.15-0.15v-20.15h7.05v34.3zM111.85 38.3l-2.5-6.75h-13.65l-2.4 6.75h-7.45l12.45-34.3h9.2l12.45 34.3zM102.45 12.25l-4.65 13.45h9.5c-1.267-3.767-2.8-8.25-4.6-13.45v0zM144.4 38.3l-10.75-15.8c-0.367-0.533-0.867-1.327-1.5-2.38-0.633-1.047-1.05-1.737-1.25-2.07v0l-0.2 0.15v20.1h-7.05v-34.3h6.55l10.8 15.9 1.5 2.35c0.533 0.933 0.95 1.617 1.25 2.05v0l0.15-0.15v-20.15h7.05v34.3zM165.1 24.7c0 2.533 0.683 4.49 2.05 5.87 1.367 1.387 3.1 2.08 5.2 2.08v0c2.367 0 4.117-0.643 5.25-1.93 1.133-1.28 1.7-3.253 1.7-5.92v0h7.05c0 2.933-0.59 5.457-1.77 7.57-1.187 2.12-2.813 3.72-4.88 4.8-2.067 1.087-4.4 1.63-7 1.63v0h-0.7c-2.867 0-5.433-0.583-7.7-1.75-2.267-1.167-4.05-2.893-5.35-5.18-1.3-2.28-1.95-5.037-1.95-8.27v0-4.9c0-3.133 0.65-5.85 1.95-8.15 1.3-2.3 3.077-4.05 5.33-5.25 2.247-1.2 4.753-1.8 7.52-1.8v0h0.7c2.667 0 5.043 0.523 7.13 1.57 2.08 1.053 3.72 2.637 4.92 4.75 1.2 2.12 1.8 4.713 1.8 7.78v0h-7.35c0-2.6-0.573-4.577-1.72-5.93-1.153-1.347-2.813-2.02-4.98-2.02v0c-2.1 0-3.823 0.69-5.17 2.07-1.353 1.387-2.03 3.347-2.03 5.88v0zM192.35 10.15v-6.15h15.8v6.15h-4v22h4v6.15h-15.8v-6.15h4.05v-22zM237.9 38.3l-2.5-6.75h-13.65l-2.4 6.75h-7.45l12.45-34.3h9.2l12.45 34.3zM228.5 12.25l-4.65 13.45h9.5c-1.267-3.767-2.8-8.25-4.6-13.45v0zM272.4 38.3h-22.7v-34.3h7.75v27.9h14.1z" fill="#152232" fill-rule="nonzero" stroke="none" stroke-width="1" stroke-linecap="butt" stroke-linejoin="miter" stroke-miterlimit="10" stroke-dasharray="" stroke-dashoffset="0" font-family="none" font-weight="none" font-size="none" text-anchor="none" style="mix-blend-mode: normal" data-fill-palette-color="primary" opacity="1"></path><path xmlns="http://www.w3.org/2000/svg" d="M10.5 63c0 2.533 0.693 4.49 2.08 5.87 1.38 1.387 3.12 2.08 5.22 2.08v0c2.067 0 3.683-0.617 4.85-1.85 1.167-1.233 1.75-3.083 1.75-5.55v0h-7.75v-5.6h15v11.85c0 1.667 0.043 3.133 0.13 4.4 0.08 1.267 0.137 2.067 0.17 2.4v0h-4.25c-0.433-1.2-0.833-2.483-1.2-3.85v0c-1.067 1.367-2.457 2.433-4.17 3.2-1.72 0.767-3.547 1.15-5.48 1.15v0h-0.25c-2.733 0-5.173-0.617-7.32-1.85-2.153-1.233-3.837-3-5.05-5.3-1.22-2.3-1.83-4.983-1.83-8.05v0-4.9c0-3.067 0.633-5.75 1.9-8.05 1.267-2.3 3.043-4.067 5.33-5.3 2.28-1.233 4.87-1.85 7.77-1.85v0h0.7c2.5 0 4.783 0.523 6.85 1.57 2.067 1.053 3.7 2.537 4.9 4.45 1.2 1.92 1.8 4.147 1.8 6.68v0h-7.3c0-2.167-0.633-3.8-1.9-4.9-1.267-1.1-2.867-1.65-4.8-1.65v0c-2.1 0-3.817 0.69-5.15 2.07-1.333 1.387-2 3.347-2 5.88v0zM67.35 76.3c-1.1 0.433-2.533 0.65-4.3 0.65v0c-1.7 0-3.083-0.417-4.15-1.25-1.067-0.833-1.6-2.233-1.6-4.2v0c0-2.867-0.373-5.1-1.12-6.7-0.753-1.6-2.163-2.4-4.23-2.4v0h-5.8v14.2h-7.6v-34.3h15.35c3.267 0 6.01 0.667 8.23 2 2.213 1.333 3.32 3.5 3.32 6.5v0c0 1.2-0.267 2.383-0.8 3.55-0.533 1.167-1.273 2.167-2.22 3-0.953 0.833-1.997 1.35-3.13 1.55v0 0.25c1.467 0.467 2.75 1.467 3.85 3 1.1 1.533 1.65 3.583 1.65 6.15v0c0 3.667 0.85 5.767 2.55 6.3v0zM53.65 56.35c1.1 0 2.043-0.367 2.83-1.1 0.78-0.733 1.17-1.617 1.17-2.65v0-0.35c0-1.1-0.373-2.01-1.12-2.73-0.753-0.713-1.713-1.07-2.88-1.07v0h-7.5v7.9zM101.2 61.9c0 3.133-0.683 5.85-2.05 8.15-1.367 2.3-3.207 4.05-5.52 5.25-2.32 1.2-4.897 1.8-7.73 1.8v0c-2.833 0-5.407-0.6-7.72-1.8-2.32-1.2-4.163-2.95-5.53-5.25-1.367-2.3-2.05-5.017-2.05-8.15v0-4.9c0-3.133 0.683-5.85 2.05-8.15 1.367-2.3 3.21-4.05 5.53-5.25 2.313-1.2 4.887-1.8 7.72-1.8v0c2.833 0 5.41 0.6 7.73 1.8 2.313 1.2 4.153 2.95 5.52 5.25 1.367 2.3 2.05 5.017 2.05 8.15v0zM93.1 55.9c0-2.533-0.667-4.493-2-5.88-1.333-1.38-3.067-2.07-5.2-2.07v0c-2.133 0-3.867 0.69-5.2 2.07-1.333 1.387-2 3.347-2 5.88v0 7.1c0 2.533 0.667 4.49 2 5.87 1.333 1.387 3.067 2.08 5.2 2.08v0c2.133 0 3.867-0.693 5.2-2.08 1.333-1.38 2-3.337 2-5.87v0zM134.05 65.7c0 2.267-0.533 4.267-1.6 6-1.067 1.733-2.583 3.067-4.55 4-1.967 0.933-4.233 1.4-6.8 1.4v0h-1.4c-2.567 0-4.827-0.467-6.78-1.4-1.947-0.933-3.453-2.267-4.52-4-1.067-1.733-1.6-3.733-1.6-6v0-23.4h7.7v23.25c0 1.567 0.557 2.867 1.67 3.9 1.12 1.033 2.547 1.55 4.28 1.55v0c1.767 0 3.19-0.51 4.27-1.53 1.087-1.013 1.63-2.32 1.63-3.92v0-23.25h7.7zM148.55 63.35v13.25h-7.7v-34.3h16.55c1.867 0 3.59 0.44 5.17 1.32 1.587 0.887 2.847 2.113 3.78 3.68 0.933 1.567 1.4 3.317 1.4 5.25v0 0.3c0 1.9-0.457 3.657-1.37 5.27-0.92 1.62-2.17 2.897-3.75 3.83-1.587 0.933-3.33 1.4-5.23 1.4v0zM148.55 48.45v8.85h7.05c1.267 0 2.317-0.427 3.15-1.28 0.833-0.847 1.25-1.837 1.25-2.97v0-0.3c0-1.167-0.407-2.177-1.22-3.03-0.82-0.847-1.88-1.27-3.18-1.27v0z" fill="#152232" fill-rule="nonzero" stroke="none" stroke-width="1" stroke-linecap="butt" stroke-linejoin="miter" stroke-miterlimit="10" stroke-dasharray="" stroke-dashoffset="0" font-family="none" font-weight="none" font-size="none" text-anchor="none" style="mix-blend-mode: normal" data-fill-palette-color="primary" opacity="1"></path></g></svg></g></svg></g></svg></g></svg></g><g transform="matrix(1,0,0,1,0,0.42266785714285504)"><svg viewBox="0 0 169.06714285714284 169.06714285714284" height="169.06714285714284" width="169.06714285714284"><g><svg xmlns="http://www.w3.org/2000/svg" xmlns:xlink="http://www.w3.org/1999/xlink" version="1.1" baseProfile="tiny" x="0" y="0" viewBox="0 0 100 100" xml:space="preserve" height="169.06714285714284" width="169.06714285714284" class="icon-icon-0" data-fill-palette-color="accent" id="icon-0"><path d="M100 52.993v-6.004H53.466v-3.947h45.905c0 0-3.666-37.641-41.991-42.47v34.642h31.661c0 0-5.333-14.49-13.331-17.821v11.992H63.546V8.566c0 0 22.161 3.165 29.327 29.313l-39.407-0.232V0h-6.005v37.611L8.058 37.379c0 0 5.331-23.317 29.826-29.812l-0.333 21.818H25.554V17.061c0 0-9.998 4.996-13.997 18.154H43.05V0.739c0 0-37.326 5.496-42.491 42.303h46.902v3.947H0v6.004h47.461v4.537H0.642c5.166 36.806 42.492 42.302 42.492 42.302V65.357H11.64c3.999 13.158 13.997 18.154 13.997 18.154V71.187h11.998l0.333 21.818C13.473 86.51 8.141 63.192 8.141 63.192l39.32-0.231v36.988h6.005V62.925l39.49-0.231c-7.165 26.147-29.327 29.313-29.327 29.313V71.187h12.165v11.991c7.998-3.33 13.33-17.819 13.33-17.819H57.463V100c38.326-4.829 41.992-42.47 41.992-42.47H53.466v-4.537H100z" fill="#5ebc67" data-fill-palette-color="accent"></path></svg></g></svg></g></svg></g><defs></defs></svg><rect width="395.52" height="113.17664216519728" fill="none" stroke="none" visibility="hidden"></rect></g></svg></g></svg>