<svg xmlns="http://www.w3.org/2000/svg" version="1.1" xmlns:xlink="http://www.w3.org/1999/xlink" xmlns:svgjs="http://svgjs.dev/svgjs" width="1000" height="1000" viewBox="0 0 1000 1000"><rect width="1000" height="1000" fill="#a437db"></rect><g transform="matrix(0.7,0,0,0.7,149.57575757575756,448.61688393429466)"><svg viewBox="0 0 396 59" data-background-color="#a437db" preserveAspectRatio="xMidYMid meet" height="148" width="1000" xmlns="http://www.w3.org/2000/svg" xmlns:xlink="http://www.w3.org/1999/xlink"><g id="tight-bounds" transform="matrix(1,0,0,1,0.2400000000000091,-0.23741459578559443)"><svg viewBox="0 0 395.52 59.47473016835609" height="59.47473016835609" width="395.52"><g><svg viewBox="0 0 479.3603113708552 72.08187998634904" height="59.47473016835609" width="395.52"><g transform="matrix(1,0,0,1,83.8403113708552,26.079375594839938)"><svg viewBox="0 0 395.52 19.923128796669165" height="19.923128796669165" width="395.52"><g id="textblocktransform"><svg viewBox="0 0 395.52 19.923128796669165" height="19.923128796669165" width="395.52" id="textblock"><g><svg viewBox="0 0 395.52 19.923128796669165" height="19.923128796669165" width="395.52"><g transform="matrix(1,0,0,1,0,0)"><svg width="395.52" viewBox="1.5 -35.9 732.49 36.9" height="19.923128796669165" data-palette-color="#ffffff"><path d="M1.5-2.4L1.5-2.4 2.2-8.9 3.9-8.8Q3.9-6.05 7.18-4.38 10.45-2.7 14.63-2.7 18.8-2.7 20.9-3.98 23-5.25 23-7.2L23-7.2Q23-10.5 19.5-13.1L19.5-13.1Q18.05-14.15 16.45-14.95L16.45-14.95Q12.8-16.85 11.88-17.38 10.95-17.9 9.8-18.45 8.65-19 7.68-19.63 6.7-20.25 5.6-21.15L5.6-21.15Q3.1-23.15 3.1-25.63 3.1-28.1 3.98-29.95 4.85-31.8 6.18-32.85 7.5-33.9 9.3-34.6L9.3-34.6Q12.35-35.7 16.13-35.7 19.9-35.7 23.4-33.8L23.4-33.8 22.8-28 21.1-28Q21.1-32.7 13.2-32.7L13.2-32.7Q9.55-32.7 7.73-31.55 5.9-30.4 5.9-28.4L5.9-28.4Q5.9-25.2 16.3-20.7L16.3-20.7Q23.15-17.75 25.05-14.15L25.05-14.15Q26-12.35 26-10.2L26-10.2Q26-5 21.83-2.15 17.65 0.7 11.75 0.7 5.85 0.7 1.5-2.4ZM63.55-1.4L63.55 0 50.75 0 50.75-1.4 52.35-1.4Q54.55-1.4 54.55-2.8L54.55-2.8Q54.55-3 54.05-4.5L54.05-4.5 50.65-13.4 38.05-13.4 34.75-4.9Q34.75-4.8 34.4-3.68 34.05-2.55 34.05-2.13 34.05-1.7 34.6-1.55 35.15-1.4 36.95-1.4L36.95-1.4 37.75-1.4 37.75 0 27.95 0 27.95-1.4 28.65-1.4Q30.3-1.4 31.05-1.98 31.8-2.55 32.35-3.9L32.35-3.9 43.35-32.6Q43.6-32.65 44.25-33.33 44.9-34 45.45-34.73 46-35.45 46-35.55 46-35.65 45.95-35.7L45.95-35.7 46.65-35.9 58.95-3.7Q59.5-2.55 60.07-1.98 60.65-1.4 61.75-1.4L61.75-1.4 63.55-1.4ZM38.85-15.5L49.75-15.5 44.35-29.8 38.85-15.5ZM76.15-15.7L75.75-17.7 78.15-17.6Q81.9-17.6 85.05-18.8L85.05-18.8Q86.9-19.5 88.02-21 89.15-22.5 89.15-24.7L89.15-24.7Q89.15-32.6 79.65-32.6L79.65-32.6 74.45-32.4 74.45-3.6Q74.45-2.9 74.55-2.5 74.65-2.1 75.2-1.75 75.75-1.4 76.84-1.4L76.84-1.4 78.75-1.4 78.75 0 66.05 0 66.05-1.4 67.64-1.4Q68.75-1.4 69.3-1.75 69.84-2.1 69.95-2.5 70.05-2.9 70.05-3.6L70.05-3.6 70.05-31.3Q70.05-32.45 69.57-32.98 69.09-33.5 67.64-33.5L67.64-33.5 66.05-33.5 66.05-35 73.75-35 83.25-35.5Q87.75-35.5 90.5-33.55 93.25-31.6 93.25-28.08 93.25-24.55 91.62-21.93 90-19.3 87.59-18L87.59-18Q83.05-15.6 79.45-15.6L79.45-15.6Q77.34-15.6 76.15-15.7L76.15-15.7ZM106.34-15.7L105.94-17.7 108.34-17.6Q112.09-17.6 115.24-18.8L115.24-18.8Q117.09-19.5 118.22-21 119.34-22.5 119.34-24.7L119.34-24.7Q119.34-32.6 109.84-32.6L109.84-32.6 104.64-32.4 104.64-3.6Q104.64-2.9 104.74-2.5 104.84-2.1 105.39-1.75 105.94-1.4 107.04-1.4L107.04-1.4 108.94-1.4 108.94 0 96.24 0 96.24-1.4 97.84-1.4Q98.94-1.4 99.49-1.75 100.04-2.1 100.14-2.5 100.24-2.9 100.24-3.6L100.24-3.6 100.24-31.3Q100.24-32.45 99.77-32.98 99.29-33.5 97.84-33.5L97.84-33.5 96.24-33.5 96.24-35 103.94-35 113.44-35.5Q117.94-35.5 120.69-33.55 123.44-31.6 123.44-28.08 123.44-24.55 121.82-21.93 120.19-19.3 117.79-18L117.79-18Q113.24-15.6 109.64-15.6L109.64-15.6Q107.54-15.6 106.34-15.7L106.34-15.7ZM162.94-1.4L162.94 0 150.24 0 150.24-1.4 151.84-1.4Q152.94-1.4 153.49-1.78 154.04-2.15 154.14-2.55 154.24-2.95 154.24-3.7L154.24-3.7 154.24-17.1 134.84-17.1 134.84-3.7Q134.84-2.6 135.29-2 135.74-1.4 137.24-1.4L137.24-1.4 139.14-1.4 139.14 0 126.44 0 126.44-1.4 128.14-1.4Q129.64-1.4 130.09-2 130.54-2.6 130.54-3.7L130.54-3.7 130.54-31.3Q130.54-32.4 130.09-33 129.64-33.6 128.14-33.6L128.14-33.6 126.44-33.6 126.44-35 139.14-35 139.14-33.6 137.24-33.6Q135.74-33.6 135.29-33 134.84-32.4 134.84-31.3L134.84-31.3 134.84-19.3 154.24-19.3 154.24-31.3Q154.24-32.05 154.14-32.45 154.04-32.85 153.49-33.23 152.94-33.6 151.84-33.6L151.84-33.6 150.24-33.6 150.24-35 162.94-35 162.94-33.6 161.04-33.6Q159.94-33.6 159.39-33.23 158.84-32.85 158.74-32.45 158.64-32.05 158.64-31.3L158.64-31.3 158.64-3.7Q158.64-2.95 158.74-2.55 158.84-2.15 159.39-1.78 159.94-1.4 161.04-1.4L161.04-1.4 162.94-1.4ZM179.64-1.4L179.64 0 166.94 0 166.94-1.4 168.64-1.4Q170.14-1.4 170.59-2 171.04-2.6 171.04-3.7L171.04-3.7 171.04-31.3Q171.04-32.4 170.59-33 170.14-33.6 168.64-33.6L168.64-33.6 166.94-33.6 166.94-35 179.64-35 179.64-33.6 177.74-33.6Q176.24-33.6 175.79-33 175.34-32.4 175.34-31.3L175.34-31.3 175.34-3.7Q175.34-2.6 175.79-2 176.24-1.4 177.74-1.4L177.74-1.4 179.64-1.4ZM183.63-35L191.33-35 200.83-35.5Q205.23-35.5 208.03-33.65 210.83-31.8 210.83-28.6L210.83-28.6Q210.83-24.15 208.44-21.35 206.03-18.55 202.53-17.1L202.53-17.1 210.63-4.9Q211.13-4.1 212.56-2.75 213.98-1.4 215.13-1.4L215.13-1.4 216.03-1.4 216.03 0 208.63 0Q208.78 0 207.69-1.5 206.58-3 206.44-3.3L206.44-3.3 198.13-16.1Q197.63-16 196.13-16 194.63-16 193.73-16.1L193.73-16.1 193.33-18.1Q194.03-18 196.33-18 198.63-18 200.94-18.6 203.23-19.2 204.98-20.88 206.73-22.55 206.73-25.2L206.73-25.2Q206.73-32.6 197.23-32.6L197.23-32.6 192.03-32.4 192.03-3.7Q192.03-2.95 192.13-2.55 192.23-2.15 192.78-1.78 193.33-1.4 194.44-1.4L194.44-1.4 196.33-1.4 196.33 0 183.63 0 183.63-1.4 185.23-1.4Q186.33-1.4 186.88-1.78 187.44-2.15 187.53-2.55 187.63-2.95 187.63-3.7L187.63-3.7 187.63-31.3Q187.63-32.45 187.16-32.98 186.69-33.5 185.23-33.5L185.23-33.5 183.63-33.5 183.63-35ZM247.43-6.9L245.73 0 218.93 0 218.93-1.4 220.63-1.4Q222.08-1.4 222.56-1.95 223.03-2.5 223.03-3.7L223.03-3.7 223.03-31.3Q223.03-32.3 222.41-32.95 221.78-33.6 220.63-33.6L220.63-33.6 218.93-33.6 218.93-35 245.33-35 245.73-28.1 244.33-27.8Q244.33-29.6 242.88-31.25 241.43-32.9 238.83-32.9L238.83-32.9 229.73-32.9Q228.23-32.9 227.78-32.33 227.33-31.75 227.33-30.7L227.33-30.7 227.33-19.3 237.33-19.3Q238.08-19.3 238.48-19.38 238.88-19.45 239.21-19.9 239.53-20.35 239.53-21.2L239.53-21.2 239.53-23.5 241.03-23.5 241.03-13.1 239.53-13.1 239.53-15.2Q239.53-16.45 238.98-16.82 238.43-17.2 237.33-17.2L237.33-17.2 227.33-17.2 227.33-4.3Q227.33-3.25 227.78-2.68 228.23-2.1 229.73-2.1L229.73-2.1 239.23-2.1Q241.88-2.1 243.91-3.8 245.93-5.5 246.03-7.1L246.03-7.1 247.43-6.9ZM276.13-1.4L276.13 0 263.43 0 263.43-1.4 265.13-1.4Q266.63-1.4 267.08-2 267.53-2.6 267.53-3.7L267.53-3.7 267.53-31.3Q267.53-32.4 267.08-33 266.63-33.6 265.13-33.6L265.13-33.6 263.43-33.6 263.43-35 276.13-35 276.13-33.6 274.23-33.6Q272.73-33.6 272.28-33 271.83-32.4 271.83-31.3L271.83-31.3 271.83-3.7Q271.83-2.6 272.28-2 272.73-1.4 274.23-1.4L274.23-1.4 276.13-1.4ZM309.23 0.8L309.23 0.8 287.13-28.8 287.13-3.7Q287.13-1.5 290.23-1.5L290.23-1.5 292.13-1.5 292.13 0 280.13 0 280.13-1.5 281.73-1.5Q284.82-1.5 284.82-3.7L284.82-3.7 284.82-31.3Q284.82-33.5 281.73-33.5L281.73-33.5 280.13-33.5 280.13-35 288.02-35 308.63-7.3 308.63-31.3Q308.63-33.5 305.63-33.5L305.63-33.5 303.93-33.5 303.93-35 315.93-35 315.93-33.5 314.02-33.5Q310.93-33.5 310.93-31.3L310.93-31.3 310.93-0.2Q310.38-0.2 309.75 0.28 309.13 0.75 309.23 0.8ZM336.12 0.7L336.12 0.7 335.32 1 323.02-31.3Q322.57-32.4 322-32.95 321.42-33.5 320.32-33.5L320.32-33.5 318.62-33.5 318.62-35 331.32-35 331.32-33.5 329.62-33.5Q327.52-33.5 327.52-32.2L327.52-32.2Q327.52-31.6 328.02-30.4L328.02-30.4 337.72-5.2 347.72-31.2 348.22-32.7Q348.22-33.2 347.62-33.35 347.02-33.5 345.22-33.5L345.22-33.5 344.12-33.5 344.12-35 354.02-35 354.02-33.5 353.42-33.5Q351.72-33.5 350.95-32.95 350.17-32.4 349.72-31L349.72-31 338.72-2.4Q336.92-1.1 336.12 0.7ZM383.62-6.9L381.92 0 355.12 0 355.12-1.4 356.82-1.4Q358.27-1.4 358.75-1.95 359.22-2.5 359.22-3.7L359.22-3.7 359.22-31.3Q359.22-32.3 358.6-32.95 357.97-33.6 356.82-33.6L356.82-33.6 355.12-33.6 355.12-35 381.52-35 381.92-28.1 380.52-27.8Q380.52-29.6 379.07-31.25 377.62-32.9 375.02-32.9L375.02-32.9 365.92-32.9Q364.42-32.9 363.97-32.33 363.52-31.75 363.52-30.7L363.52-30.7 363.52-19.3 373.52-19.3Q374.27-19.3 374.67-19.38 375.07-19.45 375.39-19.9 375.72-20.35 375.72-21.2L375.72-21.2 375.72-23.5 377.22-23.5 377.22-13.1 375.72-13.1 375.72-15.2Q375.72-16.45 375.17-16.82 374.62-17.2 373.52-17.2L373.52-17.2 363.52-17.2 363.52-4.3Q363.52-3.25 363.97-2.68 364.42-2.1 365.92-2.1L365.92-2.1 375.42-2.1Q378.07-2.1 380.1-3.8 382.12-5.5 382.22-7.1L382.22-7.1 383.62-6.9ZM386.62-2.4L386.62-2.4 387.32-8.9 389.02-8.8Q389.02-6.05 392.29-4.38 395.57-2.7 399.74-2.7 403.92-2.7 406.02-3.98 408.12-5.25 408.12-7.2L408.12-7.2Q408.12-10.5 404.62-13.1L404.62-13.1Q403.17-14.15 401.57-14.95L401.57-14.95Q397.92-16.85 396.99-17.38 396.07-17.9 394.92-18.45 393.77-19 392.79-19.63 391.82-20.25 390.72-21.15L390.72-21.15Q388.22-23.15 388.22-25.63 388.22-28.1 389.09-29.95 389.97-31.8 391.29-32.85 392.62-33.9 394.42-34.6L394.42-34.6Q397.47-35.7 401.24-35.7 405.02-35.7 408.52-33.8L408.52-33.8 407.92-28 406.22-28Q406.22-32.7 398.32-32.7L398.32-32.7Q394.67-32.7 392.84-31.55 391.02-30.4 391.02-28.4L391.02-28.4Q391.02-25.2 401.42-20.7L401.42-20.7Q408.27-17.75 410.17-14.15L410.17-14.15Q411.12-12.35 411.12-10.2L411.12-10.2Q411.12-5 406.94-2.15 402.77 0.7 396.87 0.7 390.97 0.7 386.62-2.4ZM434.31-1.4L434.31 0 421.31 0 421.31-1.4 423.31-1.4Q424.81-1.4 425.22-1.98 425.62-2.55 425.62-3.6L425.62-3.6 425.62-30.6Q425.62-31.35 425.51-31.78 425.42-32.2 424.89-32.55 424.37-32.9 423.31-32.9L423.31-32.9 420.31-32.9Q417.67-32.9 416.24-31.28 414.81-29.65 414.72-27.8L414.72-27.8 413.31-28.1 413.81-35 441.92-35 442.42-28.1 441.01-27.8Q440.92-29.6 439.47-31.25 438.01-32.9 435.42-32.9L435.42-32.9 432.42-32.9Q431.31-32.9 430.76-32.52 430.22-32.15 430.12-31.75 430.01-31.35 430.01-30.6L430.01-30.6 430.01-3.6Q430.01-2.9 430.12-2.5 430.22-2.1 430.76-1.75 431.31-1.4 432.42-1.4L432.42-1.4 434.31-1.4ZM477.71-29.9L466.51-0.5Q466.46-0.5 466.26-0.5 466.06-0.5 464.71 0.5L464.71 0.5 453.21-29.6 450.81-3.4Q450.71-2.6 451.56-2.05 452.41-1.5 453.91-1.5L453.91-1.5 456.01-1.5 456.01 0 444.01 0 444.01-1.5 445.61-1.5Q448.51-1.5 448.71-3.7L448.71-3.7 451.21-31.3Q451.31-32.25 450.54-32.88 449.76-33.5 448.11-33.5L448.11-33.5 446.51-33.5 446.51-35 455.91-35 466.61-6.8 477.41-35 486.41-35 486.41-33.6 484.41-33.6Q482.01-33.6 482.01-31.75L482.01-31.75Q482.01-31.6 482.01-31.4L482.01-31.4 484.31-3.7Q484.41-2.55 484.89-2.02 485.36-1.5 486.61-1.5L486.61-1.5 488.61-1.5 488.61 0 475.81 0 475.81-1.5 477.51-1.5Q478.91-1.5 479.41-1.95 479.91-2.4 479.91-2.93 479.91-3.45 479.91-3.7L479.91-3.7 477.71-29.9ZM520.01-6.9L518.31 0 491.51 0 491.51-1.4 493.21-1.4Q494.66-1.4 495.14-1.95 495.61-2.5 495.61-3.7L495.61-3.7 495.61-31.3Q495.61-32.3 494.99-32.95 494.36-33.6 493.21-33.6L493.21-33.6 491.51-33.6 491.51-35 517.91-35 518.31-28.1 516.91-27.8Q516.91-29.6 515.46-31.25 514.01-32.9 511.41-32.9L511.41-32.9 502.31-32.9Q500.81-32.9 500.36-32.33 499.91-31.75 499.91-30.7L499.91-30.7 499.91-19.3 509.91-19.3Q510.66-19.3 511.06-19.38 511.46-19.45 511.79-19.9 512.11-20.35 512.11-21.2L512.11-21.2 512.11-23.5 513.61-23.5 513.61-13.1 512.11-13.1 512.11-15.2Q512.11-16.45 511.56-16.82 511.01-17.2 509.91-17.2L509.91-17.2 499.91-17.2 499.91-4.3Q499.91-3.25 500.36-2.68 500.81-2.1 502.31-2.1L502.31-2.1 511.81-2.1Q514.46-2.1 516.49-3.8 518.51-5.5 518.61-7.1L518.61-7.1 520.01-6.9ZM552.61 0.8L552.61 0.8 530.51-28.8 530.51-3.7Q530.51-1.5 533.61-1.5L533.61-1.5 535.51-1.5 535.51 0 523.51 0 523.51-1.5 525.11-1.5Q528.21-1.5 528.21-3.7L528.21-3.7 528.21-31.3Q528.21-33.5 525.11-33.5L525.11-33.5 523.51-33.5 523.51-35 531.41-35 552.01-7.3 552.01-31.3Q552.01-33.5 549.01-33.5L549.01-33.5 547.31-33.5 547.31-35 559.31-35 559.31-33.5 557.41-33.5Q554.31-33.5 554.31-31.3L554.31-31.3 554.31-0.2Q553.76-0.2 553.13 0.28 552.51 0.75 552.61 0.8ZM583.1-1.4L583.1 0 570.1 0 570.1-1.4 572.1-1.4Q573.6-1.4 574-1.98 574.4-2.55 574.4-3.6L574.4-3.6 574.4-30.6Q574.4-31.35 574.3-31.78 574.2-32.2 573.68-32.55 573.15-32.9 572.1-32.9L572.1-32.9 569.1-32.9Q566.45-32.9 565.03-31.28 563.6-29.65 563.5-27.8L563.5-27.8 562.1-28.1 562.6-35 590.7-35 591.2-28.1 589.8-27.8Q589.7-29.6 588.25-31.25 586.8-32.9 584.2-32.9L584.2-32.9 581.2-32.9Q580.1-32.9 579.55-32.52 579-32.15 578.9-31.75 578.8-31.35 578.8-30.6L578.8-30.6 578.8-3.6Q578.8-2.9 578.9-2.5 579-2.1 579.55-1.75 580.1-1.4 581.2-1.4L581.2-1.4 583.1-1.4ZM593.4-2.4L593.4-2.4 594.1-8.9 595.8-8.8Q595.8-6.05 599.08-4.38 602.35-2.7 606.53-2.7 610.7-2.7 612.8-3.98 614.9-5.25 614.9-7.2L614.9-7.2Q614.9-10.5 611.4-13.1L611.4-13.1Q609.95-14.15 608.35-14.95L608.35-14.95Q604.7-16.85 603.78-17.38 602.85-17.9 601.7-18.45 600.55-19 599.58-19.63 598.6-20.25 597.5-21.15L597.5-21.15Q595-23.15 595-25.63 595-28.1 595.88-29.95 596.75-31.8 598.08-32.85 599.4-33.9 601.2-34.6L601.2-34.6Q604.25-35.7 608.03-35.7 611.8-35.7 615.3-33.8L615.3-33.8 614.7-28 613-28Q613-32.7 605.1-32.7L605.1-32.7Q601.45-32.7 599.63-31.55 597.8-30.4 597.8-28.4L597.8-28.4Q597.8-25.2 608.2-20.7L608.2-20.7Q615.05-17.75 616.95-14.15L616.95-14.15Q617.9-12.35 617.9-10.2L617.9-10.2Q617.9-5 613.73-2.15 609.55 0.7 603.65 0.7 597.75 0.7 593.4-2.4ZM662.4-6.9L660.7 0 633.9 0 633.9-1.5 635.6-1.5Q637.1-1.5 637.55-2.05 638-2.6 638-3.7L638-3.7 638-31.3Q638-32.4 637.55-32.95 637.1-33.5 635.6-33.5L635.6-33.5 633.9-33.5 633.9-35 646.6-35 646.6-33.5 644.7-33.5Q643.2-33.5 642.75-32.95 642.3-32.4 642.3-31.3L642.3-31.3 642.3-4.4Q642.3-3.3 642.75-2.7 643.2-2.1 644.7-2.1L644.7-2.1 654.2-2.1Q656.85-2.1 658.87-3.83 660.9-5.55 660.9-7.2L660.9-7.2 662.4-6.9ZM679.79-1.4L679.79 0 666.79 0 666.79-1.4 668.79-1.4Q670.29-1.4 670.69-1.98 671.09-2.55 671.09-3.6L671.09-3.6 671.09-30.6Q671.09-31.35 670.99-31.78 670.89-32.2 670.37-32.55 669.84-32.9 668.79-32.9L668.79-32.9 665.79-32.9Q663.14-32.9 661.72-31.28 660.29-29.65 660.19-27.8L660.19-27.8 658.79-28.1 659.29-35 687.39-35 687.89-28.1 686.49-27.8Q686.39-29.6 684.94-31.25 683.49-32.9 680.89-32.9L680.89-32.9 677.89-32.9Q676.79-32.9 676.24-32.52 675.69-32.15 675.59-31.75 675.49-31.35 675.49-30.6L675.49-30.6 675.49-3.6Q675.49-2.9 675.59-2.5 675.69-2.1 676.24-1.75 676.79-1.4 677.89-1.4L677.89-1.4 679.79-1.4ZM707.29-32.2L698.99-31.7 698.99-4.5Q701.89-2.8 706.89-2.8L706.89-2.8Q712.84-2.8 717.39-6.05L717.39-6.05Q719.69-7.7 721.04-10.65 722.39-13.6 722.39-17.32 722.39-21.05 720.92-23.95 719.44-26.85 717.09-28.6L717.09-28.6Q712.34-32.2 707.29-32.2L707.29-32.2ZM690.59-35L698.29-35 710.69-35.5Q717.64-35.5 721.67-31 725.69-26.5 725.69-18.98 725.69-11.45 719.92-5.73 714.14 0 706.39 0L706.39 0 690.59 0 690.59-1.5 692.29-1.5Q693.79-1.5 694.24-2.05 694.69-2.6 694.69-3.7L694.69-3.7 694.69-31.3Q694.69-32.45 694.22-32.98 693.74-33.5 692.29-33.5L692.29-33.5 690.59-33.5 690.59-35ZM731.61-4.7Q732.74-4.7 733.36-3.9 733.99-3.1 733.99-1.95 733.99-0.8 733.04 0 732.09 0.8 730.96 0.8 729.84 0.8 729.21 0 728.59-0.8 728.59-1.9 728.59-3 729.54-3.85 730.49-4.7 731.61-4.7Z" opacity="1" transform="matrix(1,0,0,1,0,0)" fill="#ffffff" class="wordmark-text-0" data-fill-palette-color="primary" id="text-0"></path></svg></g></svg></g></svg></g></svg></g><g><svg viewBox="0 0 72.08187998634904 72.08187998634904" height="72.08187998634904" width="72.08187998634904"><g><svg viewBox="0 0 72.08187998634904 72.08187998634904" height="72.08187998634904" width="72.08187998634904"><g transform="matrix(1,0,0,1,21.99852086715213,19.051077946833757)"><svg viewBox="0 0 28.084838252044776 33.97972409268152" height="33.97972409268152" width="28.084838252044776"><g><svg xmlns="http://www.w3.org/2000/svg" xmlns:xlink="http://www.w3.org/1999/xlink" version="1.1" x="0" y="0" viewBox="14.106 7.9701212489994 71.13000000000001 86.0598787510006" enable-background="new 0 0 100 100" xml:space="preserve" height="33.97972409268152" width="28.084838252044776" class="icon-z$-0" data-fill-palette-color="accent" id="z$-0"><path d="M85.236 33.621c0-0.006-0.002-0.012-0.002-0.017-0.001-0.091-0.009-0.182-0.025-0.273-0.001-0.009-0.004-0.017-0.006-0.027-0.008-0.038-0.015-0.077-0.026-0.115-0.015-0.055-0.034-0.109-0.055-0.161L79.278 18.09c-0.003-0.006-0.007-0.01-0.008-0.016-0.029-0.071-0.063-0.141-0.104-0.207-0.007-0.013-0.013-0.025-0.021-0.038-0.042-0.067-0.09-0.131-0.142-0.193-0.012-0.013-0.022-0.025-0.033-0.038-0.02-0.021-0.037-0.043-0.058-0.063-0.033-0.033-0.069-0.064-0.104-0.094-0.007-0.005-0.013-0.011-0.02-0.017-0.062-0.05-0.128-0.094-0.195-0.133-0.01-0.006-0.019-0.014-0.028-0.019L65.247 9.8c-0.188-0.105-0.396-0.172-0.61-0.196L50.019 7.98c-0.117-0.013-0.233-0.013-0.348-0.001-0.116-0.012-0.235-0.012-0.352 0.002L35.026 9.605c-0.207 0.024-0.407 0.087-0.59 0.187l-14.294 7.797c-0.003 0.002-0.006 0.005-0.01 0.006-0.078 0.043-0.151 0.094-0.221 0.15-0.011 0.008-0.022 0.017-0.032 0.025-0.053 0.044-0.104 0.091-0.152 0.142-0.012 0.013-0.022 0.028-0.034 0.041-0.009 0.012-0.019 0.023-0.028 0.035-0.055 0.069-0.105 0.141-0.148 0.216-0.006 0.01-0.011 0.021-0.018 0.033-0.043 0.08-0.081 0.163-0.11 0.249-0.001 0.002-0.002 0.004-0.003 0.007l-5.197 15.594c-0.055 0.165-0.083 0.336-0.083 0.509v33.786c0 0.201 0.038 0.399 0.111 0.587l5.848 14.942c0.001 0.006 0.004 0.01 0.007 0.016 0.03 0.074 0.065 0.146 0.107 0.216 0.008 0.015 0.018 0.028 0.027 0.042 0.04 0.064 0.084 0.127 0.134 0.186 0.005 0.005 0.009 0.011 0.013 0.016 0.041 0.047 0.084 0.091 0.13 0.133 0.01 0.01 0.023 0.016 0.033 0.025 0.041 0.034 0.085 0.066 0.13 0.097 0.035 0.024 0.067 0.05 0.104 0.07 0.009 0.006 0.018 0.013 0.027 0.019L34.094 92.2c0.189 0.105 0.396 0.173 0.61 0.196l14.619 1.623c0.059 0.008 0.117 0.011 0.175 0.011 0.001 0 0.001 0 0.001 0 0 0 0 0 0.001 0l0 0h0.34c0.06 0 0.121-0.003 0.182-0.011l0.114-0.013c0.088 0.015 0.176 0.023 0.266 0.023 0.21 0 0.421-0.042 0.62-0.124l13.295-1.511c0.207-0.023 0.406-0.087 0.589-0.187l14.294-7.797c0.004-0.001 0.006-0.005 0.01-0.006 0.085-0.047 0.165-0.101 0.241-0.163 0 0 0-0.001 0.001-0.001 0.04-0.033 0.079-0.067 0.116-0.105 0.026-0.026 0.051-0.056 0.075-0.084 0.01-0.011 0.02-0.021 0.029-0.033 0.056-0.068 0.104-0.14 0.148-0.215 0.01-0.016 0.018-0.031 0.025-0.047 0.043-0.08 0.08-0.161 0.109-0.246 0-0.001 0-0.003 0.001-0.004l5.197-15.594c0.002-0.004 0.002-0.01 0.004-0.015 0.041-0.129 0.068-0.264 0.077-0.404 0-0.021 0-0.043 0-0.063 0-0.01 0.002-0.018 0.002-0.026V33.621zM79.131 75.796l-0.904-7.08 3.205 0.18L79.131 75.796zM39.743 81.896l9.936-3.91 9.21 3.525-8.991 9.125L39.743 81.896zM37.486 21.223l8.337 4.216-9.391 3.916L37.486 21.223zM81.477 32.547l-3.088 0.86 0.508-7.453L81.477 32.547zM82.016 43.505l-3.142-6.89 3.142-0.875V43.505zM49.626 74.483l-13.884-6.011-6.611-17.479 6.613-17.863L49.6 27.355l13.885 6.011 6.611 17.478-6.613 17.862L49.626 74.483zM27.459 46.231l-3.333-9.594 7.725-2.271L27.459 46.231zM27.502 55.796l4.421 11.686-7.774-1.677L27.502 55.796zM71.677 45.919l-4.284-11.326 7.201 2.068L71.677 45.919zM71.609 56.032l2.772 9.81-7.061 1.774L71.609 56.032zM73.496 50.863l3.406-10.809 4.955 10.869L76.73 62.308 73.496 50.863zM75.156 33.471l-8.938-2.566-1.188-9.688 11.014-0.799L75.156 33.471zM61.89 22.064l0.919 7.5-9.136-3.955L61.89 22.064zM33.014 30.666l-9.494 2.793-0.884-12.873 11.708-0.188L33.014 30.666zM21.891 40.02l3.818 10.99-3.753 11.202-4.503-11.864L21.891 40.02zM23.604 68.982l9.487 2.046 1.681 8.967-11.542 1.49L23.604 68.982zM37.894 79.161l-1.275-6.799 8.834 3.825L37.894 79.161zM60.678 78.747l-6.729-2.576 8.382-3.494L60.678 78.747zM66.056 71.256l8.96-2.252 1.551 12.135-12.761-1.617L66.056 71.256zM78.814 65.522l3.201-7.105v7.285L78.814 65.522zM63.956 12.77l8.358 4.689-8.61 0.625-8.498-6.286L63.956 12.77zM49.618 11.671l10.399 7.691-10.293 4.44-10.362-5.241L49.618 11.671zM35.703 12.77l7.828-0.889-7.851 5.274-8.259 0.132L35.703 12.77zM19.865 27.242l0.552 8.049-3.09 7.192v-7.626L19.865 27.242zM17.327 59.093l3.104 8.179-0.243 8.12-2.862-7.315V59.093zM26.593 84.299l9.57-1.235 8.342 7.181-9.12-1.014L26.593 84.299zM63.64 89.23l-8.823 1.003 7.536-7.648 10.931 1.386L63.64 89.23z" fill="#ffffff" data-fill-palette-color="accent"></path></svg></g></svg></g><g><path d="M4.102 27.954v0l-0.637-0.271 0.061-0.164c0.183 0.056 0.368-0.009 0.554-0.195 0.179-0.189 0.313-0.427 0.402-0.715 0.086-0.282 0.109-0.507 0.067-0.678-0.041-0.17-0.13-0.276-0.268-0.318v0c-0.223-0.068-0.459-0.008-0.71 0.18v0c-0.102 0.076-0.195 0.159-0.28 0.247v0c-0.207 0.209-0.337 0.341-0.39 0.396-0.057 0.047-0.114 0.105-0.171 0.174-0.063 0.067-0.128 0.126-0.194 0.177-0.059 0.053-0.131 0.11-0.213 0.171v0c-0.19 0.128-0.37 0.166-0.54 0.114-0.17-0.052-0.309-0.127-0.415-0.224-0.106-0.097-0.182-0.202-0.225-0.316-0.044-0.114-0.071-0.237-0.081-0.369v0c-0.008-0.232 0.027-0.475 0.105-0.73 0.078-0.255 0.217-0.485 0.415-0.689v0l0.572 0.239-0.054 0.177c-0.314-0.096-0.554 0.124-0.718 0.661v0c-0.076 0.249-0.094 0.447-0.054 0.596 0.04 0.148 0.126 0.243 0.257 0.283v0c0.223 0.068 0.593-0.205 1.111-0.821v0c0.345-0.403 0.659-0.633 0.941-0.689v0c0.144-0.027 0.289-0.019 0.433 0.025v0c0.354 0.108 0.585 0.336 0.693 0.685 0.104 0.34 0.094 0.709-0.028 1.109-0.122 0.399-0.333 0.714-0.633 0.945z" fill="#ffffff" data-fill-palette-color="accent"></path><path d="M6.662 21.553l0.141 0.061-0.547 1.252-0.142-0.062 0.07-0.16c0.063-0.144 0.051-0.236-0.037-0.274v0c-0.013-0.005-0.077-0.011-0.194-0.018v0l-1.01-0.049-0.539 1.233 0.688 0.682c0.006 0.003 0.043 0.03 0.11 0.082 0.064 0.058 0.109 0.093 0.134 0.103 0.025 0.011 0.052 0 0.081-0.031 0.02-0.029 0.056-0.103 0.108-0.222v0l0.033-0.075 0.142 0.061-0.417 0.951-0.141-0.062 0.029-0.066c0.047-0.107 0.065-0.192 0.056-0.256-0.016-0.067-0.061-0.135-0.135-0.204v0l-2.334-2.301c0.002-0.022-0.009-0.064-0.034-0.127-0.025-0.063-0.052-0.12-0.083-0.17-0.034-0.06-0.054-0.091-0.06-0.094-0.006-0.003-0.011-0.001-0.013 0.005v0l0.005-0.087 3.675 0.185c0.092-0.005 0.165-0.018 0.219-0.039 0.048-0.024 0.087-0.07 0.117-0.14v0zM4.234 23.36l0.465-1.063-1.623-0.083z" fill="#ffffff" data-fill-palette-color="accent"></path><path d="M6.158 19.367l-0.213-0.063 0.138-0.217c0.134-0.231 0.222-0.465 0.265-0.702v0c0.024-0.137 0.009-0.268-0.045-0.394-0.051-0.117-0.145-0.215-0.28-0.294v0c-0.486-0.282-0.897-0.133-1.234 0.448v0l-0.261 0.49 2.656 1.542c0.041 0.024 0.076 0.04 0.103 0.048 0.027 0.008 0.063 0.001 0.107-0.021 0.035-0.019 0.073-0.064 0.115-0.136v0l0.103-0.177 0.133 0.077-0.68 1.173-0.134-0.078 0.083-0.142c0.041-0.071 0.062-0.127 0.061-0.166-0.003-0.049-0.015-0.084-0.035-0.104-0.02-0.02-0.051-0.042-0.093-0.065v0l-2.558-1.485c-0.071-0.041-0.13-0.056-0.177-0.044-0.053 0.009-0.105 0.058-0.157 0.147v0l-0.082 0.142-0.133-0.077 0.412-0.711 0.461-0.896c0.162-0.278 0.35-0.466 0.564-0.563 0.218-0.103 0.437-0.091 0.656 0.036 0.213 0.124 0.374 0.284 0.481 0.481 0.101 0.194 0.148 0.387 0.139 0.579v0c-0.013 0.364-0.084 0.656-0.211 0.875v0c-0.076 0.13-0.137 0.229-0.184 0.297z" fill="#ffffff" data-fill-palette-color="accent"></path><path d="M8.155 16.284l-0.204-0.086 0.16-0.201c0.158-0.215 0.27-0.439 0.337-0.67v0c0.038-0.133 0.037-0.265-0.002-0.396-0.038-0.121-0.121-0.229-0.248-0.322v0c-0.453-0.332-0.878-0.227-1.274 0.314v0l-0.312 0.459 2.478 1.816c0.039 0.028 0.071 0.048 0.097 0.058 0.026 0.011 0.062 0.008 0.109-0.009 0.037-0.015 0.08-0.056 0.128-0.123v0l0.121-0.165 0.124 0.091-0.801 1.093-0.124-0.091 0.097-0.132c0.049-0.066 0.075-0.119 0.078-0.159 0.002-0.049-0.006-0.085-0.024-0.107-0.018-0.022-0.046-0.047-0.085-0.075v0l-2.386-1.749c-0.066-0.049-0.123-0.069-0.171-0.061-0.053 0.003-0.11 0.046-0.171 0.129v0l-0.098 0.132-0.124-0.091 0.486-0.663 0.554-0.842c0.19-0.26 0.397-0.426 0.621-0.5 0.228-0.079 0.444-0.044 0.648 0.106 0.199 0.146 0.341 0.322 0.427 0.529 0.08 0.203 0.106 0.4 0.077 0.591v0c-0.052 0.361-0.153 0.643-0.303 0.848v0c-0.089 0.122-0.161 0.213-0.215 0.276z" fill="#ffffff" data-fill-palette-color="accent"></path><path d="M13.514 12.433l0.113 0.106-0.921 0.981-0.112-0.105 0.112-0.12c0.056-0.06 0.089-0.109 0.097-0.149 0.008-0.049 0.005-0.085-0.011-0.108-0.02-0.028-0.048-0.059-0.083-0.092v0l-1.041-0.977-1.413 1.506 1.042 0.977c0.055 0.052 0.109 0.079 0.162 0.082 0.049 0.008 0.111-0.028 0.186-0.108v0l0.14-0.15 0.113 0.106-0.928 0.988-0.113-0.105 0.12-0.127c0.075-0.08 0.109-0.146 0.103-0.2-0.011-0.048-0.044-0.098-0.1-0.149v0l-2.15-2.018c-0.055-0.052-0.107-0.081-0.155-0.089-0.058-0.008-0.125 0.028-0.2 0.108v0l-0.12 0.127-0.104-0.098 0.927-0.989 0.105 0.099-0.14 0.149c-0.075 0.08-0.104 0.146-0.088 0.199 0.007 0.053 0.037 0.105 0.092 0.157v0l0.936 0.879 1.413-1.506-0.936-0.878c-0.04-0.037-0.072-0.063-0.097-0.077-0.025-0.014-0.061-0.015-0.11-0.004-0.043 0.006-0.093 0.039-0.149 0.099v0l-0.112 0.12-0.105-0.098 0.92-0.982 0.105 0.099-0.133 0.142c-0.056 0.06-0.086 0.112-0.09 0.156-0.008 0.049-0.005 0.085 0.011 0.108 0.015 0.024 0.043 0.054 0.083 0.092v0l2.15 2.017c0.035 0.033 0.067 0.058 0.097 0.077 0.025 0.014 0.061 0.015 0.109 0.004 0.038-0.011 0.086-0.046 0.142-0.106v0z" fill="#ffffff" data-fill-palette-color="accent"></path><path d="M15.093 11.062l0.102 0.116-1.024 0.89-0.101-0.117 0.132-0.114c0.083-0.072 0.124-0.135 0.122-0.188-0.006-0.049-0.034-0.102-0.083-0.159v0l-1.934-2.226c-0.049-0.057-0.098-0.092-0.145-0.104-0.057-0.014-0.127 0.015-0.21 0.087v0l-0.132 0.114-0.095-0.108 1.024-0.89 0.094 0.109-0.155 0.135c-0.083 0.072-0.119 0.135-0.108 0.189 0.001 0.053 0.026 0.109 0.076 0.165v0l1.934 2.226c0.049 0.057 0.101 0.09 0.153 0.098 0.048 0.013 0.113-0.016 0.195-0.088v0z" fill="#ffffff" data-fill-palette-color="accent"></path><path d="M13.598 7.704l0.668-0.477 0.79-0.627c0.256-0.183 0.503-0.279 0.74-0.289 0.237-0.009 0.421 0.078 0.553 0.262v0c0.183 0.256 0.263 0.515 0.239 0.776-0.02 0.267-0.1 0.513-0.242 0.74v0l1.455 0.553c0.06 0.025 0.159 0.046 0.298 0.064 0.139 0.018 0.242 0.004 0.31-0.044v0l0.075-0.054 0.089 0.126-0.643 0.459c0.011-0.008-0.049-0.033-0.18-0.074-0.121-0.04-0.193-0.064-0.216-0.073v0l-1.512-0.598c-0.024 0.025-0.08 0.07-0.17 0.133-0.084 0.06-0.152 0.105-0.207 0.135v0l-0.167-0.146c0.049-0.026 0.14-0.087 0.274-0.182 0.128-0.092 0.247-0.202 0.357-0.331 0.11-0.129 0.179-0.279 0.208-0.451 0.033-0.166-0.005-0.325-0.112-0.475v0c-0.306-0.429-0.733-0.449-1.279-0.059v0l-0.44 0.339 1.779 2.491c0.028 0.039 0.055 0.07 0.08 0.094 0.021 0.018 0.057 0.027 0.106 0.026 0.04-0.003 0.093-0.029 0.16-0.077v0l0.167-0.119 0.09 0.125-1.104 0.788-0.089-0.125 0.133-0.096c0.067-0.048 0.108-0.09 0.125-0.126 0.018-0.046 0.021-0.082 0.01-0.109-0.014-0.032-0.035-0.067-0.063-0.106v0l-1.713-2.4c-0.048-0.067-0.096-0.104-0.143-0.112-0.052-0.014-0.119 0.01-0.203 0.069v0l-0.134 0.096z" fill="#ffffff" data-fill-palette-color="accent"></path><path d="M21.375 6.338l0.204 0.732-2.501 1.378-0.074-0.135 0.153-0.084c0.09-0.05 0.142-0.098 0.155-0.144 0.01-0.053-0.005-0.115-0.045-0.187v0l-1.423-2.582c-0.033-0.06-0.079-0.101-0.138-0.123-0.065-0.019-0.134-0.008-0.206 0.031v0l-0.153 0.085-0.069-0.126 2.465-1.359 0.388 0.619-0.115 0.11c-0.063-0.114-0.167-0.197-0.314-0.249-0.146-0.052-0.3-0.034-0.462 0.055v0l-0.846 0.466c-0.096 0.053-0.146 0.104-0.15 0.153-0.01 0.053 0.001 0.109 0.035 0.169v0l0.59 1.071 0.935-0.516c0.042-0.023 0.076-0.046 0.103-0.069 0.021-0.019 0.033-0.046 0.039-0.079 0.001-0.04-0.013-0.087-0.043-0.141v0l-0.119-0.216 0.144-0.079 0.536 0.971-0.144 0.08-0.109-0.198c-0.043-0.078-0.086-0.121-0.13-0.129-0.046 0.002-0.102 0.021-0.167 0.058v0l-0.936 0.516 0.659 1.196c0.036 0.066 0.079 0.109 0.13 0.128 0.044 0.023 0.114 0.008 0.209-0.045v0l0.882-0.486c0.168-0.093 0.287-0.225 0.357-0.396 0.066-0.177 0.075-0.319 0.024-0.424v0z" fill="#ffffff" data-fill-palette-color="accent"></path><path d="M25.116 5.417l0.055 0.144-1.267 0.484-0.055-0.144 0.163-0.062c0.102-0.039 0.162-0.084 0.18-0.135 0.011-0.048 0.003-0.107-0.024-0.178v0l-1.052-2.754c-0.027-0.07-0.06-0.12-0.101-0.148-0.049-0.033-0.125-0.029-0.227 0.01v0l-0.163 0.062-0.051-0.134 1.266-0.484 0.052 0.134-0.192 0.073c-0.102 0.039-0.158 0.086-0.167 0.141-0.017 0.051-0.013 0.111 0.015 0.181v0l1.052 2.755c0.027 0.07 0.064 0.119 0.11 0.144 0.04 0.029 0.112 0.023 0.214-0.015v0z" fill="#ffffff" data-fill-palette-color="accent"></path><path d="M28.867 4.616v0l-3.105-2.427 0.701 2.588c0.039 0.145 0.168 0.189 0.386 0.13v0l0.188-0.051 0.043 0.158-1.229 0.333-0.043-0.159 0.158-0.043c0.218-0.059 0.308-0.161 0.268-0.306v0l-0.77-2.846c-0.041-0.152-0.171-0.199-0.388-0.14v0l-0.159 0.043-0.04-0.148 0.813-0.22 2.882 2.274-0.668-2.469c-0.041-0.152-0.164-0.2-0.369-0.145v0l-0.169 0.046-0.04-0.149 1.229-0.333 0.041 0.149-0.189 0.051c-0.218 0.059-0.307 0.165-0.265 0.316v0l0.866 3.203c-0.033 0.009-0.068 0.036-0.105 0.082-0.031 0.044-0.043 0.065-0.036 0.063z" fill="#ffffff" data-fill-palette-color="accent"></path><path d="M31.917 4.101v0l-0.078 0.041-1.742-3.246c-0.044-0.07-0.088-0.123-0.134-0.159-0.046-0.036-0.106-0.049-0.181-0.039v0l-0.184 0.024-0.019-0.153 1.345-0.173 0.019 0.153-0.183 0.023c-0.143 0.018-0.208 0.075-0.196 0.171v0c0.005 0.041 0.03 0.103 0.076 0.187v0l1.36 2.528 0.707-2.887 0.031-0.159c-0.004-0.034-0.028-0.055-0.07-0.064-0.043-0.008-0.128-0.004-0.258 0.013v0l-0.112 0.014-0.019-0.153 1.049-0.134 0.02 0.152-0.072 0.01c-0.115 0.015-0.198 0.046-0.247 0.093-0.049 0.048-0.085 0.121-0.106 0.221v0l-0.773 3.175c-0.117 0.112-0.195 0.232-0.233 0.362z" fill="#ffffff" data-fill-palette-color="accent"></path><path d="M37.21 2.985l-0.163 0.743-2.855 0.047-0.003-0.154 0.175-0.003c0.103-0.002 0.171-0.02 0.205-0.054 0.034-0.042 0.05-0.104 0.048-0.186v0l-0.049-2.948c-0.001-0.068-0.023-0.126-0.065-0.173-0.049-0.047-0.114-0.07-0.196-0.069v0l-0.175 0.003-0.002-0.144 2.814-0.047 0.053 0.729-0.153 0.043c-0.002-0.13-0.056-0.252-0.161-0.367-0.105-0.115-0.249-0.17-0.434-0.167v0l-0.965 0.016c-0.11 0.002-0.178 0.024-0.205 0.065-0.034 0.042-0.05 0.097-0.048 0.165v0l0.02 1.222 1.068-0.018c0.048-0.001 0.089-0.005 0.123-0.012 0.027-0.007 0.051-0.025 0.071-0.052 0.02-0.035 0.029-0.083 0.029-0.145v0l-0.004-0.246 0.164-0.003 0.019 1.109-0.165 0.003-0.003-0.226c-0.001-0.089-0.02-0.147-0.055-0.174-0.041-0.02-0.1-0.029-0.175-0.028v0l-1.068 0.018 0.023 1.366c0.001 0.075 0.019 0.133 0.054 0.174 0.028 0.041 0.097 0.06 0.207 0.058v0l1.006-0.017c0.192-0.003 0.358-0.064 0.5-0.183 0.142-0.126 0.215-0.247 0.22-0.363v0z" fill="#ffffff" data-fill-palette-color="accent"></path><path d="M37.854 3.514v0l0.133-0.679 0.173 0.025c-0.017 0.191 0.085 0.358 0.306 0.502 0.222 0.137 0.482 0.218 0.782 0.245 0.293 0.026 0.519 0.002 0.677-0.073 0.158-0.075 0.243-0.184 0.256-0.328v0c0.021-0.232-0.087-0.451-0.322-0.658v0c-0.096-0.084-0.196-0.158-0.3-0.223v0c-0.247-0.16-0.403-0.26-0.468-0.299-0.058-0.046-0.126-0.09-0.205-0.132-0.078-0.048-0.149-0.099-0.213-0.153-0.065-0.047-0.135-0.105-0.212-0.174v0c-0.165-0.159-0.239-0.327-0.223-0.504 0.016-0.177 0.06-0.328 0.134-0.453 0.073-0.124 0.161-0.219 0.262-0.286 0.102-0.066 0.217-0.118 0.344-0.154v0c0.225-0.056 0.47-0.071 0.737-0.048 0.266 0.024 0.519 0.112 0.76 0.264v0l-0.116 0.608-0.184-0.016c0.029-0.327-0.236-0.516-0.796-0.566v0c-0.259-0.023-0.457 0-0.594 0.07-0.137 0.07-0.211 0.174-0.223 0.31v0c-0.021 0.232 0.323 0.538 1.031 0.918v0c0.465 0.255 0.755 0.514 0.869 0.779v0c0.057 0.136 0.078 0.279 0.065 0.428v0c-0.033 0.368-0.209 0.641-0.527 0.82-0.311 0.172-0.675 0.239-1.091 0.201-0.416-0.037-0.768-0.179-1.055-0.424z" fill="#ffffff" data-fill-palette-color="accent"></path><path d="M43.162 4.366l-0.03 0.151-1.36-0.268 0.03-0.151 0.211 0.042c0.107 0.021 0.178 0.018 0.212-0.011 0.035-0.035 0.06-0.089 0.074-0.163v0l0.558-2.832c0.009-0.047 0.014-0.088 0.014-0.123-0.001-0.028-0.02-0.06-0.055-0.095-0.03-0.027-0.081-0.047-0.155-0.062v0l-0.312-0.062c-0.188-0.037-0.34-0.011-0.455 0.078-0.123 0.094-0.202 0.208-0.235 0.341v0l-0.143-0.07 0.191-0.705 2.943 0.58-0.091 0.725-0.149 0.013c0.018-0.129-0.011-0.261-0.09-0.395-0.078-0.134-0.208-0.219-0.389-0.255v0l-0.323-0.063c-0.074-0.015-0.134-0.012-0.179 0.006-0.038 0.014-0.063 0.036-0.076 0.069-0.012 0.026-0.023 0.062-0.032 0.109v0l-0.559 2.832c-0.009 0.047-0.013 0.085-0.011 0.113 0.001 0.028 0.016 0.059 0.044 0.092 0.036 0.028 0.091 0.049 0.166 0.064v0z" fill="#ffffff" data-fill-palette-color="accent"></path><path d="M48.809 2.934l-2.134 2.585c-0.006-0.002-0.016-0.005-0.029-0.01-0.013-0.004-0.076 0.01-0.189 0.044v0l-0.129-3.427-1.14 2.563c-0.024 0.05-0.014 0.104 0.032 0.163 0.041 0.05 0.113 0.093 0.217 0.128v0l0.214 0.072-0.053 0.156-1.216-0.412 0.053-0.156 0.165 0.056c0.195 0.066 0.323 0.03 0.384-0.108v0l1.199-2.707c0.028-0.063 0.023-0.122-0.016-0.179-0.037-0.063-0.11-0.113-0.22-0.15v0l-0.165-0.056 0.049-0.146 0.954 0.323 0.117 3.207 2.052-2.472 0.905 0.307-0.046 0.136-0.195-0.066c-0.162-0.055-0.265-0.018-0.309 0.112v0c-0.002 0.006-0.005 0.016-0.01 0.029v0l-0.725 2.878c-0.013 0.082-0.013 0.144 0.002 0.185 0.021 0.043 0.074 0.079 0.159 0.108v0l0.204 0.069-0.053 0.156-1.294-0.438 0.053-0.156 0.175 0.059c0.091 0.031 0.16 0.04 0.208 0.027 0.043-0.021 0.071-0.048 0.082-0.08 0.013-0.039 0.022-0.065 0.026-0.078v0z" fill="#ffffff" data-fill-palette-color="accent"></path><path d="M52.436 7.241l-0.484 0.586-2.561-1.265 0.069-0.138 0.156 0.077c0.092 0.045 0.161 0.06 0.207 0.045 0.049-0.022 0.092-0.069 0.128-0.143v0l1.306-2.643c0.03-0.061 0.038-0.123 0.022-0.184-0.022-0.064-0.069-0.115-0.143-0.151v0l-0.157-0.077 0.064-0.129 2.523 1.246-0.286 0.672-0.156-0.031c0.058-0.117 0.066-0.25 0.026-0.4-0.041-0.15-0.144-0.266-0.31-0.347v0l-0.866-0.428c-0.098-0.049-0.169-0.06-0.211-0.036-0.049 0.022-0.089 0.063-0.119 0.125v0l-0.541 1.096 0.957 0.473c0.043 0.021 0.081 0.036 0.116 0.045 0.028 0.006 0.057 0.001 0.087-0.014 0.034-0.022 0.064-0.06 0.091-0.115v0l0.109-0.221 0.148 0.073-0.492 0.994-0.147-0.073 0.1-0.202c0.039-0.08 0.05-0.14 0.031-0.179-0.028-0.037-0.075-0.072-0.143-0.105v0l-0.957-0.474-0.606 1.225c-0.033 0.068-0.044 0.127-0.031 0.18 0.006 0.049 0.059 0.098 0.157 0.146v0l0.903 0.446c0.172 0.085 0.348 0.107 0.528 0.066 0.184-0.047 0.304-0.121 0.362-0.222v0z" fill="#ffffff" data-fill-palette-color="accent"></path><path d="M55.199 10.016v0l-0.24-3.933-1.474 2.239c-0.083 0.126-0.03 0.251 0.159 0.375v0l0.163 0.108-0.09 0.137-1.064-0.7 0.09-0.138 0.137 0.091c0.189 0.124 0.325 0.123 0.408-0.003v0l1.621-2.462c0.087-0.132 0.036-0.259-0.153-0.384v0l-0.138-0.09 0.085-0.129 0.704 0.463 0.206 3.666 1.407-2.136c0.087-0.132 0.041-0.256-0.136-0.373v0l-0.146-0.096 0.084-0.129 1.064 0.701-0.084 0.129-0.163-0.108c-0.189-0.124-0.326-0.121-0.414 0.011v0l-1.824 2.771c-0.029-0.019-0.072-0.027-0.131-0.025-0.053 0.006-0.077 0.011-0.071 0.015z" fill="#ffffff" data-fill-palette-color="accent"></path><path d="M58.064 12.029l-0.101 0.117-1.052-0.903 0.1-0.117 0.164 0.141c0.083 0.071 0.146 0.103 0.189 0.094 0.048-0.013 0.096-0.049 0.145-0.105v0l1.879-2.191c0.031-0.036 0.055-0.07 0.073-0.101 0.013-0.025 0.012-0.062-0.001-0.109-0.013-0.038-0.048-0.081-0.105-0.13v0l-0.242-0.208c-0.146-0.125-0.29-0.177-0.434-0.156-0.154 0.021-0.278 0.082-0.372 0.182v0l-0.091-0.132 0.514-0.52 2.277 1.953-0.436 0.587-0.136-0.062c0.08-0.103 0.118-0.232 0.116-0.388-0.002-0.155-0.073-0.293-0.214-0.414v0l-0.249-0.214c-0.057-0.049-0.11-0.077-0.159-0.082-0.039-0.007-0.073 0.001-0.101 0.022-0.023 0.016-0.05 0.043-0.081 0.079v0l-1.879 2.191c-0.031 0.036-0.053 0.067-0.066 0.093-0.013 0.025-0.015 0.059-0.007 0.102 0.018 0.042 0.055 0.088 0.113 0.137v0z" fill="#ffffff" data-fill-palette-color="accent"></path><path d="M59.178 12.905v0l0.548-0.423 0.113 0.134c-0.139 0.132-0.173 0.325-0.101 0.578 0.076 0.249 0.218 0.482 0.427 0.701 0.203 0.213 0.389 0.344 0.557 0.391 0.168 0.048 0.305 0.022 0.409-0.077v0c0.169-0.161 0.232-0.396 0.191-0.708v0c-0.016-0.126-0.042-0.248-0.078-0.365v0c-0.08-0.283-0.132-0.461-0.155-0.534-0.013-0.073-0.035-0.151-0.067-0.234-0.027-0.088-0.047-0.173-0.059-0.256-0.018-0.078-0.032-0.168-0.044-0.27v0c-0.019-0.228 0.036-0.404 0.165-0.526 0.129-0.123 0.262-0.207 0.398-0.252 0.137-0.045 0.265-0.059 0.386-0.042 0.121 0.017 0.241 0.054 0.361 0.111v0c0.206 0.107 0.401 0.257 0.585 0.45 0.184 0.193 0.317 0.427 0.397 0.7v0l-0.488 0.38-0.128-0.134c0.238-0.227 0.163-0.543-0.224-0.95v0c-0.18-0.188-0.344-0.301-0.493-0.338-0.149-0.037-0.273-0.009-0.373 0.085v0c-0.169 0.161-0.112 0.617 0.171 1.37v0c0.182 0.498 0.228 0.885 0.139 1.159v0c-0.047 0.139-0.125 0.261-0.234 0.365v0c-0.268 0.255-0.58 0.344-0.937 0.268-0.347-0.076-0.664-0.265-0.952-0.568-0.288-0.302-0.459-0.641-0.514-1.015z" fill="#ffffff" data-fill-palette-color="accent"></path><path d="M64.586 18.868l-0.708 0.278-1.625-2.348 0.135-0.093 0.099 0.143c0.062 0.09 0.117 0.139 0.165 0.148 0.049-0.001 0.105-0.023 0.167-0.065v0l2.424-1.679c0.062-0.043 0.102-0.087 0.12-0.133 0.014-0.052-0.01-0.122-0.072-0.212v0l-0.1-0.144 0.127-0.088 0.772 1.115-0.127 0.088-0.117-0.169c-0.062-0.09-0.118-0.135-0.167-0.134-0.053-0.005-0.111 0.014-0.173 0.057v0l-2.356 1.632c-0.068 0.047-0.108 0.096-0.123 0.147-0.018 0.046 0.004 0.114 0.066 0.204v0l0.574 0.828c0.109 0.158 0.255 0.26 0.438 0.308 0.183 0.048 0.323 0.039 0.418-0.027v0z" fill="#ffffff" data-fill-palette-color="accent"></path><path d="M65.149 21.102l-0.134 0.075-0.678-1.21 0.134-0.075 0.106 0.188c0.054 0.096 0.102 0.147 0.145 0.154 0.049 0.004 0.107-0.013 0.173-0.049v0l2.518-1.411c0.042-0.023 0.076-0.046 0.102-0.069 0.021-0.019 0.033-0.054 0.037-0.103 0.001-0.04-0.017-0.093-0.053-0.159v0l-0.156-0.277c-0.094-0.167-0.212-0.266-0.354-0.297-0.152-0.033-0.289-0.019-0.412 0.043v0l-0.04-0.155 0.662-0.311 1.466 2.617-0.612 0.401-0.106-0.106c0.11-0.07 0.191-0.178 0.243-0.324 0.051-0.147 0.032-0.3-0.059-0.461v0l-0.161-0.287c-0.037-0.066-0.077-0.11-0.121-0.133-0.035-0.02-0.069-0.024-0.102-0.013-0.027 0.007-0.062 0.023-0.103 0.046v0l-2.519 1.411c-0.042 0.023-0.073 0.045-0.093 0.064-0.021 0.019-0.034 0.051-0.042 0.094 0.002 0.046 0.022 0.102 0.059 0.167v0z" fill="#ffffff" data-fill-palette-color="accent"></path><path d="M69.519 22.764l-0.387-0.796-2.675 1.112c-0.035 0.237 0.016 0.52 0.152 0.848v0c0.163 0.392 0.414 0.692 0.753 0.9v0c0.171 0.107 0.372 0.164 0.605 0.172 0.227 0.01 0.463-0.037 0.709-0.139 0.24-0.1 0.437-0.241 0.592-0.424 0.15-0.174 0.251-0.36 0.302-0.559v0c0.103-0.413 0.086-0.785-0.051-1.114zM69.112 21.009l0.315 0.759 0.552 1.194c0.189 0.455 0.193 0.876 0.013 1.263-0.187 0.389-0.527 0.686-1.02 0.891-0.493 0.205-1.008 0.197-1.546-0.025-0.531-0.224-0.901-0.59-1.111-1.096v0l-0.647-1.555 0.152-0.063 0.067 0.161c0.042 0.101 0.085 0.161 0.13 0.179 0.048 0.01 0.107 0 0.177-0.029v0l2.723-1.131c0.076-0.032 0.123-0.07 0.141-0.114 0.025-0.047 0.018-0.119-0.021-0.214v0l-0.067-0.161z" fill="#ffffff" data-fill-palette-color="accent"></path><path d="M67.863 26.643c0.023 0.072 0.013 0.14-0.032 0.204-0.04 0.056-0.098 0.097-0.176 0.122-0.078 0.025-0.154 0.014-0.227-0.035-0.073-0.048-0.121-0.108-0.145-0.18-0.025-0.078-0.018-0.145 0.022-0.201 0.037-0.062 0.095-0.106 0.173-0.131 0.072-0.023 0.147-0.012 0.227 0.034 0.08 0.046 0.132 0.108 0.158 0.187z" fill="#ffffff" data-fill-palette-color="accent"></path><path d="M2.219 45.949v0l0.679-0.132 0.041 0.17c-0.183 0.056-0.3 0.214-0.35 0.472-0.043 0.257-0.021 0.529 0.068 0.817 0.086 0.282 0.194 0.481 0.323 0.6 0.129 0.118 0.263 0.156 0.4 0.114v0c0.223-0.068 0.385-0.25 0.488-0.547v0c0.042-0.12 0.073-0.241 0.093-0.362v0c0.055-0.289 0.089-0.471 0.102-0.547 0.021-0.071 0.036-0.151 0.045-0.239 0.015-0.091 0.036-0.176 0.061-0.255 0.019-0.077 0.046-0.165 0.081-0.261v0c0.085-0.212 0.213-0.345 0.384-0.397 0.17-0.052 0.327-0.068 0.469-0.047 0.142 0.021 0.264 0.066 0.364 0.136 0.1 0.07 0.191 0.156 0.273 0.26v0c0.136 0.188 0.243 0.409 0.321 0.664 0.078 0.255 0.092 0.523 0.042 0.804v0l-0.607 0.121-0.054-0.176c0.314-0.096 0.389-0.413 0.225-0.95v0c-0.076-0.249-0.173-0.423-0.29-0.524-0.117-0.1-0.24-0.131-0.371-0.09v0c-0.223 0.068-0.376 0.502-0.461 1.301v0c-0.061 0.527-0.192 0.893-0.395 1.098v0c-0.104 0.104-0.229 0.177-0.372 0.222v0c-0.354 0.108-0.673 0.048-0.958-0.18-0.276-0.223-0.475-0.535-0.597-0.934-0.122-0.399-0.124-0.779-0.005-1.138z" fill="#ffffff" data-fill-palette-color="accent"></path><path d="M4.67 52.646l-0.142 0.062-0.547-1.252 0.141-0.062 0.07 0.16c0.063 0.144 0.139 0.197 0.226 0.159v0c0.013-0.005 0.061-0.049 0.145-0.13v0l0.721-0.709-0.539-1.232-0.968 0.042c-0.006 0.003-0.051 0.011-0.135 0.025-0.086 0.008-0.142 0.017-0.167 0.029-0.025 0.011-0.036 0.038-0.032 0.081 0.007 0.034 0.037 0.111 0.09 0.23v0l0.033 0.075-0.142 0.062-0.416-0.951 0.142-0.061 0.028 0.066c0.047 0.107 0.097 0.178 0.15 0.214 0.06 0.034 0.14 0.047 0.242 0.04v0l3.274-0.155c0.015 0.016 0.053 0.036 0.116 0.062 0.063 0.025 0.124 0.043 0.182 0.055 0.067 0.016 0.103 0.022 0.109 0.019 0.006-0.003 0.008-0.007 0.005-0.013v0l0.062 0.063-2.63 2.575c-0.059 0.071-0.099 0.133-0.12 0.187-0.015 0.051-0.007 0.112 0.023 0.18v0zM4.989 49.636l0.465 1.063 1.162-1.137z" fill="#ffffff" data-fill-palette-color="accent"></path><path d="M6.906 53.525l0.161-0.153 0.12 0.227c0.134 0.231 0.293 0.424 0.478 0.578v0c0.107 0.088 0.228 0.141 0.364 0.157 0.127 0.014 0.258-0.019 0.394-0.098v0c0.486-0.282 0.56-0.713 0.224-1.294v0l-0.297-0.469-2.656 1.541c-0.041 0.024-0.072 0.046-0.093 0.066-0.02 0.02-0.032 0.054-0.035 0.104-0.001 0.04 0.02 0.095 0.061 0.166v0l0.104 0.178-0.134 0.077-0.68-1.173 0.133-0.077 0.082 0.142c0.041 0.071 0.079 0.116 0.115 0.136 0.044 0.022 0.08 0.029 0.107 0.021 0.027-0.008 0.061-0.024 0.103-0.048v0l2.558-1.485c0.071-0.041 0.113-0.085 0.126-0.132 0.018-0.05 0.002-0.12-0.05-0.209v0l-0.083-0.142 0.134-0.078 0.412 0.711 0.55 0.845c0.162 0.278 0.231 0.535 0.209 0.77-0.019 0.241-0.138 0.424-0.357 0.551-0.213 0.124-0.432 0.183-0.656 0.179-0.218-0.008-0.409-0.063-0.572-0.167v0c-0.31-0.192-0.528-0.398-0.655-0.617v0c-0.076-0.13-0.131-0.233-0.167-0.307z" fill="#ffffff" data-fill-palette-color="accent"></path><path d="M8.853 56.531l0.143-0.169 0.144 0.213c0.158 0.215 0.337 0.39 0.537 0.524v0c0.116 0.077 0.242 0.116 0.378 0.117 0.127 0 0.255-0.046 0.382-0.139v0c0.453-0.332 0.481-0.769 0.084-1.31v0l-0.344-0.435-2.477 1.815c-0.039 0.028-0.067 0.053-0.086 0.075-0.018 0.022-0.026 0.057-0.023 0.107 0.004 0.04 0.03 0.093 0.078 0.159v0l0.122 0.166-0.125 0.091-0.801-1.094 0.124-0.091 0.097 0.132c0.049 0.066 0.091 0.107 0.128 0.123 0.046 0.017 0.083 0.02 0.109 0.009 0.026-0.011 0.059-0.03 0.097-0.058v0l2.386-1.749c0.066-0.049 0.103-0.097 0.111-0.144 0.013-0.052-0.011-0.119-0.072-0.203v0l-0.097-0.132 0.124-0.091 0.486 0.663 0.637 0.781c0.19 0.26 0.287 0.507 0.289 0.743 0.007 0.241-0.092 0.437-0.296 0.586-0.199 0.146-0.41 0.228-0.633 0.248-0.218 0.015-0.413-0.02-0.587-0.105v0c-0.328-0.158-0.567-0.34-0.717-0.544v0c-0.089-0.122-0.155-0.217-0.198-0.288z" fill="#ffffff" data-fill-palette-color="accent"></path><path d="M11.928 62.381l-0.112 0.106-0.921-0.981 0.112-0.106 0.113 0.12c0.056 0.06 0.104 0.095 0.142 0.106 0.048 0.011 0.084 0.01 0.109-0.004 0.03-0.018 0.062-0.044 0.097-0.076v0l1.041-0.977-1.413-1.506-1.041 0.977c-0.055 0.052-0.086 0.104-0.092 0.157-0.011 0.048 0.021 0.112 0.095 0.192v0l0.141 0.15-0.112 0.105-0.928-0.989 0.112-0.105 0.12 0.127c0.075 0.08 0.139 0.118 0.192 0.115 0.049-0.008 0.101-0.038 0.156-0.089v0l2.149-2.017c0.055-0.052 0.088-0.101 0.1-0.15 0.012-0.058-0.02-0.127-0.095-0.206v0l-0.12-0.128 0.105-0.098 0.928 0.989-0.105 0.098-0.141-0.15c-0.075-0.08-0.139-0.113-0.193-0.1-0.053 0.003-0.108 0.03-0.162 0.082v0l-0.937 0.878 1.413 1.506 0.937-0.879c0.04-0.037 0.068-0.068 0.082-0.092 0.015-0.024 0.019-0.06 0.011-0.108-0.003-0.044-0.033-0.096-0.089-0.156v0l-0.113-0.12 0.105-0.098 0.921 0.981-0.105 0.099-0.134-0.143c-0.056-0.06-0.106-0.093-0.149-0.099-0.048-0.011-0.084-0.01-0.109 0.004-0.025 0.014-0.057 0.039-0.097 0.077v0l-2.15 2.017c-0.035 0.033-0.063 0.063-0.083 0.092-0.015 0.024-0.019 0.06-0.011 0.109 0.008 0.039 0.041 0.089 0.097 0.148v0z" fill="#ffffff" data-fill-palette-color="accent"></path><path d="M13.667 63.906l-0.101 0.117-1.024-0.889 0.101-0.117 0.132 0.115c0.083 0.072 0.15 0.103 0.203 0.095 0.048-0.013 0.096-0.048 0.146-0.105v0l1.933-2.226c0.049-0.057 0.077-0.11 0.084-0.159 0.006-0.059-0.033-0.124-0.116-0.195v0l-0.132-0.115 0.095-0.108 1.023 0.889-0.094 0.108-0.155-0.134c-0.083-0.072-0.15-0.099-0.202-0.081-0.053 0.009-0.104 0.041-0.154 0.098v0l-1.933 2.226c-0.049 0.057-0.075 0.112-0.076 0.165-0.006 0.049 0.032 0.109 0.115 0.182v0z" fill="#ffffff" data-fill-palette-color="accent"></path><path d="M16.488 61.574l0.669 0.477 0.849 0.543c0.256 0.183 0.428 0.385 0.513 0.607 0.086 0.221 0.063 0.424-0.067 0.608v0c-0.183 0.256-0.402 0.416-0.657 0.478-0.259 0.068-0.518 0.072-0.779 0.012v0l-0.049 1.554c-0.004 0.064 0.008 0.166 0.035 0.304 0.028 0.138 0.075 0.23 0.143 0.278v0l0.075 0.054-0.09 0.125-0.643-0.46c0.011 0.008 0.015-0.057 0.011-0.193-0.002-0.127-0.002-0.203-0.001-0.228v0l0.075-1.625c-0.032-0.014-0.092-0.053-0.181-0.117-0.084-0.06-0.148-0.11-0.195-0.152v0l0.083-0.205c0.041 0.037 0.128 0.104 0.262 0.199 0.128 0.092 0.271 0.168 0.429 0.23 0.158 0.062 0.322 0.079 0.494 0.05 0.168-0.023 0.306-0.11 0.413-0.26v0c0.306-0.429 0.186-0.839-0.36-1.229v0l-0.463-0.305-1.779 2.491c-0.028 0.039-0.049 0.074-0.063 0.106-0.01 0.026-0.007 0.063 0.011 0.109 0.016 0.037 0.057 0.079 0.124 0.127v0l0.167 0.119-0.089 0.125-1.104-0.787 0.09-0.126 0.134 0.096c0.067 0.048 0.12 0.073 0.16 0.076 0.049 0.002 0.085-0.007 0.106-0.025 0.025-0.024 0.052-0.055 0.08-0.094v0l1.713-2.4c0.048-0.067 0.068-0.124 0.059-0.172-0.004-0.053-0.048-0.11-0.131-0.169v0l-0.134-0.096z" fill="#ffffff" data-fill-palette-color="accent"></path><path d="M20.89 67.868l-0.51 0.564-2.501-1.379 0.074-0.135 0.153 0.084c0.09 0.05 0.158 0.068 0.205 0.055 0.05-0.019 0.095-0.065 0.134-0.138v0l1.424-2.581c0.033-0.06 0.043-0.121 0.03-0.183-0.019-0.065-0.064-0.118-0.136-0.157v0l-0.153-0.085 0.069-0.125 2.465 1.358-0.316 0.659-0.155-0.039c0.063-0.114 0.077-0.247 0.044-0.398-0.034-0.152-0.132-0.272-0.294-0.361v0l-0.845-0.466c-0.096-0.053-0.166-0.068-0.21-0.045-0.05 0.019-0.091 0.059-0.124 0.119v0l-0.591 1.07 0.936 0.516c0.042 0.023 0.08 0.04 0.113 0.051 0.027 0.007 0.057 0.004 0.088-0.011 0.035-0.02 0.067-0.057 0.096-0.111v0l0.119-0.216 0.144 0.08-0.535 0.971-0.144-0.079 0.109-0.198c0.043-0.078 0.056-0.137 0.039-0.178-0.026-0.038-0.072-0.075-0.138-0.111v0l-0.936-0.516-0.659 1.197c-0.036 0.066-0.049 0.125-0.039 0.177 0.004 0.049 0.054 0.1 0.15 0.154v0l0.881 0.486c0.168 0.093 0.343 0.123 0.525 0.09 0.185-0.039 0.309-0.107 0.372-0.206v0z" fill="#ffffff" data-fill-palette-color="accent"></path><path d="M24.34 69.941l-0.055 0.144-1.267-0.484 0.055-0.144 0.163 0.063c0.102 0.039 0.177 0.046 0.224 0.019 0.04-0.029 0.074-0.078 0.1-0.148v0l1.052-2.754c0.027-0.07 0.035-0.13 0.024-0.178-0.015-0.057-0.073-0.105-0.176-0.144v0l-0.163-0.063 0.051-0.134 1.267 0.484-0.051 0.134-0.192-0.073c-0.102-0.039-0.175-0.041-0.218-0.006-0.047 0.026-0.083 0.074-0.11 0.144v0l-1.052 2.755c-0.027 0.07-0.032 0.131-0.014 0.181 0.011 0.048 0.068 0.092 0.17 0.131v0z" fill="#ffffff" data-fill-palette-color="accent"></path><path d="M28.175 71.266v0l-1.457-3.661-0.7 2.588c-0.039 0.145 0.05 0.248 0.268 0.307v0l0.188 0.051-0.043 0.158-1.229-0.332 0.043-0.159 0.158 0.043c0.218 0.059 0.347 0.016 0.387-0.13v0l0.77-2.845c0.041-0.152-0.047-0.258-0.266-0.317v0l-0.158-0.043 0.04-0.149 0.813 0.22 1.342 3.418 0.668-2.469c0.041-0.152-0.041-0.256-0.246-0.312v0l-0.168-0.045 0.04-0.149 1.23 0.333-0.041 0.148-0.188-0.051c-0.218-0.059-0.348-0.013-0.389 0.14v0l-0.867 3.203c-0.033-0.009-0.077-0.003-0.132 0.017-0.049 0.022-0.07 0.034-0.063 0.036z" fill="#ffffff" data-fill-palette-color="accent"></path><path d="M31.582 71.832v0l-0.085 0.02-0.866-3.581c-0.024-0.079-0.054-0.142-0.09-0.187-0.036-0.046-0.091-0.074-0.165-0.084v0l-0.184-0.023 0.02-0.153 1.345 0.173-0.02 0.152-0.183-0.023c-0.143-0.018-0.22 0.02-0.233 0.115v0c-0.005 0.041 0.003 0.107 0.026 0.2v0l0.678 2.79 1.413-2.615 0.07-0.146c0.004-0.034-0.013-0.06-0.052-0.079-0.039-0.019-0.123-0.037-0.252-0.053v0l-0.112-0.015 0.02-0.153 1.049 0.135-0.019 0.153-0.072-0.009c-0.115-0.015-0.203-0.005-0.262 0.028-0.06 0.034-0.112 0.096-0.159 0.187v0l-1.55 2.877c-0.141 0.079-0.247 0.175-0.317 0.291z" fill="#ffffff" data-fill-palette-color="accent"></path><path d="M37.193 71.345l-0.187 0.737-2.856-0.048 0.003-0.154 0.175 0.003c0.103 0.002 0.171-0.014 0.206-0.048 0.035-0.041 0.053-0.102 0.054-0.184v0l0.05-2.948c0.001-0.068-0.018-0.127-0.059-0.175-0.047-0.049-0.112-0.074-0.194-0.076v0l-0.175-0.002 0.003-0.144 2.814 0.047 0.029 0.73-0.155 0.038c0.002-0.13-0.047-0.254-0.148-0.372-0.101-0.118-0.244-0.179-0.428-0.182v0l-0.966-0.016c-0.11-0.002-0.178 0.018-0.206 0.058-0.035 0.041-0.053 0.095-0.054 0.164v0l-0.021 1.222 1.069 0.018c0.048 0.001 0.089-0.002 0.123-0.008 0.028-0.006 0.052-0.023 0.073-0.051 0.021-0.034 0.032-0.082 0.033-0.143v0l0.004-0.246 0.164 0.002-0.018 1.11-0.164-0.003 0.003-0.226c0.001-0.089-0.015-0.147-0.048-0.176-0.041-0.021-0.099-0.032-0.174-0.033v0l-1.068-0.018-0.023 1.366c-0.001 0.075 0.015 0.134 0.048 0.175 0.027 0.042 0.095 0.063 0.205 0.065v0l1.006 0.017c0.192 0.003 0.36-0.052 0.506-0.166 0.146-0.121 0.223-0.239 0.232-0.356v0z" fill="#ffffff" data-fill-palette-color="accent"></path><path d="M38.03 71.775v0l0.01-0.692 0.175-0.005c0.017 0.191 0.147 0.338 0.39 0.439 0.242 0.095 0.513 0.129 0.813 0.103 0.293-0.026 0.511-0.09 0.653-0.193 0.142-0.102 0.207-0.225 0.194-0.368v0c-0.021-0.232-0.166-0.429-0.434-0.59v0c-0.109-0.066-0.221-0.121-0.335-0.166v0c-0.271-0.113-0.443-0.184-0.514-0.212-0.065-0.035-0.14-0.067-0.224-0.093-0.086-0.034-0.165-0.071-0.237-0.113-0.072-0.035-0.151-0.079-0.239-0.134v0c-0.19-0.127-0.293-0.28-0.309-0.457-0.016-0.177 0.001-0.334 0.051-0.468 0.05-0.135 0.119-0.244 0.207-0.328 0.089-0.084 0.192-0.155 0.311-0.214v0c0.212-0.095 0.45-0.154 0.717-0.177 0.266-0.024 0.531 0.018 0.795 0.125v0l-0.007 0.619-0.184 0.016c-0.029-0.327-0.324-0.466-0.883-0.416v0c-0.259 0.023-0.45 0.082-0.572 0.175-0.122 0.093-0.177 0.208-0.165 0.345v0c0.021 0.232 0.413 0.472 1.178 0.72v0c0.503 0.168 0.834 0.372 0.993 0.612v0c0.08 0.123 0.126 0.26 0.14 0.41v0c0.033 0.368-0.091 0.668-0.373 0.9-0.276 0.224-0.621 0.355-1.038 0.392-0.416 0.037-0.787-0.04-1.113-0.23z" fill="#ffffff" data-fill-palette-color="accent"></path><path d="M43.583 71.095l0.03 0.151-1.361 0.268-0.03-0.151 0.212-0.042c0.107-0.021 0.171-0.051 0.192-0.09 0.019-0.046 0.021-0.105 0.006-0.179v0l-0.558-2.832c-0.009-0.047-0.021-0.087-0.034-0.119-0.012-0.026-0.041-0.048-0.086-0.067-0.038-0.014-0.093-0.013-0.168 0.002v0l-0.312 0.061c-0.188 0.037-0.319 0.119-0.392 0.245-0.078 0.134-0.108 0.269-0.087 0.405v0l-0.159-0.011-0.091-0.725 2.943-0.581 0.191 0.706-0.133 0.068c-0.032-0.126-0.109-0.237-0.233-0.331-0.123-0.094-0.276-0.124-0.457-0.088v0l-0.322 0.064c-0.074 0.015-0.128 0.039-0.164 0.074-0.03 0.027-0.044 0.058-0.044 0.092-0.001 0.028 0.003 0.066 0.011 0.113v0l0.559 2.832c0.009 0.047 0.02 0.083 0.032 0.109 0.012 0.026 0.037 0.048 0.076 0.069 0.044 0.012 0.103 0.011 0.177-0.004v0z" fill="#ffffff" data-fill-palette-color="accent"></path><path d="M47.562 66.713l-0.123 3.35c-0.006 0.002-0.016 0.005-0.029 0.01-0.013 0.004-0.054 0.054-0.123 0.15v0l-2.186-2.644 0.653 2.729c0.011 0.054 0.052 0.091 0.124 0.11 0.063 0.015 0.146 0.005 0.25-0.031v0l0.214-0.072 0.053 0.156-1.216 0.412-0.053-0.156 0.165-0.056c0.195-0.066 0.274-0.172 0.239-0.32v0l-0.693-2.877c-0.015-0.067-0.056-0.111-0.121-0.133-0.067-0.028-0.156-0.023-0.266 0.014v0l-0.165 0.056-0.05-0.146 0.954-0.323 2.042 2.475 0.127-3.21 0.905-0.306 0.046 0.136-0.194 0.066c-0.162 0.055-0.221 0.147-0.178 0.277v0c0.002 0.006 0.005 0.016 0.01 0.029v0l1.173 2.726c0.039 0.073 0.077 0.122 0.115 0.146 0.043 0.021 0.107 0.018 0.191-0.011v0l0.205-0.069 0.052 0.155-1.294 0.439-0.052-0.156 0.175-0.059c0.091-0.031 0.151-0.066 0.181-0.105 0.021-0.043 0.027-0.081 0.016-0.114-0.013-0.039-0.022-0.065-0.027-0.078v0z" fill="#ffffff" data-fill-palette-color="accent"></path><path d="M52.881 66.986l0.171 0.74-2.561 1.265-0.068-0.138 0.157-0.077c0.092-0.045 0.146-0.091 0.161-0.137 0.013-0.052 0.001-0.115-0.036-0.189v0l-1.305-2.643c-0.03-0.061-0.075-0.104-0.133-0.13-0.064-0.022-0.133-0.014-0.207 0.022v0l-0.156 0.078-0.064-0.129 2.523-1.247 0.36 0.636-0.12 0.105c-0.058-0.117-0.158-0.204-0.302-0.263-0.144-0.059-0.298-0.047-0.464 0.034v0l-0.865 0.428c-0.098 0.049-0.151 0.097-0.157 0.146-0.013 0.052-0.004 0.109 0.026 0.17v0l0.542 1.096 0.958-0.473c0.043-0.021 0.078-0.043 0.106-0.064 0.022-0.018 0.035-0.044 0.041-0.078 0.003-0.04-0.009-0.087-0.036-0.142v0l-0.109-0.221 0.147-0.073 0.492 0.995-0.148 0.072-0.1-0.202c-0.039-0.08-0.081-0.124-0.123-0.134-0.046 0-0.103 0.016-0.17 0.05v0l-0.958 0.473 0.605 1.225c0.033 0.068 0.074 0.112 0.123 0.134 0.043 0.025 0.113 0.013 0.212-0.036v0l0.902-0.446c0.172-0.085 0.297-0.211 0.374-0.379 0.074-0.174 0.089-0.315 0.044-0.423v0z" fill="#ffffff" data-fill-palette-color="accent"></path><path d="M56.655 65.522v0l-3.708-1.335 1.474 2.239c0.083 0.126 0.219 0.127 0.408 0.003v0l0.163-0.108 0.09 0.138-1.064 0.7-0.09-0.137 0.137-0.091c0.189-0.124 0.242-0.249 0.159-0.375v0l-1.621-2.462c-0.087-0.132-0.224-0.135-0.413-0.011v0l-0.137 0.09-0.085-0.128 0.703-0.464 3.449 1.26-1.406-2.137c-0.087-0.132-0.219-0.139-0.396-0.022v0l-0.146 0.096-0.085-0.129 1.064-0.7 0.085 0.129-0.163 0.107c-0.189 0.124-0.24 0.252-0.154 0.384v0l1.825 2.771c-0.029 0.019-0.053 0.056-0.075 0.111-0.015 0.051-0.02 0.075-0.014 0.071z" fill="#ffffff" data-fill-palette-color="accent"></path><path d="M59.48 62.948l0.1 0.117-1.052 0.903-0.101-0.117 0.164-0.14c0.083-0.071 0.124-0.129 0.123-0.173-0.006-0.049-0.033-0.102-0.083-0.159v0l-1.879-2.191c-0.031-0.036-0.061-0.065-0.088-0.087-0.023-0.016-0.059-0.022-0.108-0.016-0.039 0.007-0.088 0.035-0.145 0.084v0l-0.242 0.207c-0.146 0.125-0.219 0.26-0.22 0.406-0.002 0.155 0.039 0.287 0.122 0.395v0l-0.143 0.07-0.436-0.588 2.277-1.952 0.513 0.52-0.082 0.125c-0.09-0.094-0.212-0.152-0.366-0.174-0.154-0.021-0.301 0.028-0.441 0.148v0l-0.249 0.214c-0.057 0.049-0.092 0.097-0.106 0.145-0.013 0.038-0.01 0.072 0.007 0.103 0.013 0.025 0.035 0.056 0.065 0.092v0l1.88 2.191c0.031 0.036 0.058 0.063 0.081 0.079 0.023 0.016 0.056 0.024 0.1 0.023 0.045-0.011 0.095-0.041 0.153-0.091v0z" fill="#ffffff" data-fill-palette-color="accent"></path><path d="M60.604 61.781v0l-0.448-0.527 0.128-0.12c0.139 0.132 0.333 0.157 0.583 0.074 0.245-0.088 0.471-0.241 0.679-0.46 0.203-0.213 0.324-0.405 0.364-0.576 0.04-0.17 0.007-0.305-0.097-0.404v0c-0.169-0.161-0.407-0.213-0.716-0.157v0c-0.125 0.022-0.246 0.054-0.361 0.096v0c-0.279 0.094-0.454 0.154-0.526 0.179-0.072 0.016-0.149 0.042-0.231 0.079-0.086 0.031-0.171 0.055-0.252 0.071-0.077 0.021-0.166 0.04-0.268 0.057v0c-0.227 0.03-0.405-0.017-0.533-0.139-0.129-0.123-0.219-0.251-0.271-0.386-0.052-0.134-0.072-0.262-0.06-0.384 0.012-0.121 0.043-0.243 0.093-0.365v0c0.097-0.211 0.237-0.413 0.421-0.606 0.184-0.193 0.411-0.337 0.68-0.431v0l0.404 0.47-0.128 0.134c-0.238-0.227-0.551-0.137-0.938 0.269v0c-0.18 0.188-0.284 0.358-0.315 0.509-0.03 0.151 0.004 0.274 0.104 0.368v0c0.169 0.161 0.622 0.082 1.36-0.236v0c0.489-0.206 0.873-0.27 1.15-0.194v0c0.141 0.04 0.267 0.112 0.376 0.216v0c0.268 0.255 0.372 0.563 0.313 0.922-0.059 0.35-0.233 0.676-0.521 0.979-0.288 0.302-0.618 0.49-0.99 0.562z" fill="#ffffff" data-fill-palette-color="accent"></path><path d="M65.411 55.03l0.509 0.564-1.626 2.348-0.135-0.093 0.1-0.144c0.062-0.09 0.089-0.159 0.08-0.207-0.018-0.046-0.058-0.09-0.12-0.133v0l-2.424-1.678c-0.062-0.043-0.118-0.065-0.167-0.066-0.053 0.005-0.111 0.052-0.173 0.142v0l-0.1 0.144-0.126-0.088 0.772-1.115 0.126 0.088-0.117 0.169c-0.062 0.09-0.084 0.158-0.066 0.204 0.014 0.052 0.052 0.099 0.114 0.142v0l2.357 1.631c0.068 0.047 0.128 0.068 0.181 0.063 0.049 0.001 0.105-0.044 0.167-0.133v0l0.574-0.828c0.109-0.158 0.154-0.331 0.134-0.519-0.019-0.188-0.077-0.316-0.173-0.382v0z" fill="#ffffff" data-fill-palette-color="accent"></path><path d="M67.047 53.288l0.134 0.075-0.677 1.21-0.135-0.075 0.106-0.188c0.054-0.096 0.072-0.164 0.055-0.205-0.022-0.044-0.067-0.084-0.132-0.121v0l-2.518-1.411c-0.042-0.023-0.079-0.041-0.113-0.051-0.027-0.007-0.063 0-0.107 0.023-0.035 0.02-0.07 0.063-0.107 0.128v0l-0.156 0.278c-0.094 0.167-0.116 0.32-0.067 0.457 0.051 0.147 0.135 0.256 0.251 0.329v0l-0.111 0.114-0.611-0.401 1.466-2.617 0.661 0.312-0.034 0.145c-0.117-0.058-0.251-0.07-0.403-0.037-0.152 0.033-0.273 0.13-0.363 0.291v0l-0.161 0.287c-0.037 0.066-0.053 0.123-0.049 0.172 0.001 0.04 0.015 0.071 0.041 0.094 0.021 0.019 0.052 0.041 0.094 0.064v0l2.518 1.411c0.042 0.023 0.076 0.039 0.104 0.046 0.027 0.007 0.061 0.003 0.101-0.014 0.038-0.026 0.075-0.072 0.113-0.137v0z" fill="#ffffff" data-fill-palette-color="accent"></path><path d="M65.475 48.882l-0.291 0.836 2.675 1.111c0.193-0.142 0.357-0.378 0.494-0.707v0c0.163-0.392 0.199-0.781 0.107-1.168v0c-0.044-0.196-0.146-0.38-0.306-0.549-0.153-0.167-0.353-0.302-0.599-0.405-0.24-0.1-0.48-0.14-0.718-0.12-0.229 0.016-0.432 0.076-0.609 0.18v0c-0.365 0.219-0.616 0.493-0.753 0.822zM64.518 50.409l0.316-0.759 0.457-1.234c0.189-0.455 0.484-0.755 0.885-0.9 0.408-0.142 0.858-0.111 1.352 0.094 0.493 0.205 0.851 0.576 1.072 1.113 0.215 0.534 0.218 1.055 0.008 1.561v0l-0.646 1.556-0.152-0.063 0.067-0.162c0.042-0.101 0.054-0.174 0.035-0.219-0.027-0.041-0.076-0.076-0.145-0.105v0l-2.723-1.131c-0.076-0.032-0.136-0.038-0.181-0.019-0.051 0.016-0.096 0.071-0.135 0.166v0l-0.067 0.161z" fill="#ffffff" data-fill-palette-color="accent"></path><path d="M69.268 47.138c0.023-0.072 0.071-0.121 0.145-0.148 0.065-0.022 0.136-0.021 0.214 0.005 0.078 0.025 0.133 0.079 0.164 0.161 0.031 0.082 0.035 0.159 0.012 0.23-0.025 0.078-0.07 0.128-0.135 0.151-0.067 0.029-0.139 0.031-0.218 0.005-0.072-0.023-0.126-0.077-0.164-0.161-0.038-0.084-0.044-0.165-0.018-0.243z" fill="#ffffff" data-fill-palette-color="accent"></path><path d="M0.519 36.663c0-0.807 0.654-1.461 1.461-1.461 0.807 0 1.461 0.654 1.462 1.461 0 0.807-0.654 1.461-1.462 1.462-0.807 0-1.461-0.654-1.461-1.462z" fill="#ffffff" data-fill-palette-color="accent"></path><path d="M68.64 36.663c0-0.807 0.654-1.461 1.462-1.461 0.807 0 1.461 0.654 1.461 1.461 0 0.807-0.654 1.461-1.461 1.462-0.807 0-1.461-0.654-1.462-1.462z" fill="#ffffff" data-fill-palette-color="accent"></path></g></svg></g></svg></g></svg></g><defs></defs></svg><rect width="395.52" height="59.47473016835609" fill="none" stroke="none" visibility="hidden"></rect></g></svg></g></svg>